<?xml version="1.0" standalone="no"?>
<!DOCTYPE svg PUBLIC "-//W3C//DTD SVG 1.1//EN" "http://www.w3.org/Graphics/SVG/1.1/DTD/svg11.dtd" >
<svg>
<metadata>
Created by FontForge 20090914 at Tue Jan 31 12:16:42 2017
 By www-data
Copyright \(c\) 2010 by Ryoichi Tsunekawa. All rights reserved.
</metadata>
<defs>
<font id="BebasNeueRegular" horiz-adv-x="387" >
  <font-face 
    font-family="Bebas Neue Regular"
    font-weight="400"
    font-stretch="normal"
    units-per-em="1000"
    panose-1="0 0 5 0 0 0 0 0 0 0"
    ascent="750"
    descent="-250"
    x-height="700"
    cap-height="700"
    bbox="-79 -179 831 887"
    underline-thickness="50"
    underline-position="-60"
    unicode-range="U+000D-U+F6C3"
  />
<missing-glyph horiz-adv-x="548" 
d="M50 700h448v-700h-448v700zM232 358l-110 -281h55l92 236l92 -236h62l-110 281l103 264h-55l-86 -218l-85 218h-61z" />
    <glyph glyph-name=".notdef" horiz-adv-x="548" 
d="M50 700h448v-700h-448v700zM232 358l-110 -281h55l92 236l92 -236h62l-110 281l103 264h-55l-86 -218l-85 218h-61z" />
    <glyph glyph-name="NULL" horiz-adv-x="0" 
 />
    <glyph glyph-name="NULL" horiz-adv-x="0" 
 />
    <glyph glyph-name="nonmarkingreturn" unicode="&#xd;" horiz-adv-x="155" 
 />
    <glyph glyph-name="space" unicode=" " horiz-adv-x="155" 
 />
    <glyph glyph-name="exclam" unicode="!" horiz-adv-x="158" 
d="M40 371v329h78v-329l-10 -216h-58zM116 97v-97h-75v97h75z" />
    <glyph glyph-name="quotedbl" unicode="&#x22;" horiz-adv-x="265" 
d="M115 700l-11 -189h-54l-10 189h75zM225 700l-11 -189h-54l-10 189h75z" />
    <glyph glyph-name="numbersign" unicode="#" horiz-adv-x="412" 
d="M327 472l-21 -205h56l-6 -56h-56l-22 -211h-64l22 211h-91l-23 -211h-64l23 211h-58l6 56h57l22 205h-59l6 56h58l18 172h64l-18 -172h92l18 172h64l-18 -172h56l-6 -56h-56zM263 472h-91l-22 -205h92z" />
    <glyph glyph-name="dollar" unicode="$" 
d="M226 697c42.667 -6 74.002 -24.333 94.002 -55s30 -69.667 30 -117v-19h-73v24c0 31.333 -6.5 55.833 -19.5 73.5s-33.5 26.5 -61.5 26.5s-48.333 -8.83301 -61 -26.5s-19 -42.167 -19 -73.5c0 -26 5.83301 -48.333 17.5 -67s26.167 -35.667 43.5 -51
s36.166 -30.166 56.499 -44.499s39.166 -30.333 56.499 -48s31.833 -38 43.5 -61s17.5 -50.833 17.5 -83.5c0 -47.333 -10.167 -86.5 -30.5 -117.5s-51.833 -49.5 -94.5 -55.5v-53h-64v53c-44 6 -76 24.333 -96 55s-30 70 -30 118v43h73v-48c0 -32 6.66699 -56.5 20 -73.5
s34 -25.5 62 -25.5c28.667 0 49.5 8.5 62.5 25.5s19.5 41.5 19.5 73.5c0 26 -5.83301 48.333 -17.5 67s-26.167 35.667 -43.5 51s-36 30.166 -56 44.499s-38.667 30.333 -56 48s-31.833 38 -43.5 61s-17.5 50.833 -17.5 83.5c0 48 10 87 30 117s51 48.333 93 55v56h64v-56z
" />
    <glyph glyph-name="percent" unicode="%" horiz-adv-x="616" 
d="M136 704c34 0 59.167 -10.333 75.5 -31s24.5 -48 24.5 -82v-221c0 -34 -8.16699 -61.333 -24.5 -82s-41.5 -31 -75.5 -31s-59.167 10.333 -75.5 31s-24.5 48 -24.5 82v221c0 34 8.16699 61.333 24.5 82s41.5 31 75.5 31zM467 700l-276 -700h-47l276 700h47zM136 658
c-18 0 -30.833 -5.83301 -38.5 -17.5s-11.5 -27.167 -11.5 -46.5v-228c0 -19.333 3.83301 -34.666 11.5 -45.999s20.5 -17 38.5 -17c17.333 0 30 5.66699 38 17s12 26.666 12 45.999v228c0 19.333 -4 34.833 -12 46.5s-20.667 17.5 -38 17.5zM480 442
c34.667 0 60 -10.167 76 -30.5s24 -47.5 24 -81.5v-220c0 -34 -8 -61.333 -24 -82s-41.333 -31 -76 -31c-34 0 -59.167 10.333 -75.5 31s-24.5 48 -24.5 82v220c0 34 8.16699 61.167 24.5 81.5s41.5 30.5 75.5 30.5zM480 396c-17.333 0 -30 -5.66699 -38 -17
s-12 -26.666 -12 -45.999v-227c0 -19.333 4 -34.833 12 -46.5s20.667 -17.5 38 -17.5s30 5.83301 38 17.5s12 27.167 12 46.5v227c0 19.333 -4 34.666 -12 45.999s-20.667 17 -38 17z" />
    <glyph glyph-name="ampersand" unicode="&#x26;" horiz-adv-x="408" 
d="M208 629c-30 0 -52.498 -8.00195 -67.498 -24.002s-22.5 -41 -22.5 -75v-35c0 -30 7.16699 -53 21.5 -69s34.166 -24.667 59.499 -26h79v78h77v-78h34v-70h-34v-241c0 -17.333 0.666992 -33.166 2 -47.499s5.66602 -28.166 12.999 -41.499h-79
c-4 8.66699 -7 17.167 -9 25.5s-3.33301 20.166 -4 35.499c-10 -22.667 -24.5 -39.667 -43.5 -51s-41.167 -17 -66.5 -17c-44 0 -76.167 14.333 -96.5 43s-30.5 68 -30.5 118v68c0 34.667 6.5 64.834 19.5 90.501s34.167 44.167 63.5 55.5c-28.667 10 -49.667 27.5 -63 52.5
s-20 55.167 -20 90.5v16c0 56 13.5 98.833 40.5 128.5s68.5 44.5 124.5 44.5h113v-71h-111zM205.002 329.998c-58 -2 -86.998 -37.334 -86.998 -106.001v-64c0 -31.333 6.66699 -55.166 20 -71.499s33.666 -24.5 60.999 -24.5c22.667 0 41.167 6.5 55.5 19.5
s22.166 33.167 23.499 60.5v186h-73z" />
    <glyph glyph-name="quotesingle" unicode="'" horiz-adv-x="151" 
d="M113 700l-11 -189h-54l-10 189h75z" />
    <glyph glyph-name="parenleft" unicode="(" horiz-adv-x="241" 
d="M194 636c-27.333 0 -46.167 -7.33105 -56.5 -21.998s-15.5 -37.334 -15.5 -68.001v-392c0 -30.667 5 -53.334 15 -68.001s29 -22 57 -22h23v-64h-28c-53.333 0 -90.666 12.5 -111.999 37.5s-32 63.833 -32 116.5v392c0 52.667 10.667 91.5 32 116.5
s58.666 37.5 111.999 37.5h28v-64h-23z" />
    <glyph glyph-name="parenright" unicode=")" horiz-adv-x="241" 
d="M52 700c53.333 0 90.665 -12.502 111.998 -37.502s32 -63.833 32 -116.5v-392c0 -52.667 -10.667 -91.5 -32 -116.5s-58.666 -37.5 -111.999 -37.5h-28v64h23c28 0 47 7.33301 57 22s15 37.334 15 68.001v392c0 30.667 -5.16699 53.334 -15.5 68.001
s-29.166 22 -56.499 22h-23v64h28z" />
    <glyph glyph-name="asterisk" unicode="*" horiz-adv-x="395" 
d="M221 510l106 -117l-51 -38l-79 139l-78 -139l-51 38l105 117l-155 32l19 61l146 -64l-18 158h64l-17 -158l146 63l19 -61z" />
    <glyph glyph-name="plus" unicode="+" horiz-adv-x="392" 
d="M224 322v-141h-56v141h-138v56h138v139h56v-139h138v-56h-138z" />
    <glyph glyph-name="comma" unicode="," horiz-adv-x="160" 
d="M74 0h-29v97h75v-90l-39 -95h-32z" />
    <glyph glyph-name="hyphen" unicode="-" horiz-adv-x="265" 
d="M37 385h191v-70h-191v70z" />
    <glyph glyph-name="period" unicode="." horiz-adv-x="155" 
d="M115 97v-97h-75v97h75z" />
    <glyph glyph-name="slash" unicode="/" horiz-adv-x="376" 
d="M360 700l-276 -700h-68l276 700h68z" />
    <glyph glyph-name="zero" unicode="0" horiz-adv-x="389" 
d="M34 531c0 54 13.167 96.833 39.5 128.5s66.5 47.5 120.5 47.5s94.333 -15.833 121 -47.5s40 -74.5 40 -128.5v-361c0 -54 -13.333 -97 -40 -129s-67 -48 -121 -48s-94.167 16 -120.5 48s-39.5 75 -39.5 129v361zM111 165c0 -32 6.83301 -56.833 20.5 -74.5
s34.5 -26.5 62.5 -26.5c28.667 0 49.667 8.83301 63 26.5s20 42.5 20 74.5v370c0 32 -6.66699 57 -20 75s-34.333 27 -63 27c-28 0 -48.833 -9 -62.5 -27s-20.5 -43 -20.5 -75v-370z" />
    <glyph glyph-name="one" unicode="1" horiz-adv-x="338" 
d="M183 573c-13.333 -8 -28.167 -14.667 -44.5 -20s-33.833 -8.66602 -52.5 -9.99902v64c18.667 0.666992 34.667 3.66699 48 9s24.5 12.166 33.5 20.499s16.5 18 22.5 29s11.333 22.5 16 34.5h54v-700h-77v573z" />
    <glyph glyph-name="two" unicode="2" 
d="M197 707c54.667 0 94.666 -16.0049 119.999 -48.0049s38 -75 38 -129c0 -35.333 -5.83301 -67.166 -17.5 -95.499s-26.334 -54.666 -44.001 -78.999s-36.667 -47.166 -57 -68.499s-39.333 -42.666 -57 -63.999s-32.5 -43.5 -44.5 -66.5s-18 -47.833 -18 -74.5v-11h230
v-71h-307v60c0 37.333 5.83301 70.333 17.5 99s26.334 54.834 44.001 78.501s36.667 46 57 67s39.333 42.5 57 64.5s32.334 45.667 44.001 71s17.5 54.333 17.5 87c0 36 -6.33301 63.333 -19 82s-33.667 28 -63 28c-28.667 0 -49.5 -9.33301 -62.5 -28
s-19.5 -43.667 -19.5 -75v-62h-73v57c0 54 12.667 97.167 38 129.5s65 48.5 119 48.5z" />
    <glyph glyph-name="three" unicode="3" 
d="M193 707c54 0 93.833 -15.8311 119.5 -47.498s38.5 -74.5 38.5 -128.5v-18c0 -36 -7.16699 -66.333 -21.5 -91s-35.5 -42.334 -63.5 -53.001c30 -11.333 51.667 -29.5 65 -54.5s20 -55.167 20 -90.5v-54c0 -54 -12.833 -97 -38.5 -129s-65.5 -48 -119.5 -48
c-53.333 0 -92.833 16.167 -118.5 48.5s-38.5 75.166 -38.5 128.499v48h73v-53c0 -32 6.66699 -56.833 20 -74.5s34 -26.5 62 -26.5c28.667 0 49.5 9 62.5 27s19.5 45 19.5 81v54c0 67.333 -29.333 102 -88 104h-42v70h46c26 1.33301 46.5 10 61.5 26s22.5 39.333 22.5 70
v32c0 36 -6.5 63.167 -19.5 81.5s-33.833 27.5 -62.5 27.5c-28 0 -48.667 -9 -62 -27s-20 -43 -20 -75v-36h-73v32c0 54 12.667 96.833 38 128.5s65 47.5 119 47.5z" />
    <glyph glyph-name="four" unicode="4" horiz-adv-x="400" 
d="M324 141v-141h-76v141h-226v71l217 488h85v-488h56v-71h-56zM94 212h154v342z" />
    <glyph glyph-name="five" unicode="5" 
d="M118 415c22.667 38.667 57.333 57.999 104 57.999c45.333 0 78.333 -15.167 99 -45.5s31 -70.5 31 -120.5v-137c0 -53.333 -13 -96.166 -39 -128.499s-65.667 -48.5 -119 -48.5s-92.833 16.167 -118.5 48.5s-38.5 75.166 -38.5 128.499v47h73v-52
c0 -32 6.66699 -56.833 20 -74.5s34 -26.5 62 -26.5s48.667 8.83301 62 26.5s20 42.5 20 74.5v136c0 32 -6.66699 56.833 -20 74.5s-34 26.5 -62 26.5c-21.333 0 -39 -6.16699 -53 -18.5s-22.667 -31.166 -26 -56.499v-16h-73l19 389h276v-70h-206z" />
    <glyph glyph-name="six" unicode="6" horiz-adv-x="389" 
d="M196 707c54 0 93.833 -15.667 119.5 -47s38.5 -74 38.5 -128v-13h-73v18c0 32 -6.66699 56.667 -20 74s-34.333 26 -63 26c-30 0 -51.667 -9.33301 -65 -28s-20 -47 -20 -85v-157c9.33301 24 23.5 42.5 42.5 55.5s42.5 19.5 70.5 19.5c45.333 0 78.333 -15 99 -45
s31 -70.333 31 -121v-106c0 -54 -13.167 -97 -39.5 -129s-66.5 -48 -120.5 -48s-94.333 16 -121 48s-40 75 -40 129v357c0 56 12.833 100 38.5 132s66.5 48 122.5 48zM196 371c-28.667 0 -49.667 -8.83301 -63 -26.5s-20 -42.5 -20 -74.5v-105
c0 -32 6.66699 -56.833 20 -74.5s34.333 -26.5 63 -26.5c28 0 48.833 8.83301 62.5 26.5s20.5 42.5 20.5 74.5v105c0 32 -6.83301 56.833 -20.5 74.5s-34.5 26.5 -62.5 26.5z" />
    <glyph glyph-name="seven" unicode="7" 
d="M273 630h-238v70h317v-68l-180 -632h-78z" />
    <glyph glyph-name="eight" unicode="8" horiz-adv-x="392" 
d="M196 707c54 0 95.0029 -15.3311 123.003 -45.998s42 -73 42 -127v-22c0 -36 -6.33301 -66.333 -19 -91s-33 -42.334 -61 -53.001c29.333 -11.333 50 -30 62 -56s18 -56.667 18 -92v-52c0 -54 -13.833 -96.667 -41.5 -128s-68.834 -47 -123.501 -47
s-95.834 15.667 -123.501 47s-41.5 74 -41.5 128v52c0 36 6 66.667 18 92s33 44 63 56c-28.667 11.333 -49.334 29.166 -62.001 53.499s-19 54.5 -19 90.5v22c0 54 14 96.333 42 127s69 46 123 46zM196.003 637.002c-28 0 -49.667 -8.5 -65 -25.5s-23 -43.5 -23 -79.5v-34
c0 -34 7.66699 -58.833 23 -74.5s37 -23.5 65 -23.5s49.667 7.83301 65 23.5s23 40.5 23 74.5v34c0 36 -7.66699 62.5 -23 79.5s-37 25.5 -65 25.5zM196.003 330.002c-58.667 0 -88 -33.667 -88 -101v-59c0 -36 7.66699 -62.667 23 -80s37 -26 65 -26s49.5 8.66699 64.5 26
s22.833 44 23.5 80v59c0 67.333 -29.333 101 -88 101z" />
    <glyph glyph-name="nine" unicode="9" horiz-adv-x="389" 
d="M193 707c54 0 94.333 -15.834 121 -47.501s40 -74.5 40 -128.5v-357c0 -55.333 -13 -99.333 -39 -132s-67 -49 -123 -49c-54 0 -93.833 15.833 -119.5 47.5s-38.5 74.5 -38.5 128.5v13h73v-18c0 -32 6.83301 -56.667 20.5 -74s34.5 -26 62.5 -26
c30 0 51.833 9.33301 65.5 28s20.5 46.667 20.5 84v157c-19.333 -49.333 -57 -74 -113 -74c-45.333 0 -78.333 14.833 -99 44.5s-31 69.834 -31 120.501v107c0 54 13.167 96.833 39.5 128.5s66.5 47.5 120.5 47.5zM193 635.999c-28 0 -48.833 -8.83301 -62.5 -26.5
s-20.5 -42.5 -20.5 -74.5v-105c0 -32 6.83301 -56.833 20.5 -74.5s34.5 -26.5 62.5 -26.5c28.667 0 49.667 8.83301 63 26.5s20 42.5 20 74.5v105c0 32 -6.66699 56.833 -20 74.5s-34.333 26.5 -63 26.5z" />
    <glyph glyph-name="colon" unicode=":" horiz-adv-x="155" 
d="M115 478v-97h-75v97h75zM115 97v-97h-75v97h75z" />
    <glyph glyph-name="semicolon" unicode=";" horiz-adv-x="160" 
d="M120 478v-97h-75v97h75zM74 0h-29v97h75v-90l-39 -95h-32z" />
    <glyph glyph-name="less" unicode="&#x3c;" horiz-adv-x="383" 
d="M343 195l-310 127v56l310 127v-57l-237 -98l237 -98v-57z" />
    <glyph glyph-name="equal" unicode="=" horiz-adv-x="350" 
d="M313 456v-56h-276v56h276zM313 314v-56h-276v56h276z" />
    <glyph glyph-name="greater" unicode="&#x3e;" horiz-adv-x="383" 
d="M40 252l237 98l-237 98v57l310 -127v-56l-310 -127v57z" />
    <glyph glyph-name="question" unicode="?" horiz-adv-x="361" 
d="M182 707c54 0 93.498 -16.002 118.498 -48.002s37.5 -75 37.5 -129c0 -28 -3.5 -52.667 -10.5 -74s-15.5 -40.833 -25.5 -58.5s-21.167 -34 -33.5 -49s-23.5 -30.167 -33.5 -45.5s-18.5 -31.833 -25.5 -49.5s-10.5 -37.5 -10.5 -59.5c0 -12 1.66699 -24.667 5 -38h-70
c-1.33301 6 -2.5 12.167 -3.5 18.5s-1.5 13.5 -1.5 21.5c0 25.333 3.16699 47.666 9.5 66.999s14.5 37 24.5 53s20.5 31.333 31.5 46s21.5 30.167 31.5 46.5s18.167 34.5 24.5 54.5s9.5 43.667 9.5 71c0 32 -6.16699 57.167 -18.5 75.5s-32.833 27.5 -61.5 27.5
s-49.167 -9.33301 -61.5 -28s-18.5 -43.667 -18.5 -75v-62h-73v57c0 26.667 3 50.834 9 72.501s15.333 40.334 28 56.001s28.834 27.834 48.501 36.501s42.834 13 69.501 13zM204.998 96.998v-97h-74v97h74z" />
    <glyph glyph-name="at" unicode="@" horiz-adv-x="689" 
d="M391 735c50 0 92.499 -7.33203 127.499 -21.999s63.167 -34.834 84.5 -60.501s36.833 -56 46.5 -91s14.5 -73.167 14.5 -114.5c0 -49.333 -5.16699 -93.333 -15.5 -132s-24 -71.334 -41 -98.001s-36.5 -47 -58.5 -61s-44.667 -21 -68 -21
c-49.333 0 -75.666 22.667 -78.999 68c-10 -22 -23.5 -39 -40.5 -51s-37.833 -17.667 -62.5 -17c-37.333 0.666992 -63.166 15.167 -77.499 43.5s-19.166 64.833 -14.499 109.5l11 100c4.66699 46 17.167 82.167 37.5 108.5s49.166 38.833 86.499 37.5
c22.667 0 41.167 -5.66699 55.5 -17s24.5 -27.666 30.5 -48.999l7 62h68l-30 -287c-1.33301 -11.333 0 -21.333 4 -30s12.333 -13 25 -13c19.333 0 35.5 8.16699 48.5 24.5s23.5 36.666 31.5 60.999s13.667 50.833 17 79.5s5 55.334 5 80.001
c0 34.667 -4.16699 66.167 -12.5 94.5s-21.333 52.5 -39 72.5s-40 35.333 -67 46s-59.167 16 -96.5 16c-50 0 -93.333 -9.83301 -130 -29.5s-67.167 -46.834 -91.5 -81.501s-42.333 -75.834 -54 -123.501s-17.5 -99.5 -17.5 -155.5c0 -43.333 5 -82.166 15 -116.499
s25.333 -63.333 46 -87s47 -41.834 79 -54.501s69.667 -19 113 -19c35.333 0 69 4.33301 101 13s64 25.334 96 50.001l-6 -69c-30.667 -21.333 -62 -35.666 -94 -42.999s-65.667 -11 -101 -11c-55.333 0 -102.833 8.16699 -142.5 24.5s-72.334 39.333 -98.001 69
s-44.667 65.5 -57 107.5s-18.5 88.667 -18.5 140c0 59.333 7.16699 116 21.5 170s36.5 101.5 66.5 142.5s67.667 73.667 113 98s99 36.5 161 36.5zM361.999 466.001c-23.333 0.666992 -41.166 -6.49707 -53.499 -21.4971s-20.166 -36.167 -23.499 -63.5l-9 -90
c-3.33301 -26 -0.5 -47.333 8.5 -64s25.167 -25.334 48.5 -26.001s41.166 7.16602 53.499 23.499s20.166 38.166 23.499 65.499l10 96c2.66699 23.333 -0.833008 42.5 -10.5 57.5s-25.5 22.5 -47.5 22.5z" />
    <glyph glyph-name="A" unicode="A" horiz-adv-x="422" 
d="M119 141l-27 -141h-72l134 700h113l134 -700h-78l-27 141h-177zM129 208h156l-79 404z" />
    <glyph glyph-name="B" unicode="B" horiz-adv-x="392" 
d="M197 700c54.667 0 93.667 -12.833 117 -38.5s35 -64.5 35 -116.5v-33c0 -37.333 -6 -67.5 -18 -90.5s-33.333 -39.167 -64 -48.5c34 -9.33301 58.167 -27 72.5 -53s21.5 -58.333 21.5 -97v-59c0 -52.667 -13 -93.167 -39 -121.5s-66.333 -42.5 -121 -42.5h-161v700h157z
M178 403c31.333 0 54.833 6.33203 70.5 18.999s23.5 37.334 23.5 74.001v41c0 31.333 -5.83301 54.5 -17.5 69.5s-31.5 22.5 -59.5 22.5h-77v-226h60zM201 70.999c55.333 0 83 31.667 83 95v62c0 39.333 -7.83301 66.5 -23.5 81.5s-40.5 22.5 -74.5 22.5h-68v-261h83z" />
    <glyph glyph-name="C" unicode="C" horiz-adv-x="380" 
d="M191 707c54 0 93.832 -16 119.499 -48s38.5 -74.667 38.5 -128v-63h-74v67c0 32 -6.5 56.833 -19.5 74.5s-33.833 26.5 -62.5 26.5c-28 0 -48.667 -8.83301 -62 -26.5s-20 -42.5 -20 -74.5v-370c0 -32 6.66699 -56.833 20 -74.5s34 -26.5 62 -26.5
c28.667 0 49.5 8.83301 62.5 26.5s19.5 42.5 19.5 74.5v91h74v-87c0 -53.333 -12.833 -96 -38.5 -128s-65.5 -48 -119.5 -48c-53.333 0 -92.833 16 -118.5 48s-38.5 74.667 -38.5 128v362c0 26.667 3.16699 50.834 9.5 72.501s16 40.167 29 55.5s29.333 27.166 49 35.499
s42.834 12.5 69.501 12.5z" />
    <glyph glyph-name="D" unicode="D" horiz-adv-x="396" 
d="M204 700c54.667 0 94.834 -15.5 120.501 -46.5s38.5 -73.5 38.5 -127.5v-353c0 -54 -12.833 -96.333 -38.5 -127s-65.834 -46 -120.501 -46h-164v700h164zM203 71c28 0 48.834 8.5 62.501 25.5s20.5 41.5 20.5 73.5v360c0 32 -6.83301 56.5 -20.5 73.5
s-34.834 25.5 -63.501 25.5h-84v-558h85z" />
    <glyph glyph-name="E" unicode="E" horiz-adv-x="360" 
d="M289 390v-70h-171v-249h210v-71h-288v700h288v-71h-210v-239h171z" />
    <glyph glyph-name="F" unicode="F" horiz-adv-x="340" 
d="M279 374v-71h-161v-303h-78v700h278v-71h-200v-255h161z" />
    <glyph glyph-name="G" unicode="G" horiz-adv-x="383" 
d="M191 707c54 0 93.832 -16 119.499 -48s38.5 -74.667 38.5 -128v-60h-74v64c0 32 -6.5 56.833 -19.5 74.5s-33.833 26.5 -62.5 26.5c-28 0 -48.667 -8.83301 -62 -26.5s-20 -42.5 -20 -74.5v-370c0 -32 6.66699 -56.833 20 -74.5s34 -26.5 62 -26.5
c28.667 0 49.5 8.83301 62.5 26.5s19.5 42.5 19.5 74.5v140h-72v70h146v-206c0 -53.333 -12.833 -96 -38.5 -128s-65.5 -48 -119.5 -48c-53.333 0 -92.833 16 -118.5 48s-38.5 74.667 -38.5 128v362c0 26.667 3.16699 50.834 9.5 72.501s16 40.167 29 55.5
s29.333 27.166 49 35.499s42.834 12.5 69.501 12.5z" />
    <glyph glyph-name="H" unicode="H" horiz-adv-x="408" 
d="M118 315v-315h-78v700h78v-315h172v315h78v-700h-78v315h-172z" />
    <glyph glyph-name="I" unicode="I" horiz-adv-x="158" 
d="M118 700v-700h-78v700h78z" />
    <glyph glyph-name="J" unicode="J" horiz-adv-x="255" 
d="M20 71c6.66699 -0.666992 13.3311 -0.996094 19.998 -0.996094h19c25.333 1.33301 45.333 9.16602 60 23.499s22 39.166 22 74.499v532h77v-527c0 -32.667 -3.83301 -60 -11.5 -82s-18.167 -39.833 -31.5 -53.5s-29.166 -23.334 -47.499 -29.001
s-37.833 -8.83398 -58.5 -9.50098c-9.33301 0 -17.666 -0.166992 -24.999 -0.5s-15.333 0.166992 -24 1.5v71z" />
    <glyph glyph-name="K" unicode="K" horiz-adv-x="409" 
d="M159 304l-41 -69v-235h-78v700h78v-338l186 338h79l-177 -319l183 -381h-80z" />
    <glyph glyph-name="L" unicode="L" horiz-adv-x="337" 
d="M40 0v700h78v-629h200v-71h-278z" />
    <glyph glyph-name="M" unicode="M" horiz-adv-x="523" 
d="M298 1h-75l-116 557v-558h-68v700h109l115 -559l111 559h109v-700h-74v563z" />
    <glyph glyph-name="N" unicode="N" horiz-adv-x="409" 
d="M109 0h-70v700h99l162 -506v506h69v-700h-81l-179 566v-566z" />
    <glyph glyph-name="O" unicode="O" horiz-adv-x="389" 
d="M34 531c0 54 13.167 96.833 39.5 128.5s66.5 47.5 120.5 47.5s94.333 -15.833 121 -47.5s40 -74.5 40 -128.5v-362c0 -53.333 -13.333 -96 -40 -128s-67 -48 -121 -48s-94.167 16 -120.5 48s-39.5 74.667 -39.5 128v362zM111 165c0 -32 6.83301 -56.833 20.5 -74.5
s34.5 -26.5 62.5 -26.5c28.667 0 49.667 8.83301 63 26.5s20 42.5 20 74.5v370c0 32 -6.66699 56.833 -20 74.5s-34.333 26.5 -63 26.5c-28 0 -48.833 -8.83301 -62.5 -26.5s-20.5 -42.5 -20.5 -74.5v-370z" />
    <glyph glyph-name="P" unicode="P" horiz-adv-x="374" 
d="M193 700c55.333 0 95.333 -15.168 120 -45.501s37 -72.166 37 -125.499v-84c0 -56 -13.167 -98.167 -39.5 -126.5s-67.5 -42.5 -123.5 -42.5h-69v-276h-78v700h153zM187 345.999c29.333 0 51 7.16699 65 21.5s21 38.5 21 72.5v93c0 32 -6.16699 56 -18.5 72
s-32.833 24 -61.5 24h-75v-283h69z" />
    <glyph glyph-name="Q" unicode="Q" horiz-adv-x="402" 
d="M194 707c54 0 94.334 -15.832 121.001 -47.499s40 -74.5 40 -128.5v-362c0 -44.667 -9 -81 -27 -109c4 -8.66699 9.33301 -14.5 16 -17.5s15.667 -4.5 27 -4.5h10v-69h-13c-42.667 0 -72.334 15 -89.001 45c-11.333 -6.66699 -24 -11.834 -38 -15.501
s-29.667 -5.5 -47 -5.5c-54 0 -94.167 16 -120.5 48s-39.5 74.667 -39.5 128v362c0 54 13.167 96.833 39.5 128.5s66.5 47.5 120.5 47.5zM194.001 636.001c-28 0 -48.833 -8.83301 -62.5 -26.5s-20.5 -42.5 -20.5 -74.5v-370c0 -32 6.83301 -56.833 20.5 -74.5
s34.5 -26.5 62.5 -26.5c28.667 0 49.667 8.83301 63 26.5s20 42.5 20 74.5v370c0 32 -6.66699 56.833 -20 74.5s-34.333 26.5 -63 26.5z" />
    <glyph glyph-name="R" unicode="R" horiz-adv-x="394" 
d="M196 700c55.333 0 95.168 -13.668 119.501 -41.001s36.5 -67 36.5 -119v-57c0 -38.667 -7 -70 -21 -94s-36 -40.667 -66 -50c32 -9.33301 54.667 -26.5 68 -51.5s20 -56.5 20 -94.5v-109c0 -15.333 0.666992 -30.166 2 -44.499s5.33301 -27.5 12 -39.5h-79
c-4.66699 10 -8 20.833 -10 32.5s-3 29.167 -3 52.5v110c0 39.333 -8.83301 66.5 -26.5 81.5s-42.834 22.5 -75.501 22.5h-55v-299h-78v700h156zM176.002 369.999c31.333 0 55.666 6.5 72.999 19.5s26 38.5 26 76.5v67c0 32 -6.16699 56 -18.5 72s-33.166 24 -62.499 24h-76
v-259h58z" />
    <glyph glyph-name="S" unicode="S" horiz-adv-x="372" 
d="M187 707c53.333 0 92.6689 -15.835 118.002 -47.502s38 -74.167 38 -127.5v-19h-74v23c0 32 -6.33301 56.667 -19 74s-33 26 -61 26s-48.333 -8.66699 -61 -26s-19 -41.666 -19 -72.999c0 -26 5.83301 -48.667 17.5 -68s26.167 -37.166 43.5 -53.499
s36.166 -32.333 56.499 -48s39.166 -32.834 56.499 -51.501s31.833 -39.834 43.5 -63.501s17.5 -51.834 17.5 -84.501c0 -53.333 -12.833 -95.833 -38.5 -127.5s-65.5 -47.5 -119.5 -47.5s-93.667 15.833 -119 47.5s-38 74.167 -38 127.5v40h73v-44
c0 -32 6.66699 -56.667 20 -74s34 -26 62 -26s48.667 8.66699 62 26s20 42 20 74c0 26 -5.83301 48.5 -17.5 67.5s-26.167 36.667 -43.5 53s-36 32.333 -56 48s-38.667 32.834 -56 51.501s-31.833 39.834 -43.5 63.501s-17.5 51.834 -17.5 84.501c0 54 12.667 96.667 38 128
s64.333 47 117 47z" />
    <glyph glyph-name="T" unicode="T" horiz-adv-x="363" 
d="M142 0v629h-129v71h336v-71h-129v-629h-78z" />
    <glyph glyph-name="U" unicode="U" 
d="M114 165c0 -32 6.49902 -56.833 19.499 -74.5s33.833 -26.5 62.5 -26.5c28 0 48.5 8.83301 61.5 26.5s19.5 42.5 19.5 74.5v535h73v-531c0 -53.333 -12.667 -96.166 -38 -128.499s-65 -48.5 -119 -48.5c-53.333 0 -92.666 16.167 -117.999 48.5s-38 75.166 -38 128.499
v531h77v-535z" />
    <glyph glyph-name="V" unicode="V" horiz-adv-x="418" 
d="M99 700l114 -609l113 609h72l-131 -700h-115l-132 700h79z" />
    <glyph glyph-name="W" unicode="W" horiz-adv-x="583" 
d="M226 0h-107l-96 700h76l82 -596l78 595h77l77 -596l79 597h68l-95 -700h-103l-67 475z" />
    <glyph glyph-name="X" unicode="X" horiz-adv-x="435" 
d="M214 302l-117 -302h-74l141 361l-132 339h81l108 -280l109 280h73l-131 -339l140 -361h-82z" />
    <glyph glyph-name="Y" unicode="Y" horiz-adv-x="406" 
d="M164 251l-148 449h81l109 -344l110 344h74l-149 -449v-251h-77v251z" />
    <glyph glyph-name="Z" unicode="Z" horiz-adv-x="379" 
d="M347 0h-318v70l240 559h-229v71h309v-70l-241 -559h239v-71z" />
    <glyph glyph-name="bracketleft" unicode="[" horiz-adv-x="242" 
d="M214 64v-64h-169v700h169v-64h-92v-572h92z" />
    <glyph glyph-name="backslash" unicode="\" horiz-adv-x="376" 
d="M84 700l276 -700h-68l-276 700h68z" />
    <glyph glyph-name="bracketright" unicode="]" horiz-adv-x="242" 
d="M119 64v572h-91v64h169v-700h-169v64h91z" />
    <glyph glyph-name="asciicircum" unicode="^" horiz-adv-x="403" 
d="M90 390h-63l146 310h57l146 -310h-63l-112 239z" />
    <glyph glyph-name="underscore" unicode="_" horiz-adv-x="507" 
d="M490 -10v-57h-477v57h477z" />
    <glyph glyph-name="grave" unicode="`" horiz-adv-x="223" 
d="M124 848l69 -103h-57l-93 103h81z" />
    <glyph glyph-name="a" unicode="a" horiz-adv-x="422" 
d="M119 141l-27 -141h-72l134 700h113l134 -700h-78l-27 141h-177zM129 208h156l-79 404z" />
    <glyph glyph-name="b" unicode="b" horiz-adv-x="392" 
d="M197 700c54.667 0 93.667 -12.833 117 -38.5s35 -64.5 35 -116.5v-33c0 -37.333 -6 -67.5 -18 -90.5s-33.333 -39.167 -64 -48.5c34 -9.33301 58.167 -27 72.5 -53s21.5 -58.333 21.5 -97v-59c0 -52.667 -13 -93.167 -39 -121.5s-66.333 -42.5 -121 -42.5h-161v700h157z
M178 403c31.333 0 54.833 6.33203 70.5 18.999s23.5 37.334 23.5 74.001v41c0 31.333 -5.83301 54.5 -17.5 69.5s-31.5 22.5 -59.5 22.5h-77v-226h60zM201 70.999c55.333 0 83 31.667 83 95v62c0 39.333 -7.83301 66.5 -23.5 81.5s-40.5 22.5 -74.5 22.5h-68v-261h83z" />
    <glyph glyph-name="c" unicode="c" horiz-adv-x="380" 
d="M191 707c54 0 93.832 -16 119.499 -48s38.5 -74.667 38.5 -128v-63h-74v67c0 32 -6.5 56.833 -19.5 74.5s-33.833 26.5 -62.5 26.5c-28 0 -48.667 -8.83301 -62 -26.5s-20 -42.5 -20 -74.5v-370c0 -32 6.66699 -56.833 20 -74.5s34 -26.5 62 -26.5
c28.667 0 49.5 8.83301 62.5 26.5s19.5 42.5 19.5 74.5v91h74v-87c0 -53.333 -12.833 -96 -38.5 -128s-65.5 -48 -119.5 -48c-53.333 0 -92.833 16 -118.5 48s-38.5 74.667 -38.5 128v362c0 26.667 3.16699 50.834 9.5 72.501s16 40.167 29 55.5s29.333 27.166 49 35.499
s42.834 12.5 69.501 12.5z" />
    <glyph glyph-name="d" unicode="d" horiz-adv-x="396" 
d="M204 700c54.667 0 94.834 -15.5 120.501 -46.5s38.5 -73.5 38.5 -127.5v-353c0 -54 -12.833 -96.333 -38.5 -127s-65.834 -46 -120.501 -46h-164v700h164zM203 71c28 0 48.834 8.5 62.501 25.5s20.5 41.5 20.5 73.5v360c0 32 -6.83301 56.5 -20.5 73.5
s-34.834 25.5 -63.501 25.5h-84v-558h85z" />
    <glyph glyph-name="e" unicode="e" horiz-adv-x="360" 
d="M289 390v-70h-171v-249h210v-71h-288v700h288v-71h-210v-239h171z" />
    <glyph glyph-name="f" unicode="f" horiz-adv-x="340" 
d="M279 374v-71h-161v-303h-78v700h278v-71h-200v-255h161z" />
    <glyph glyph-name="g" unicode="g" horiz-adv-x="383" 
d="M191 707c54 0 93.832 -16 119.499 -48s38.5 -74.667 38.5 -128v-60h-74v64c0 32 -6.5 56.833 -19.5 74.5s-33.833 26.5 -62.5 26.5c-28 0 -48.667 -8.83301 -62 -26.5s-20 -42.5 -20 -74.5v-370c0 -32 6.66699 -56.833 20 -74.5s34 -26.5 62 -26.5
c28.667 0 49.5 8.83301 62.5 26.5s19.5 42.5 19.5 74.5v140h-72v70h146v-206c0 -53.333 -12.833 -96 -38.5 -128s-65.5 -48 -119.5 -48c-53.333 0 -92.833 16 -118.5 48s-38.5 74.667 -38.5 128v362c0 26.667 3.16699 50.834 9.5 72.501s16 40.167 29 55.5
s29.333 27.166 49 35.499s42.834 12.5 69.501 12.5z" />
    <glyph glyph-name="h" unicode="h" horiz-adv-x="408" 
d="M118 315v-315h-78v700h78v-315h172v315h78v-700h-78v315h-172z" />
    <glyph glyph-name="i" unicode="i" horiz-adv-x="158" 
d="M118 700v-700h-78v700h78z" />
    <glyph glyph-name="j" unicode="j" horiz-adv-x="255" 
d="M20 71c6.66699 -0.666992 13.3311 -0.996094 19.998 -0.996094h19c25.333 1.33301 45.333 9.16602 60 23.499s22 39.166 22 74.499v532h77v-527c0 -32.667 -3.83301 -60 -11.5 -82s-18.167 -39.833 -31.5 -53.5s-29.166 -23.334 -47.499 -29.001
s-37.833 -8.83398 -58.5 -9.50098c-9.33301 0 -17.666 -0.166992 -24.999 -0.5s-15.333 0.166992 -24 1.5v71z" />
    <glyph glyph-name="k" unicode="k" horiz-adv-x="409" 
d="M159 304l-41 -69v-235h-78v700h78v-338l186 338h79l-177 -319l183 -381h-80z" />
    <glyph glyph-name="l" unicode="l" horiz-adv-x="337" 
d="M40 0v700h78v-629h200v-71h-278z" />
    <glyph glyph-name="m" unicode="m" horiz-adv-x="523" 
d="M298 1h-75l-116 557v-558h-68v700h109l115 -559l111 559h109v-700h-74v563z" />
    <glyph glyph-name="n" unicode="n" horiz-adv-x="409" 
d="M109 0h-70v700h99l162 -506v506h69v-700h-81l-179 566v-566z" />
    <glyph glyph-name="o" unicode="o" horiz-adv-x="389" 
d="M34 531c0 54 13.167 96.833 39.5 128.5s66.5 47.5 120.5 47.5s94.333 -15.833 121 -47.5s40 -74.5 40 -128.5v-362c0 -53.333 -13.333 -96 -40 -128s-67 -48 -121 -48s-94.167 16 -120.5 48s-39.5 74.667 -39.5 128v362zM111 165c0 -32 6.83301 -56.833 20.5 -74.5
s34.5 -26.5 62.5 -26.5c28.667 0 49.667 8.83301 63 26.5s20 42.5 20 74.5v370c0 32 -6.66699 56.833 -20 74.5s-34.333 26.5 -63 26.5c-28 0 -48.833 -8.83301 -62.5 -26.5s-20.5 -42.5 -20.5 -74.5v-370z" />
    <glyph glyph-name="p" unicode="p" horiz-adv-x="371" 
d="M193 700c55.333 0 95.333 -15.168 120 -45.501s37 -72.166 37 -125.499v-84c0 -56 -13.167 -98.167 -39.5 -126.5s-67.5 -42.5 -123.5 -42.5h-69v-276h-78v700h153zM187 345.999c29.333 0 51 7.16699 65 21.5s21 38.5 21 72.5v93c0 32 -6.16699 56 -18.5 72
s-32.833 24 -61.5 24h-75v-283h69z" />
    <glyph glyph-name="q" unicode="q" horiz-adv-x="392" 
d="M194 707c54 0 94.334 -15.832 121.001 -47.499s40 -74.5 40 -128.5v-362c0 -44.667 -9 -81 -27 -109c4 -8.66699 9.33301 -14.5 16 -17.5s15.667 -4.5 27 -4.5h10v-69h-13c-42.667 0 -72.334 15 -89.001 45c-11.333 -6.66699 -24 -11.834 -38 -15.501
s-29.667 -5.5 -47 -5.5c-54 0 -94.167 16 -120.5 48s-39.5 74.667 -39.5 128v362c0 54 13.167 96.833 39.5 128.5s66.5 47.5 120.5 47.5zM194.001 636.001c-28 0 -48.833 -8.83301 -62.5 -26.5s-20.5 -42.5 -20.5 -74.5v-370c0 -32 6.83301 -56.833 20.5 -74.5
s34.5 -26.5 62.5 -26.5c28.667 0 49.667 8.83301 63 26.5s20 42.5 20 74.5v370c0 32 -6.66699 56.833 -20 74.5s-34.333 26.5 -63 26.5z" />
    <glyph glyph-name="r" unicode="r" horiz-adv-x="394" 
d="M196 700c55.333 0 95.168 -13.668 119.501 -41.001s36.5 -67 36.5 -119v-57c0 -38.667 -7 -70 -21 -94s-36 -40.667 -66 -50c32 -9.33301 54.667 -26.5 68 -51.5s20 -56.5 20 -94.5v-109c0 -15.333 0.666992 -30.166 2 -44.499s5.33301 -27.5 12 -39.5h-79
c-4.66699 10 -8 20.833 -10 32.5s-3 29.167 -3 52.5v110c0 39.333 -8.83301 66.5 -26.5 81.5s-42.834 22.5 -75.501 22.5h-55v-299h-78v700h156zM176.002 369.999c31.333 0 55.666 6.5 72.999 19.5s26 38.5 26 76.5v67c0 32 -6.16699 56 -18.5 72s-33.166 24 -62.499 24h-76
v-259h58z" />
    <glyph glyph-name="s" unicode="s" horiz-adv-x="372" 
d="M187 707c53.333 0 92.6689 -15.835 118.002 -47.502s38 -74.167 38 -127.5v-19h-74v23c0 32 -6.33301 56.667 -19 74s-33 26 -61 26s-48.333 -8.66699 -61 -26s-19 -41.666 -19 -72.999c0 -26 5.83301 -48.667 17.5 -68s26.167 -37.166 43.5 -53.499
s36.166 -32.333 56.499 -48s39.166 -32.834 56.499 -51.501s31.833 -39.834 43.5 -63.501s17.5 -51.834 17.5 -84.501c0 -53.333 -12.833 -95.833 -38.5 -127.5s-65.5 -47.5 -119.5 -47.5s-93.667 15.833 -119 47.5s-38 74.167 -38 127.5v40h73v-44
c0 -32 6.66699 -56.667 20 -74s34 -26 62 -26s48.667 8.66699 62 26s20 42 20 74c0 26 -5.83301 48.5 -17.5 67.5s-26.167 36.667 -43.5 53s-36 32.333 -56 48s-38.667 32.834 -56 51.501s-31.833 39.834 -43.5 63.501s-17.5 51.834 -17.5 84.501c0 54 12.667 96.667 38 128
s64.333 47 117 47z" />
    <glyph glyph-name="t" unicode="t" horiz-adv-x="360" 
d="M141 0v629h-129v71h335v-71h-129v-629h-77z" />
    <glyph glyph-name="u" unicode="u" 
d="M114 165c0 -32 6.49902 -56.833 19.499 -74.5s33.833 -26.5 62.5 -26.5c28 0 48.5 8.83301 61.5 26.5s19.5 42.5 19.5 74.5v535h73v-531c0 -53.333 -12.667 -96.166 -38 -128.499s-65 -48.5 -119 -48.5c-53.333 0 -92.666 16.167 -117.999 48.5s-38 75.166 -38 128.499
v531h77v-535z" />
    <glyph glyph-name="v" unicode="v" horiz-adv-x="418" 
d="M99 700l114 -609l113 609h72l-131 -700h-115l-132 700h79z" />
    <glyph glyph-name="w" unicode="w" horiz-adv-x="583" 
d="M226 0h-107l-96 700h76l82 -596l78 595h77l77 -596l79 597h68l-95 -700h-103l-67 475z" />
    <glyph glyph-name="x" unicode="x" horiz-adv-x="435" 
d="M214 302l-117 -302h-74l141 361l-132 339h81l108 -280l109 280h73l-131 -339l140 -361h-82z" />
    <glyph glyph-name="y" unicode="y" horiz-adv-x="406" 
d="M164 251l-148 449h81l109 -344l110 344h74l-149 -449v-251h-77v251z" />
    <glyph glyph-name="z" unicode="z" horiz-adv-x="379" 
d="M347 0h-318v70l240 559h-229v71h309v-70l-241 -559h239v-71z" />
    <glyph glyph-name="braceleft" unicode="{" horiz-adv-x="257" 
d="M214 636c-21.333 0 -35.833 -6.16699 -43.5 -18.5s-12.167 -31.833 -13.5 -58.5l-6 -113c-0.666992 -10.667 -1.83398 -21 -3.50098 -31s-4.83398 -19.167 -9.50098 -27.5s-11.167 -15.833 -19.5 -22.5s-19.166 -11.667 -32.499 -15
c13.333 -3.33301 24.166 -8.33301 32.499 -15s14.833 -14.167 19.5 -22.5s7.83398 -17.5 9.50098 -27.5s2.83398 -20.333 3.50098 -31l6 -113c1.33301 -26.667 5.83301 -46.167 13.5 -58.5s22.167 -18.5 43.5 -18.5h19v-64h-46c-32 -0 -56 9.33301 -72 28s-25.333 45 -28 79
l-7 136c-1.33301 24.667 -5.5 42.667 -12.5 54s-22.833 18 -47.5 20v66c24.667 2 40.5 8.66699 47.5 20s11.167 29.333 12.5 54l7 136c2.66699 34 12 60.333 28 79s40 28 72 28h46v-64h-19z" />
    <glyph glyph-name="bar" unicode="|" horiz-adv-x="373" 
d="M222 744v-788h-64v788h64z" />
    <glyph glyph-name="braceright" unicode="}" horiz-adv-x="257" 
d="M70 700c31.333 0 55.166 -9.33301 71.499 -28s25.5 -45 27.5 -79l8 -136c0.666992 -12 1.83398 -22.5 3.50098 -31.5s4.5 -16.5 8.5 -22.5s9.83301 -10.667 17.5 -14s17.5 -5.33301 29.5 -6v-66c-12 -1.33301 -21.833 -3.5 -29.5 -6.5s-13.5 -7.5 -17.5 -13.5
s-6.83301 -13.5 -8.5 -22.5s-2.83398 -19.5 -3.50098 -31.5l-8 -136c-2 -34 -11.167 -60.333 -27.5 -79s-40.166 -28 -71.499 -28h-46v64h19c21.333 0 35.833 6.16699 43.5 18.5s12.167 31.833 13.5 58.5l6 113c0.666992 10.667 1.83398 21 3.50098 31
s4.83398 19.167 9.50098 27.5s11.167 15.833 19.5 22.5s19.166 11.667 32.499 15c-13.333 3.33301 -24.166 8.33301 -32.499 15s-14.833 14.167 -19.5 22.5s-7.83398 17.5 -9.50098 27.5s-2.83398 20.333 -3.50098 31l-6 113c-1.33301 26.667 -5.83301 46.167 -13.5 58.5
s-22.167 18.5 -43.5 18.5h-19v64h46z" />
    <glyph glyph-name="asciitilde" unicode="~" horiz-adv-x="396" 
d="M125 410c14 0 27.6719 -3.16699 41.0049 -9.5s26.166 -13.333 38.499 -21s24.333 -14.667 36 -21s23.167 -9.5 34.5 -9.5c12.667 0 23.5 4.5 32.5 13.5s19.833 22.833 32.5 41.5l38 -38c-18.667 -28.667 -35.834 -48.5 -51.501 -59.5s-32.834 -16.833 -51.501 -17.5
c-14 0 -27.5 3.16699 -40.5 9.5s-25.667 13.333 -38 21l-36 21.5c-11.667 6.66699 -23.5 10 -35.5 10c-13.333 0 -24.833 -4.5 -34.5 -13.5s-21.167 -23.167 -34.5 -42.5l-38 36c19.333 29.333 37.166 49.833 53.499 61.5s34.166 17.5 53.499 17.5z" />
    <glyph glyph-name="uni00A0" unicode="&#xa0;" horiz-adv-x="155" 
 />
    <glyph glyph-name="exclamdown" unicode="&#xa1;" horiz-adv-x="158" 
d="M116 700v-96h-75v96h75zM40 309l10 236h58l10 -236v-309h-78v309z" />
    <glyph glyph-name="cent" unicode="&#xa2;" 
d="M225 661c44 -5.33301 76.167 -23.167 96.5 -53.5s30.5 -69.5 30.5 -117.5v-40h-73v44c0 32 -6.66699 56.5 -20 73.5s-34 25.5 -62 25.5c-28.667 0 -49.5 -8.83301 -62.5 -26.5s-19.5 -42.5 -19.5 -74.5v-284c0 -31.333 6.5 -55.833 19.5 -73.5s33.833 -26.5 62.5 -26.5
c28 0 48.667 8.66699 62 26s20 42 20 74v67h73v-62c0 -48 -10.167 -87.5 -30.5 -118.5s-52.5 -49.167 -96.5 -54.5v-50h-64v50c-42.667 6 -74 24.5 -94 55.5s-30 70.167 -30 117.5v274c0 47.333 10 86.5 30 117.5s51.333 49.5 94 55.5v50h64v-49z" />
    <glyph glyph-name="sterling" unicode="&#xa3;" horiz-adv-x="391" 
d="M200 707c26.667 0 49.833 -4.33105 69.5 -12.998s35.834 -20.834 48.501 -36.501s22 -34.334 28 -56.001s9 -45.834 9 -72.501v-56h-74v60c0 32 -6 57.167 -18 75.5s-32.333 27.5 -61 27.5s-49.167 -9 -61.5 -27s-18.5 -43 -18.5 -75c0 -30.667 2.83301 -57 8.5 -79
s12.334 -42 20.001 -60s15.667 -35.5 24 -52.5s15.166 -35.833 20.499 -56.5h134v-61h-129c0.666992 -27.333 -4.33301 -53.166 -15 -77.499s-28.667 -49.833 -54 -76.5h221v-71h-319v68c13.333 5.33301 26.166 12.833 38.499 22.5s23 21.167 32 34.5s16 28.333 21 45
s6.83301 35 5.5 55h-83v61h73c-6 19.333 -13.333 37.333 -22 54s-17 34 -25 52s-14.833 38 -20.5 60s-8.5 48 -8.5 78c0 54 12.5 97 37.5 129s64.5 48 118.5 48z" />
    <glyph glyph-name="currency" unicode="&#xa4;" horiz-adv-x="372" 
d="M286 418c14.667 -20 22 -42.667 22 -68c0 -26 -7.33301 -49 -22 -69l52 -51l-32 -31l-51 50c-9.33301 -6.66699 -20 -11.834 -32 -15.501s-24.333 -5.5 -37 -5.5c-24.667 0 -47.667 7 -69 21l-51 -50l-31 31l51 51c-14.667 20 -22 43 -22 69
c0 26.667 7.33301 49.334 22 68.001l-51 52l31 31l52 -51c20 14.667 42.667 22 68 22s48.333 -7.33301 69 -22l51 51l32 -31zM186 424c-20.667 0 -38.167 -7.16699 -52.5 -21.5s-21.5 -31.833 -21.5 -52.5s7.16699 -38.167 21.5 -52.5s31.833 -21.5 52.5 -21.5
s38.334 7.16699 53.001 21.5s22 31.833 22 52.5s-7.33301 38.167 -22 52.5s-32.334 21.5 -53.001 21.5z" />
    <glyph glyph-name="yen" unicode="&#xa5;" horiz-adv-x="414" 
d="M246 232v-59h100v-40h-100v-133h-78v133h-100v40h100v59h-100v41h94l-144 427h81l111 -342l112 342h74l-145 -427h95v-41h-100z" />
    <glyph glyph-name="brokenbar" unicode="&#xa6;" horiz-adv-x="374" 
d="M158 744h64v-334h-64v334zM158 290h64v-334h-64v334z" />
    <glyph glyph-name="section" unicode="&#xa7;" 
d="M194 707c48 0 85.668 -12 113.001 -36s41 -56 41 -96v-27h-74v17c0 23.333 -7.16699 42 -21.5 56s-33.166 21 -56.499 21c-22.667 0 -41.834 -5.83301 -57.501 -17.5s-23.5 -29.5 -23.5 -53.5c-0.666992 -16.667 4.83301 -30.5 16.5 -41.5s26.167 -21 43.5 -30
s36.166 -17.833 56.499 -26.5s39.166 -19.667 56.499 -33s31.833 -29.666 43.5 -48.999s17.5 -43.666 17.5 -72.999c0 -28.667 -7.5 -53.834 -22.5 -75.501s-35.167 -38.834 -60.5 -51.501c11.333 -6 22.166 -13 32.499 -21s19.333 -17.167 27 -27.5
s13.667 -22.166 18 -35.499s6.5 -28.333 6.5 -45c-0.666992 -39.333 -15.167 -71.166 -43.5 -95.499s-65.833 -36.5 -112.5 -36.5c-48.667 0 -87 11.833 -115 35.5s-42 55.834 -42 96.501v41h74v-31c0 -24.667 7.66699 -43.667 23 -57s34.666 -20 57.999 -20
c21.333 0 39.833 5.83301 55.5 17.5s23.834 29.167 24.501 52.5c0 17.333 -5.66699 31.5 -17 42.5s-25.666 20.833 -42.999 29.5s-36.166 17.5 -56.499 26.5s-39.166 19.833 -56.499 32.5s-31.833 28.667 -43.5 48s-17.5 43.666 -17.5 72.999s8.16699 54.833 24.5 76.5
s37.166 38.167 62.499 49.5c-12 6.66699 -23.333 14 -34 22s-20 17.167 -28 27.5s-14.333 22.166 -19 35.499s-7 28.666 -7 45.999c0.666992 40 15 72.167 43 96.5s66 36.5 114 36.5zM191.001 412c-21.333 -3.33301 -39.832 -13.5 -55.499 -30.5s-23.5 -37.5 -23.5 -61.5
c0 -13.333 2.5 -25 7.5 -35s11.667 -18.833 20 -26.5s17.833 -14.5 28.5 -20.5s21.667 -11.333 33 -16c21.333 5.33301 39 16.333 53 33s21 37 21 61c0 24.667 -8.33301 44.167 -25 58.5s-36.334 26.833 -59.001 37.5z" />
    <glyph glyph-name="dieresis" unicode="&#xa8;" horiz-adv-x="219" 
d="M103 831v-90h-68v90h68zM184 831v-90h-68v90h68z" />
    <glyph glyph-name="copyright" unicode="&#xa9;" horiz-adv-x="742" 
d="M371 704c49.333 0 95 -8.83301 137 -26.5s78.333 -42.334 109 -74.001s54.667 -69.167 72 -112.5s26 -90.333 26 -141c0 -51.333 -8.66699 -98.5 -26 -141.5s-41.333 -80.333 -72 -112s-67 -56.334 -109 -74.001s-87.667 -26.5 -137 -26.5s-95 8.83301 -137 26.5
s-78.333 42.334 -109 74.001s-54.667 69 -72 112s-26 90.167 -26 141.5c0 50.667 8.66699 97.667 26 141s41.333 80.833 72 112.5s67 56.334 109 74.001s87.667 26.5 137 26.5zM371 654c-42 0 -81 -7.66699 -117 -23s-67 -36.5 -93 -63.5s-46.333 -59.167 -61 -96.5
s-22 -77.666 -22 -120.999s7.33301 -83.666 22 -120.999s35 -69.5 61 -96.5s57 -48.167 93 -63.5s75 -23 117 -23s81 7.66699 117 23s67 36.5 93 63.5s46.333 59.167 61 96.5s22 77.666 22 120.999s-7.33301 83.666 -22 120.999s-35 69.5 -61 96.5s-57 48.167 -93 63.5
s-75 23 -117 23zM367 570c37.333 0 64.833 -11.167 82.5 -33.5s26.5 -52.5 26.5 -90.5v-30h-52v34c0 21.333 -4.5 38.166 -13.5 50.499s-23.167 18.5 -42.5 18.5s-33.5 -6.16699 -42.5 -18.5s-13.5 -29.166 -13.5 -50.499v-200c0 -21.333 4.5 -38.166 13.5 -50.499
s23.167 -18.5 42.5 -18.5s33.5 6.16699 42.5 18.5s13.5 29.166 13.5 50.499v49h52v-46c0 -37.333 -8.83301 -67.166 -26.5 -89.499s-45.167 -33.5 -82.5 -33.5c-38 0 -65.667 11.167 -83 33.5s-26 52.166 -26 89.499v193c0 38 8.66699 68.167 26 90.5s45 33.5 83 33.5z" />
    <glyph glyph-name="ordfeminine" unicode="&#xaa;" horiz-adv-x="275" 
d="M147 705c34 0 57.665 -9.99902 70.998 -29.999s20 -46.667 20 -80v-261h-43l-3 55c-6 -18.667 -15.5 -33.334 -28.5 -44.001s-29.5 -16 -49.5 -16c-27.333 0 -47.666 8.5 -60.999 25.5s-20 41.5 -20 73.5v4c0 24 4.33301 43.5 13 58.5s20.167 27 34.5 36
s30.833 15.333 49.5 19s38 5.83398 58 6.50098v50c0 17.333 -3.16699 31.166 -9.5 41.499s-17.5 15.5 -33.5 15.5c-33.333 0 -50 -20.333 -50 -61v-18h-47v15c0 34 7.83301 60.833 23.5 80.5s40.834 29.5 75.501 29.5zM187.998 514.001
c-32.667 -1.33301 -58.167 -8.33301 -76.5 -21s-27.5 -30.667 -27.5 -54v-7c0 -37.333 16.333 -56 49 -56c17.333 0 30.333 5.5 39 16.5s14 25.167 16 42.5v79zM237.998 277.001v-50h-204v50h204z" />
    <glyph glyph-name="guillemotleft" unicode="&#xab;" horiz-adv-x="320" 
d="M24 351l63 251h71l-63 -251l63 -261h-71zM162 351l64 251h70l-63 -251l63 -261h-70z" />
    <glyph glyph-name="logicalnot" unicode="&#xac;" horiz-adv-x="388" 
d="M30 322v56h328v-191h-56v135h-272z" />
    <glyph glyph-name="uni00AD" unicode="&#xad;" horiz-adv-x="265" 
d="M37 385h191v-70h-191v70z" />
    <glyph glyph-name="registered" unicode="&#xae;" horiz-adv-x="742" 
d="M371 704c49.333 0 95 -8.83301 137 -26.5s78.333 -42.334 109 -74.001s54.667 -69.167 72 -112.5s26 -90.333 26 -141c0 -51.333 -8.66699 -98.5 -26 -141.5s-41.333 -80.333 -72 -112s-67 -56.334 -109 -74.001s-87.667 -26.5 -137 -26.5s-95 8.83301 -137 26.5
s-78.333 42.334 -109 74.001s-54.667 69 -72 112s-26 90.167 -26 141.5c0 50.667 8.66699 97.667 26 141s41.333 80.833 72 112.5s67 56.334 109 74.001s87.667 26.5 137 26.5zM371 654c-42 0 -81 -7.66699 -117 -23s-67 -36.5 -93 -63.5s-46.333 -59.167 -61 -96.5
s-22 -77.666 -22 -120.999s7.33301 -83.666 22 -120.999s35 -69.5 61 -96.5s57 -48.167 93 -63.5s75 -23 117 -23s81 7.66699 117 23s67 36.5 93 63.5s46.333 59.167 61 96.5s22 77.666 22 120.999s-7.33301 83.666 -22 120.999s-35 69.5 -61 96.5s-57 48.167 -93 63.5
s-75 23 -117 23zM376 564c38 0 65.667 -9.5 83 -28.5s26 -46.833 26 -83.5v-10c0 -26 -4.5 -47.5 -13.5 -64.5s-23.833 -29.167 -44.5 -36.5c21.333 -7.33301 36.333 -19.5 45 -36.5s13 -38.167 13 -63.5v-46c0 -11.333 0.5 -21.833 1.5 -31.5s4.16699 -18.834 9.5 -27.501
h-57c-3.33301 7.33301 -5.5 14.833 -6.5 22.5s-1.5 19.834 -1.5 36.501v46c0 28 -6.33301 47 -19 57s-30.667 15 -54 15h-37v-177h-54v428h109zM366 364c20.667 0 36.499 4.66797 47.499 14.001s16.5 26.666 16.5 51.999v16c0 22 -4.16699 38.833 -12.5 50.5
s-23.166 17.5 -44.499 17.5h-52v-150h45z" />
    <glyph glyph-name="macron" unicode="&#xaf;" horiz-adv-x="251" 
d="M232 800v-56h-212v56h212z" />
    <glyph glyph-name="degree" unicode="&#xb0;" horiz-adv-x="219" 
d="M109 708c24 0 44.5 -8.33301 61.5 -25s25.5 -37 25.5 -61s-8.5 -44.333 -25.5 -61s-37.5 -25 -61.5 -25c-12 0 -23.167 2.16699 -33.5 6.5s-19.333 10.5 -27 18.5s-13.834 17.167 -18.501 27.5s-7 21.5 -7 33.5s2.33301 23.167 7 33.5s10.834 19.5 18.501 27.5
s16.667 14.167 27 18.5s21.5 6.5 33.5 6.5zM109 671c-13.333 0 -24.833 -4.66699 -34.5 -14s-14.5 -21 -14.5 -35c0 -13.333 4.83301 -24.833 14.5 -34.5s21.167 -14.5 34.5 -14.5s25 4.83301 35 14.5s15 21.167 15 34.5c0 14 -5 25.667 -15 35s-21.667 14 -35 14z" />
    <glyph glyph-name="plusminus" unicode="&#xb1;" horiz-adv-x="392" 
d="M168 237v99h-131v56h131v125h56v-125h131v-56h-131v-99h131v-56h-318v56h131z" />
    <glyph glyph-name="twosuperior" unicode="&#xb2;" horiz-adv-x="275" 
d="M142 801c34.667 0 60.001 -10.332 76.001 -30.999s24 -48 24 -82c0 -22.667 -3.66699 -43 -11 -61s-16.5 -34.667 -27.5 -50s-23 -29.666 -36 -42.999s-25.167 -26.833 -36.5 -40.5s-20.833 -27.834 -28.5 -42.501s-11.5 -30.667 -11.5 -48v-6h146v-46h-196v38
c0 24 3.66699 45 11 63s16.666 34.5 27.999 49.5s23.5 29.167 36.5 42.5s25.167 27.166 36.5 41.499s20.666 29.5 27.999 45.5s11 34.667 11 56c0 45.333 -17.333 68 -52 68c-17.333 0 -30.166 -5.83301 -38.499 -17.5s-12.5 -27.5 -12.5 -47.5v-38h-48v35
c0 34 8 61.5 24 82.5s41.667 31.5 77 31.5z" />
    <glyph glyph-name="threesuperior" unicode="&#xb3;" horiz-adv-x="275" 
d="M138 800c34 0 59.167 -10.1689 75.5 -30.502s24.5 -47.833 24.5 -82.5v-11c0 -46.667 -17.333 -77 -52 -91c18.667 -7.33301 32 -19 40 -35s12 -35 12 -57v-34c0 -34.667 -8.16699 -62.167 -24.5 -82.5s-41.5 -30.5 -75.5 -30.5c-34.667 0 -60.167 10.167 -76.5 30.5
s-24.5 47.833 -24.5 82.5v30h48v-34c0 -19.333 4.16699 -34.666 12.5 -45.999s21.166 -17 38.499 -17c34.667 0 52 22.667 52 68v34c0 43.333 -18.333 65 -55 65h-27v46h29c16 0 28.833 5.33301 38.5 16s14.5 25.667 14.5 45v20c0 45.333 -17.333 68 -52 68
c-17.333 0 -30.166 -5.66699 -38.499 -17s-12.5 -26.666 -12.5 -45.999v-23h-48v19c0 34.667 8.16699 62.167 24.5 82.5s41.833 30.5 76.5 30.5z" />
    <glyph glyph-name="acute" unicode="&#xb4;" horiz-adv-x="223" 
d="M178 848l-93 -103h-54l70 103h77z" />
    <glyph glyph-name="uni00B5" unicode="&#xb5;" horiz-adv-x="398" 
d="M286 72c-9.33301 -24 -23.002 -43.167 -41.002 -57.5s-38 -21.5 -60 -21.5c-17.333 0 -31.666 4.33301 -42.999 13s-19.666 19.667 -24.999 33v-131h-78v592h78v-334c0 -32 6.5 -56.833 19.5 -74.5s33.5 -26.5 61.5 -26.5s48.5 8.83301 61.5 26.5s19.5 42.5 19.5 74.5
v334h78v-500h-71v72z" />
    <glyph glyph-name="paragraph" unicode="&#xb6;" horiz-adv-x="396" 
d="M203 643v-706h-57l1 340c-44 1.33301 -76.333 17 -97 47s-31 70.333 -31 121v86c0 53.333 11.667 94.833 35 124.5s62 44.5 116 44.5h180v-763h-57v706h-90z" />
    <glyph glyph-name="periodcentered" unicode="&#xb7;" horiz-adv-x="155" 
d="M115 403v-97h-75v97h75z" />
    <glyph glyph-name="cedilla" unicode="&#xb8;" horiz-adv-x="249" 
d="M143 -39c22.667 0 40.667 -3.33301 54 -10s20 -19.667 20 -39c0 -12.667 -2.5 -23 -7.5 -31s-11.833 -14.167 -20.5 -18.5s-18.667 -7.33301 -30 -9s-23.333 -2.5 -36 -2.5c-12 0 -23.667 1 -35 3s-21.166 5.16699 -29.499 9.5s-15 10.333 -20 18s-7.5 17.167 -7.5 28.5
v8h53v-7c0 -11.333 4.16699 -19 12.5 -23s17.166 -6.33301 26.499 -7c10.667 0 20 2.5 28 7.5s12 13.5 12 25.5c0 13.333 -4.5 22 -13.5 26s-20.167 6 -33.5 6h-8v63h35v-48z" />
    <glyph glyph-name="onesuperior" unicode="&#xb9;" horiz-adv-x="189" 
d="M30 737c24 0.666992 41.167 6.66797 51.5 18.001s18.5 24.666 24.5 39.999h35v-444h-50v367c-16.667 -10 -37 -16 -61 -18v37z" />
    <glyph glyph-name="ordmasculine" unicode="&#xba;" horiz-adv-x="277" 
d="M138 705c34.667 0 60.5 -10.167 77.5 -30.5s25.5 -47.5 25.5 -81.5v-153c0 -34 -8.5 -61.167 -25.5 -81.5s-42.833 -30.5 -77.5 -30.5s-60.334 10.167 -77.001 30.5s-25 47.5 -25 81.5v153c0 34 8.33301 61.167 25 81.5s42.334 30.5 77.001 30.5zM138 659
c-18 0 -31.167 -5.5 -39.5 -16.5s-12.5 -26.5 -12.5 -46.5v-159c0 -20 4.16699 -35.5 12.5 -46.5s21.5 -16.5 39.5 -16.5s31.167 5.5 39.5 16.5s12.5 26.5 12.5 46.5v159c0 20 -4.16699 35.5 -12.5 46.5s-21.5 16.5 -39.5 16.5zM241 278v-50h-204v50h204z" />
    <glyph glyph-name="guillemotright" unicode="&#xbb;" horiz-adv-x="320" 
d="M87 351l-63 251h70l64 -251l-64 -261h-70zM225 351l-63 251h70l64 -251l-64 -261h-70z" />
    <glyph glyph-name="onequarter" unicode="&#xbc;" horiz-adv-x="577" 
d="M118 623c-16.667 -10 -37 -15.999 -61 -17.999v37c24 0.666992 41.167 6.66699 51.5 18s18.5 24.666 24.5 39.999h35v-444h-50v367zM183 0.000976562h-47l276 700h47zM516 0.000976562h-50v88h-143v47l137 309h56v-309h34v-47h-34v-88zM466 135.001v212l-97 -212h97z" />
    <glyph glyph-name="onehalf" unicode="&#xbd;" horiz-adv-x="599" 
d="M118 623c-16.667 -10 -37 -15.999 -61 -17.999v37c24 0.666992 41.167 6.66699 51.5 18s18.5 24.666 24.5 39.999h35v-444h-50v367zM439 700.001l-276 -700h-47l276 700h47zM466 450.001c34.667 0 60.001 -10.3311 76.001 -30.998s24 -48 24 -82
c0 -22.667 -3.66699 -42.834 -11 -60.501s-16.5 -34.167 -27.5 -49.5s-23 -29.833 -36 -43.5s-25.167 -27.167 -36.5 -40.5s-20.833 -27.333 -28.5 -42s-11.5 -30.667 -11.5 -48v-7h146v-46h-196v38c0 24 3.66699 45 11 63s16.666 34.5 27.999 49.5s23.5 29.167 36.5 42.5
s25.167 27.166 36.5 41.499s20.666 29.5 27.999 45.5s11 34.667 11 56c0 45.333 -17.333 68 -52 68c-17.333 0 -30.166 -5.83301 -38.499 -17.5s-12.5 -27.5 -12.5 -47.5v-38h-48v35c0 34 8 61.5 24 82.5s41.667 31.5 77 31.5z" />
    <glyph glyph-name="threequarters" unicode="&#xbe;" horiz-adv-x="602" 
d="M138 705c34 0 59.167 -10.1689 75.5 -30.502s24.5 -47.833 24.5 -82.5v-11c0 -46.667 -17.333 -77 -52 -91c18.667 -7.33301 32 -19 40 -35s12 -35 12 -57v-34c0 -34.667 -8.16699 -62.167 -24.5 -82.5s-41.5 -30.5 -75.5 -30.5c-34.667 0 -60.167 10.167 -76.5 30.5
s-24.5 47.833 -24.5 82.5v30h48v-34c0 -19.333 4.16699 -34.666 12.5 -45.999s21.166 -17 38.499 -17c34.667 0 52 22.667 52 68v34c0 43.333 -18.333 65 -55 65h-27v46h29c16 0 28.833 5.33301 38.5 16s14.5 25.667 14.5 45v20c0 45.333 -17.333 68 -52 68
c-17.333 0 -30.166 -5.66699 -38.499 -17s-12.5 -26.666 -12.5 -45.999v-23h-48v19c0 34.667 8.16699 62.167 24.5 82.5s41.833 30.5 76.5 30.5zM444 699.998h47l-276 -700h-47zM491 87.998h-143v47l137 309h56v-309h34v-47h-34v-88h-50v88zM394 134.998h97v212z" />
    <glyph glyph-name="questiondown" unicode="&#xbf;" horiz-adv-x="361" 
d="M231 700v-97h-75v97h75zM227 544c4 -12 6.00098 -25.335 6.00098 -40.002c0 -25.333 -3.33301 -47.666 -10 -66.999s-14.834 -37 -24.501 -53s-20.167 -31.333 -31.5 -46s-22 -30.167 -32 -46.5s-18.167 -34.666 -24.5 -54.999s-9.5 -43.833 -9.5 -70.5
c0 -32 6.16699 -57.167 18.5 -75.5s32.833 -27.5 61.5 -27.5s49.167 9.33301 61.5 28s18.5 43.667 18.5 75v62h74v-57c0 -53.333 -12.5 -96.333 -37.5 -129s-64.5 -49 -118.5 -49s-93.333 16 -118 48s-37 75 -37 129c0 28 3.33301 52.667 10 74s15.167 40.833 25.5 58.5
s21.5 34 33.5 49s23.167 30.167 33.5 45.5s18.833 31.666 25.5 48.999s10 37.333 10 60c0 14.667 -1.33301 27.334 -4 38.001h69z" />
    <glyph glyph-name="Agrave" unicode="&#xc0;" horiz-adv-x="422" 
d="M190 840l70 -103h-57l-93 103h80zM119 141l-27 -141h-72l134 700h113l134 -700h-78l-27 141h-177zM129 208h156l-79 404z" />
    <glyph glyph-name="Aacute" unicode="&#xc1;" horiz-adv-x="422" 
d="M305 840l-92 -103h-55l70 103h77zM119 141l-27 -141h-72l134 700h113l134 -700h-78l-27 141h-177zM129 208h156l-79 404z" />
    <glyph glyph-name="Acircumflex" unicode="&#xc2;" horiz-adv-x="422" 
d="M157 737h-68l86 100h70l86 -100h-68l-53 59zM119 141l-27 -141h-72l134 700h113l134 -700h-78l-27 141h-177zM129 208h156l-79 404z" />
    <glyph glyph-name="Atilde" unicode="&#xc3;" horiz-adv-x="422" 
d="M161 826c10 0 19.168 -1.50391 27.501 -4.50391s16 -6.5 23 -10.5s13.833 -7.5 20.5 -10.5s13.667 -4.5 21 -4.5c8.66699 0.666992 16.167 3.16699 22.5 7.5s12.166 11.833 17.499 22.5l39 -27c-8 -19.333 -18 -33.666 -30 -42.999s-25.667 -14 -41 -14
c-10 0 -19 1.5 -27 4.5s-15.5 6.33301 -22.5 10s-13.833 7 -20.5 10s-14 4.5 -22 4.5c-9.33301 0 -17.333 -2.16699 -24 -6.5s-12.667 -12.166 -18 -23.499l-39 27c8 20.667 18.333 35.334 31 44.001s26.667 13.334 42 14.001zM119.001 140.996l-27 -141h-72l134 700h113
l134 -700h-78l-27 141h-177zM129.001 207.996h156l-79 404z" />
    <glyph glyph-name="Adieresis" unicode="&#xc4;" horiz-adv-x="422" 
d="M182 827v-90h-68v90h68zM306 827v-90h-68v90h68zM119 141l-27 -141h-72l134 700h113l134 -700h-78l-27 141h-177zM129 208h156l-79 404z" />
    <glyph glyph-name="Aring" unicode="&#xc5;" horiz-adv-x="422" 
d="M210 883c20.667 0 38 -7 52 -21s21 -31.333 21 -52c0 -21.333 -7 -38.833 -21 -52.5s-31.333 -20.5 -52 -20.5c-21.333 0 -39 6.83301 -53 20.5s-21 31.167 -21 52.5c0 20.667 7 38 21 52s31.667 21 53 21zM210 846c-10.667 0 -19.5 -3.5 -26.5 -10.5
s-10.5 -15.5 -10.5 -25.5c0 -10.667 3.5 -19.334 10.5 -26.001s15.833 -10 26.5 -10c10 0 18.5 3.33301 25.5 10s10.5 15.334 10.5 26.001c0 10 -3.5 18.5 -10.5 25.5s-15.5 10.5 -25.5 10.5zM119 141l-27 -141h-72l134 700h113l134 -700h-78l-27 141h-177zM129 208h156
l-79 404z" />
    <glyph glyph-name="AE" unicode="&#xc6;" horiz-adv-x="585" 
d="M516 390v-70h-161v-249h198v-71h-275v142h-143l-45 -142h-74l218 700h319v-71h-198v-239h161zM153 210h125v392z" />
    <glyph glyph-name="Ccedilla" unicode="&#xc7;" horiz-adv-x="380" 
d="M191 707c54 0 93.8311 -16 119.498 -48s38.5 -74.667 38.5 -128v-63h-74v67c0 32 -6.5 56.833 -19.5 74.5s-33.833 26.5 -62.5 26.5c-28 0 -48.667 -8.83301 -62 -26.5s-20 -42.5 -20 -74.5v-370c0 -32 6.66699 -56.833 20 -74.5s34 -26.5 62 -26.5
c28.667 0 49.5 8.83301 62.5 26.5s19.5 42.5 19.5 74.5v91h74v-87c0 -50 -11.5 -90.833 -34.5 -122.5s-58.5 -49.167 -106.5 -52.5v-31c23.333 0 41.5 -4.5 54.5 -13.5s19.5 -21.5 19.5 -37.5c0 -20 -8.33301 -35.667 -25 -47s-40 -17 -70 -17c-29.333 0 -52 5.5 -68 16.5
s-24 26.167 -24 45.5v8h51v-7c0 -17.333 13.667 -27 41 -29c28.667 0 43 10.667 43 32c0 20 -16.333 30 -49 30h-9v50c-47.333 3.33301 -82.166 21 -104.499 53s-33.5 72.667 -33.5 122v362c0 26.667 3.16699 50.834 9.5 72.501s16 40.167 29 55.5s29.333 27.166 49 35.499
s42.834 12.5 69.501 12.5z" />
    <glyph glyph-name="Egrave" unicode="&#xc8;" horiz-adv-x="360" 
d="M167 845l69 -103h-57l-93 103h81zM289 390v-70h-171v-249h210v-71h-288v700h288v-71h-210v-239h171z" />
    <glyph glyph-name="Eacute" unicode="&#xc9;" horiz-adv-x="360" 
d="M283 842l-93 -103h-54l70 103h77zM289 390v-70h-171v-249h210v-71h-288v700h288v-71h-210v-239h171z" />
    <glyph glyph-name="Ecircumflex" unicode="&#xca;" horiz-adv-x="360" 
d="M130 739h-68l86 101h69l87 -101h-68l-54 60zM289 390v-70h-171v-249h210v-71h-288v700h288v-71h-210v-239h171z" />
    <glyph glyph-name="Edieresis" unicode="&#xcb;" horiz-adv-x="360" 
d="M155 829v-90h-68v90h68zM279 829v-90h-68v90h68zM289 390v-70h-171v-249h210v-71h-288v700h288v-71h-210v-239h171z" />
    <glyph glyph-name="Igrave" unicode="&#xcc;" horiz-adv-x="158" 
d="M-25 842h81l70 -103h-58zM40 700h78v-700h-78v700z" />
    <glyph glyph-name="Iacute" unicode="&#xcd;" horiz-adv-x="158" 
d="M100 842h78l-93 -103h-54zM40 700h78v-700h-78v700z" />
    <glyph glyph-name="Icircumflex" unicode="&#xce;" horiz-adv-x="158" 
d="M113 839l87 -100h-68l-53 59l-53 -59h-68l86 100h69zM40 700h78v-700h-78v700z" />
    <glyph glyph-name="Idieresis" unicode="&#xcf;" horiz-adv-x="158" 
d="M51 829v-90h-68v90h68zM175 829v-90h-68v90h68zM118 700v-700h-78v700h78z" />
    <glyph glyph-name="Eth" unicode="&#xd0;" horiz-adv-x="396" 
d="M204 700c54.667 0 94.834 -15.5 120.501 -46.5s38.5 -73.5 38.5 -127.5v-353c0 -54 -12.833 -96.333 -38.5 -127s-65.834 -46 -120.501 -46h-164v318h-41v64h41v318h164zM196 318h-77.999v-247h85c28 0 48.833 8.5 62.5 25.5s20.5 41.5 20.5 73.5v360
c0 32 -6.83301 56.5 -20.5 73.5s-34.834 25.5 -63.501 25.5h-84v-247h78v-64z" />
    <glyph glyph-name="Ntilde" unicode="&#xd1;" horiz-adv-x="409" 
d="M327 804c-8 -20 -17.999 -34.667 -29.999 -44s-25.667 -14 -41 -14c-10 0 -19 1.5 -27 4.5s-15.5 6.33301 -22.5 10s-13.833 7 -20.5 10s-14 4.5 -22 4.5c-9.33301 0 -17.333 -2 -24 -6s-12.667 -11.667 -18 -23l-39 26c8 20.667 18.333 35.5 31 44.5s27 13.5 43 13.5
c10 0 19 -1.5 27 -4.5s15.5 -6.33301 22.5 -10s13.833 -7 20.5 -10s13.667 -4.5 21 -4.5c17.333 0 30.666 9.66699 39.999 29zM109.001 0h-70v700h99l162 -506v506h69v-700h-81l-179 566v-566z" />
    <glyph glyph-name="Ograve" unicode="&#xd2;" horiz-adv-x="389" 
d="M174 845l69 -103h-57l-93 103h81zM194 707c54 0 94.333 -15.833 121 -47.5s40 -74.5 40 -128.5v-362c0 -53.333 -13.333 -96 -40 -128s-67 -48 -121 -48s-94.167 16 -120.5 48s-39.5 74.667 -39.5 128v362c0 54 13.167 96.833 39.5 128.5s66.5 47.5 120.5 47.5zM194 636
c-28 0 -48.833 -8.83301 -62.5 -26.5s-20.5 -42.5 -20.5 -74.5v-370c0 -32 6.83301 -56.833 20.5 -74.5s34.5 -26.5 62.5 -26.5c28.667 0 49.667 8.83301 63 26.5s20 42.5 20 74.5v370c0 32 -6.66699 56.833 -20 74.5s-34.333 26.5 -63 26.5z" />
    <glyph glyph-name="Oacute" unicode="&#xd3;" horiz-adv-x="389" 
d="M293 845l-93 -103h-54l70 103h77zM194 707c54 0 94.333 -15.833 121 -47.5s40 -74.5 40 -128.5v-362c0 -53.333 -13.333 -96 -40 -128s-67 -48 -121 -48s-94.167 16 -120.5 48s-39.5 74.667 -39.5 128v362c0 54 13.167 96.833 39.5 128.5s66.5 47.5 120.5 47.5zM194 636
c-28 0 -48.833 -8.83301 -62.5 -26.5s-20.5 -42.5 -20.5 -74.5v-370c0 -32 6.83301 -56.833 20.5 -74.5s34.5 -26.5 62.5 -26.5c28.667 0 49.667 8.83301 63 26.5s20 42.5 20 74.5v370c0 32 -6.66699 56.833 -20 74.5s-34.333 26.5 -63 26.5z" />
    <glyph glyph-name="Ocircumflex" unicode="&#xd4;" horiz-adv-x="389" 
d="M141 741h-68l86 101h69l87 -101h-68l-54 59zM194 707c54 0 94.333 -15.833 121 -47.5s40 -74.5 40 -128.5v-362c0 -53.333 -13.333 -96 -40 -128s-67 -48 -121 -48s-94.167 16 -120.5 48s-39.5 74.667 -39.5 128v362c0 54 13.167 96.833 39.5 128.5s66.5 47.5 120.5 47.5
zM194 636c-28 0 -48.833 -8.83301 -62.5 -26.5s-20.5 -42.5 -20.5 -74.5v-370c0 -32 6.83301 -56.833 20.5 -74.5s34.5 -26.5 62.5 -26.5c28.667 0 49.667 8.83301 63 26.5s20 42.5 20 74.5v370c0 32 -6.66699 56.833 -20 74.5s-34.333 26.5 -63 26.5z" />
    <glyph glyph-name="Otilde" unicode="&#xd5;" horiz-adv-x="389" 
d="M318 802c-7.33301 -20 -17.168 -34.5029 -29.501 -43.5029s-26.166 -13.5 -41.499 -13.5c-10 0 -18.833 1.5 -26.5 4.5s-15.167 6.33301 -22.5 10s-14.333 7 -21 10s-14 4.5 -22 4.5c-9.33301 0 -17.333 -2.16699 -24 -6.5s-12.667 -12.166 -18 -23.499l-39 27
c8.66699 20.667 19.334 35.334 32.001 44.001s26.667 13.334 42 14.001c10 0 19 -1.5 27 -4.5s15.5 -6.5 22.5 -10.5s14 -7.5 21 -10.5s14.167 -4.5 21.5 -4.5c8.66699 0.666992 16.167 3.16699 22.5 7.5s12.166 11.833 17.499 22.5zM193.998 706.997
c54 0 94.333 -15.833 121 -47.5s40 -74.5 40 -128.5v-362c0 -53.333 -13.333 -96 -40 -128s-67 -48 -121 -48s-94.167 16 -120.5 48s-39.5 74.667 -39.5 128v362c0 54 13.167 96.833 39.5 128.5s66.5 47.5 120.5 47.5zM193.998 635.997c-28 0 -48.833 -8.83301 -62.5 -26.5
s-20.5 -42.5 -20.5 -74.5v-370c0 -32 6.83301 -56.833 20.5 -74.5s34.5 -26.5 62.5 -26.5c28.667 0 49.667 8.83301 63 26.5s20 42.5 20 74.5v370c0 32 -6.66699 56.833 -20 74.5s-34.333 26.5 -63 26.5z" />
    <glyph glyph-name="Odieresis" unicode="&#xd6;" horiz-adv-x="389" 
d="M166 831v-90h-68v90h68zM290 831v-90h-68v90h68zM194 707c54 0 94.333 -15.833 121 -47.5s40 -74.5 40 -128.5v-362c0 -53.333 -13.333 -96 -40 -128s-67 -48 -121 -48s-94.167 16 -120.5 48s-39.5 74.667 -39.5 128v362c0 54 13.167 96.833 39.5 128.5
s66.5 47.5 120.5 47.5zM194 636c-28 0 -48.833 -8.83301 -62.5 -26.5s-20.5 -42.5 -20.5 -74.5v-370c0 -32 6.83301 -56.833 20.5 -74.5s34.5 -26.5 62.5 -26.5c28.667 0 49.667 8.83301 63 26.5s20 42.5 20 74.5v370c0 32 -6.66699 56.833 -20 74.5s-34.333 26.5 -63 26.5z
" />
    <glyph glyph-name="multiply" unicode="&#xd7;" horiz-adv-x="366" 
d="M289 206l-106 106l-106 -106l-38 38l105 106l-105 105l38 38l106 -105l106 105l38 -38l-106 -105l106 -106z" />
    <glyph glyph-name="Oslash" unicode="&#xd8;" horiz-adv-x="389" 
d="M325 646c20 -30 30 -68.333 30 -115v-362c0 -53.333 -13.333 -96 -40 -128s-67 -48 -121 -48c-42 0 -76 10.333 -102 31l-19 -50l-34 13l25 67c-20 30 -30 68.333 -30 115v362c0 54 13.167 96.833 39.5 128.5s66.5 47.5 120.5 47.5c42 0 76.333 -10.333 103 -31l18 49
l35 -13zM266 594c-13.333 28 -37.333 42 -72 42c-28 0 -48.833 -8.83301 -62.5 -26.5s-20.5 -42.5 -20.5 -74.5v-355zM194 64c28.667 0 49.667 8.83301 63 26.5s20 42.5 20 74.5v353l-155 -413c13.333 -27.333 37.333 -41 72 -41z" />
    <glyph glyph-name="Ugrave" unicode="&#xd9;" 
d="M173 842l70 -103h-58l-93 103h81zM350 169c0 -53.333 -12.668 -96.166 -38.001 -128.499s-65 -48.5 -119 -48.5c-53.333 0 -92.666 16.167 -117.999 48.5s-38 75.166 -38 128.499v531h77v-535c0 -32 6.5 -56.833 19.5 -74.5s33.833 -26.5 62.5 -26.5
c28 0 48.5 8.83301 61.5 26.5s19.5 42.5 19.5 74.5v535h73v-531z" />
    <glyph glyph-name="Uacute" unicode="&#xda;" 
d="M296 845l-93 -103h-54l70 103h77zM350 169c0 -53.333 -12.668 -96.166 -38.001 -128.499s-65 -48.5 -119 -48.5c-53.333 0 -92.666 16.167 -117.999 48.5s-38 75.166 -38 128.499v531h77v-535c0 -32 6.5 -56.833 19.5 -74.5s33.833 -26.5 62.5 -26.5
c28 0 48.5 8.83301 61.5 26.5s19.5 42.5 19.5 74.5v535h73v-531z" />
    <glyph glyph-name="Ucircumflex" unicode="&#xdb;" 
d="M142 741h-68l86 101h69l87 -101h-68l-54 59zM350 169c0 -53.333 -12.668 -96.166 -38.001 -128.499s-65 -48.5 -119 -48.5c-53.333 0 -92.666 16.167 -117.999 48.5s-38 75.166 -38 128.499v531h77v-535c0 -32 6.5 -56.833 19.5 -74.5s33.833 -26.5 62.5 -26.5
c28 0 48.5 8.83301 61.5 26.5s19.5 42.5 19.5 74.5v535h73v-531z" />
    <glyph glyph-name="Udieresis" unicode="&#xdc;" 
d="M167 830v-90h-69v90h69zM291 830v-90h-68v90h68zM350 169c0 -53.333 -12.668 -96.166 -38.001 -128.499s-65 -48.5 -119 -48.5c-53.333 0 -92.666 16.167 -117.999 48.5s-38 75.166 -38 128.499v531h77v-535c0 -32 6.5 -56.833 19.5 -74.5s33.833 -26.5 62.5 -26.5
c28 0 48.5 8.83301 61.5 26.5s19.5 42.5 19.5 74.5v535h73v-531z" />
    <glyph glyph-name="Yacute" unicode="&#xdd;" horiz-adv-x="406" 
d="M307 842l-93 -103h-54l70 103h77zM164 251l-148 449h81l109 -344l110 344h74l-149 -449v-251h-77v251z" />
    <glyph glyph-name="Thorn" unicode="&#xde;" horiz-adv-x="377" 
d="M193 599c55.333 0 95.333 -15.167 120 -45.5s37 -72.5 37 -126.5v-83c0 -56.667 -13.167 -99.167 -39.5 -127.5s-67.5 -42.5 -123.5 -42.5h-69v-174h-78v700h78v-101h75zM187 245c29.333 0 51 7.16699 65 21.5s21 38.5 21 72.5v93c0 32 -6.16699 56 -18.5 72
s-32.833 24 -61.5 24h-75v-283h69z" />
    <glyph glyph-name="germandbls" unicode="&#xdf;" horiz-adv-x="729" 
d="M185 707c54 0 93.502 -15.835 118.502 -47.502s37.5 -74.167 37.5 -127.5v-19h-74v23c0 32 -6.33301 56.667 -19 74s-33 26 -61 26s-48.333 -8.66699 -61 -26s-19 -41.666 -19 -72.999c0 -26 5.83301 -48.667 17.5 -68s26.167 -37.166 43.5 -53.499
s36.166 -32.333 56.499 -48s39.166 -32.834 56.499 -51.501s31.833 -39.834 43.5 -63.501s17.5 -51.834 17.5 -84.501c0 -53.333 -12.833 -95.833 -38.5 -127.5s-65.5 -47.5 -119.5 -47.5s-93.667 15.833 -119 47.5s-38 74.167 -38 127.5v40h73v-44
c0 -32 6.66699 -56.667 20 -74s34 -26 62 -26c28.667 0 49.5 8.66699 62.5 26s19.5 42 19.5 74c0 26 -5.83301 48.5 -17.5 67.5s-26.167 36.667 -43.5 53s-36 32.333 -56 48s-38.667 32.834 -56 51.501s-31.833 39.834 -43.5 63.501s-17.5 51.834 -17.5 84.501
c0 54 12.667 96.667 38 128s64.333 47 117 47zM546.002 706.998c53.333 0 92.4971 -15.835 117.497 -47.502s37.5 -74.167 37.5 -127.5v-19h-73v23c0 32 -6.33301 56.667 -19 74s-33 26 -61 26s-48.333 -8.66699 -61 -26s-19 -41.666 -19 -72.999
c0 -26 5.83301 -48.667 17.5 -68s26.167 -37.166 43.5 -53.499s36 -32.333 56 -48s38.667 -32.834 56 -51.501s31.833 -39.834 43.5 -63.501s17.5 -51.834 17.5 -84.501c0 -53.333 -12.667 -95.833 -38 -127.5s-65 -47.5 -119 -47.5s-93.833 15.833 -119.5 47.5
s-38.5 74.167 -38.5 127.5v40h74v-44c0 -32 6.66699 -56.667 20 -74s34 -26 62 -26s48.667 8.66699 62 26s20 42 20 74c0 26 -5.83301 48.5 -17.5 67.5s-26.167 36.667 -43.5 53s-36.166 32.333 -56.499 48s-39.166 32.834 -56.499 51.501s-31.833 39.834 -43.5 63.501
s-17.5 51.834 -17.5 84.501c0 54 12.833 96.667 38.5 128s64.834 47 117.501 47z" />
    <glyph glyph-name="agrave" unicode="&#xe0;" horiz-adv-x="422" 
d="M190 840l70 -103h-57l-93 103h80zM119 141l-27 -141h-72l134 700h113l134 -700h-78l-27 141h-177zM129 208h156l-79 404z" />
    <glyph glyph-name="aacute" unicode="&#xe1;" horiz-adv-x="422" 
d="M305 840l-92 -103h-55l70 103h77zM119 141l-27 -141h-72l134 700h113l134 -700h-78l-27 141h-177zM129 208h156l-79 404z" />
    <glyph glyph-name="acircumflex" unicode="&#xe2;" horiz-adv-x="422" 
d="M157 737h-68l86 100h70l86 -100h-68l-53 59zM119 141l-27 -141h-72l134 700h113l134 -700h-78l-27 141h-177zM129 208h156l-79 404z" />
    <glyph glyph-name="atilde" unicode="&#xe3;" horiz-adv-x="422" 
d="M161 826c10 0 19.168 -1.50391 27.501 -4.50391s16 -6.5 23 -10.5s13.833 -7.5 20.5 -10.5s13.667 -4.5 21 -4.5c8.66699 0.666992 16.167 3.16699 22.5 7.5s12.166 11.833 17.499 22.5l39 -27c-8 -19.333 -18 -33.666 -30 -42.999s-25.667 -14 -41 -14
c-10 0 -19 1.5 -27 4.5s-15.5 6.33301 -22.5 10s-13.833 7 -20.5 10s-14 4.5 -22 4.5c-9.33301 0 -17.333 -2.16699 -24 -6.5s-12.667 -12.166 -18 -23.499l-39 27c8 20.667 18.333 35.334 31 44.001s26.667 13.334 42 14.001zM119.001 140.996l-27 -141h-72l134 700h113
l134 -700h-78l-27 141h-177zM129.001 207.996h156l-79 404z" />
    <glyph glyph-name="adieresis" unicode="&#xe4;" horiz-adv-x="422" 
d="M182 827v-90h-68v90h68zM306 827v-90h-68v90h68zM119 141l-27 -141h-72l134 700h113l134 -700h-78l-27 141h-177zM129 208h156l-79 404z" />
    <glyph glyph-name="aring" unicode="&#xe5;" horiz-adv-x="422" 
d="M210 883c20.667 0 38 -7 52 -21s21 -31.333 21 -52c0 -21.333 -7 -38.833 -21 -52.5s-31.333 -20.5 -52 -20.5c-21.333 0 -39 6.83301 -53 20.5s-21 31.167 -21 52.5c0 20.667 7 38 21 52s31.667 21 53 21zM210 846c-10.667 0 -19.5 -3.5 -26.5 -10.5
s-10.5 -15.5 -10.5 -25.5c0 -10.667 3.5 -19.334 10.5 -26.001s15.833 -10 26.5 -10c10 0 18.5 3.33301 25.5 10s10.5 15.334 10.5 26.001c0 10 -3.5 18.5 -10.5 25.5s-15.5 10.5 -25.5 10.5zM119 141l-27 -141h-72l134 700h113l134 -700h-78l-27 141h-177zM129 208h156
l-79 404z" />
    <glyph glyph-name="ae" unicode="&#xe6;" horiz-adv-x="585" 
d="M516 390v-70h-161v-249h198v-71h-275v142h-143l-45 -142h-74l218 700h319v-71h-198v-239h161zM153 210h125v392z" />
    <glyph glyph-name="ccedilla" unicode="&#xe7;" horiz-adv-x="380" 
d="M191 707c54 0 93.8311 -16 119.498 -48s38.5 -74.667 38.5 -128v-63h-74v67c0 32 -6.5 56.833 -19.5 74.5s-33.833 26.5 -62.5 26.5c-28 0 -48.667 -8.83301 -62 -26.5s-20 -42.5 -20 -74.5v-370c0 -32 6.66699 -56.833 20 -74.5s34 -26.5 62 -26.5
c28.667 0 49.5 8.83301 62.5 26.5s19.5 42.5 19.5 74.5v91h74v-87c0 -50 -11.5 -90.833 -34.5 -122.5s-58.5 -49.167 -106.5 -52.5v-31c23.333 0 41.5 -4.5 54.5 -13.5s19.5 -21.5 19.5 -37.5c0 -20 -8.33301 -35.667 -25 -47s-40 -17 -70 -17c-29.333 0 -52 5.5 -68 16.5
s-24 26.167 -24 45.5v8h51v-7c0 -17.333 13.667 -27 41 -29c28.667 0 43 10.667 43 32c0 20 -16.333 30 -49 30h-9v50c-47.333 3.33301 -82.166 21 -104.499 53s-33.5 72.667 -33.5 122v362c0 26.667 3.16699 50.834 9.5 72.501s16 40.167 29 55.5s29.333 27.166 49 35.499
s42.834 12.5 69.501 12.5z" />
    <glyph glyph-name="egrave" unicode="&#xe8;" horiz-adv-x="360" 
d="M167 845l69 -103h-57l-93 103h81zM289 390v-70h-171v-249h210v-71h-288v700h288v-71h-210v-239h171z" />
    <glyph glyph-name="eacute" unicode="&#xe9;" horiz-adv-x="360" 
d="M283 842l-93 -103h-54l70 103h77zM289 390v-70h-171v-249h210v-71h-288v700h288v-71h-210v-239h171z" />
    <glyph glyph-name="ecircumflex" unicode="&#xea;" horiz-adv-x="360" 
d="M130 739h-68l86 101h69l87 -101h-68l-54 60zM289 390v-70h-171v-249h210v-71h-288v700h288v-71h-210v-239h171z" />
    <glyph glyph-name="edieresis" unicode="&#xeb;" horiz-adv-x="360" 
d="M155 829v-90h-68v90h68zM279 829v-90h-68v90h68zM289 390v-70h-171v-249h210v-71h-288v700h288v-71h-210v-239h171z" />
    <glyph glyph-name="igrave" unicode="&#xec;" horiz-adv-x="158" 
d="M-25 842h81l70 -103h-58zM40 700h78v-700h-78v700z" />
    <glyph glyph-name="iacute" unicode="&#xed;" horiz-adv-x="158" 
d="M100 842h78l-93 -103h-54zM40 700h78v-700h-78v700z" />
    <glyph glyph-name="icircumflex" unicode="&#xee;" horiz-adv-x="158" 
d="M113 839l87 -100h-68l-53 59l-53 -59h-68l86 100h69zM40 700h78v-700h-78v700z" />
    <glyph glyph-name="idieresis" unicode="&#xef;" horiz-adv-x="158" 
d="M51 829v-90h-68v90h68zM175 829v-90h-68v90h68zM118 700v-700h-78v700h78z" />
    <glyph glyph-name="eth" unicode="&#xf0;" horiz-adv-x="396" 
d="M204 700c54.667 0 94.834 -15.5 120.501 -46.5s38.5 -73.5 38.5 -127.5v-353c0 -54 -12.833 -96.333 -38.5 -127s-65.834 -46 -120.501 -46h-164v318h-39v63h39v319h164zM197 318h-78.999v-247h85c28 0 48.833 8.5 62.5 25.5s20.5 41.5 20.5 73.5v360
c0 32 -6.83301 56.5 -20.5 73.5s-34.834 25.5 -63.501 25.5h-84v-248h79v-63z" />
    <glyph glyph-name="ntilde" unicode="&#xf1;" horiz-adv-x="409" 
d="M327 804c-8 -20 -17.999 -34.667 -29.999 -44s-25.667 -14 -41 -14c-10 0 -19 1.5 -27 4.5s-15.5 6.33301 -22.5 10s-13.833 7 -20.5 10s-14 4.5 -22 4.5c-9.33301 0 -17.333 -2 -24 -6s-12.667 -11.667 -18 -23l-39 26c8 20.667 18.333 35.5 31 44.5s27 13.5 43 13.5
c10 0 19 -1.5 27 -4.5s15.5 -6.33301 22.5 -10s13.833 -7 20.5 -10s13.667 -4.5 21 -4.5c17.333 0 30.666 9.66699 39.999 29zM109.001 0h-70v700h99l162 -506v506h69v-700h-81l-179 566v-566z" />
    <glyph glyph-name="ograve" unicode="&#xf2;" horiz-adv-x="389" 
d="M174 845l69 -103h-57l-93 103h81zM194 707c54 0 94.333 -15.833 121 -47.5s40 -74.5 40 -128.5v-362c0 -53.333 -13.333 -96 -40 -128s-67 -48 -121 -48s-94.167 16 -120.5 48s-39.5 74.667 -39.5 128v362c0 54 13.167 96.833 39.5 128.5s66.5 47.5 120.5 47.5zM194 636
c-28 0 -48.833 -8.83301 -62.5 -26.5s-20.5 -42.5 -20.5 -74.5v-370c0 -32 6.83301 -56.833 20.5 -74.5s34.5 -26.5 62.5 -26.5c28.667 0 49.667 8.83301 63 26.5s20 42.5 20 74.5v370c0 32 -6.66699 56.833 -20 74.5s-34.333 26.5 -63 26.5z" />
    <glyph glyph-name="oacute" unicode="&#xf3;" horiz-adv-x="389" 
d="M293 845l-93 -103h-54l70 103h77zM194 707c54 0 94.333 -15.833 121 -47.5s40 -74.5 40 -128.5v-362c0 -53.333 -13.333 -96 -40 -128s-67 -48 -121 -48s-94.167 16 -120.5 48s-39.5 74.667 -39.5 128v362c0 54 13.167 96.833 39.5 128.5s66.5 47.5 120.5 47.5zM194 636
c-28 0 -48.833 -8.83301 -62.5 -26.5s-20.5 -42.5 -20.5 -74.5v-370c0 -32 6.83301 -56.833 20.5 -74.5s34.5 -26.5 62.5 -26.5c28.667 0 49.667 8.83301 63 26.5s20 42.5 20 74.5v370c0 32 -6.66699 56.833 -20 74.5s-34.333 26.5 -63 26.5z" />
    <glyph glyph-name="ocircumflex" unicode="&#xf4;" horiz-adv-x="389" 
d="M141 741h-68l86 101h69l87 -101h-68l-54 59zM194 707c54 0 94.333 -15.833 121 -47.5s40 -74.5 40 -128.5v-362c0 -53.333 -13.333 -96 -40 -128s-67 -48 -121 -48s-94.167 16 -120.5 48s-39.5 74.667 -39.5 128v362c0 54 13.167 96.833 39.5 128.5s66.5 47.5 120.5 47.5
zM194 636c-28 0 -48.833 -8.83301 -62.5 -26.5s-20.5 -42.5 -20.5 -74.5v-370c0 -32 6.83301 -56.833 20.5 -74.5s34.5 -26.5 62.5 -26.5c28.667 0 49.667 8.83301 63 26.5s20 42.5 20 74.5v370c0 32 -6.66699 56.833 -20 74.5s-34.333 26.5 -63 26.5z" />
    <glyph glyph-name="otilde" unicode="&#xf5;" horiz-adv-x="389" 
d="M318 802c-7.33301 -20 -17.168 -34.5029 -29.501 -43.5029s-26.166 -13.5 -41.499 -13.5c-10 0 -18.833 1.5 -26.5 4.5s-15.167 6.33301 -22.5 10s-14.333 7 -21 10s-14 4.5 -22 4.5c-9.33301 0 -17.333 -2.16699 -24 -6.5s-12.667 -12.166 -18 -23.499l-39 27
c8.66699 20.667 19.334 35.334 32.001 44.001s26.667 13.334 42 14.001c10 0 19 -1.5 27 -4.5s15.5 -6.5 22.5 -10.5s14 -7.5 21 -10.5s14.167 -4.5 21.5 -4.5c8.66699 0.666992 16.167 3.16699 22.5 7.5s12.166 11.833 17.499 22.5zM193.998 706.997
c54 0 94.333 -15.833 121 -47.5s40 -74.5 40 -128.5v-362c0 -53.333 -13.333 -96 -40 -128s-67 -48 -121 -48s-94.167 16 -120.5 48s-39.5 74.667 -39.5 128v362c0 54 13.167 96.833 39.5 128.5s66.5 47.5 120.5 47.5zM193.998 635.997c-28 0 -48.833 -8.83301 -62.5 -26.5
s-20.5 -42.5 -20.5 -74.5v-370c0 -32 6.83301 -56.833 20.5 -74.5s34.5 -26.5 62.5 -26.5c28.667 0 49.667 8.83301 63 26.5s20 42.5 20 74.5v370c0 32 -6.66699 56.833 -20 74.5s-34.333 26.5 -63 26.5z" />
    <glyph glyph-name="odieresis" unicode="&#xf6;" horiz-adv-x="389" 
d="M166 831v-90h-68v90h68zM290 831v-90h-68v90h68zM194 707c54 0 94.333 -15.833 121 -47.5s40 -74.5 40 -128.5v-362c0 -53.333 -13.333 -96 -40 -128s-67 -48 -121 -48s-94.167 16 -120.5 48s-39.5 74.667 -39.5 128v362c0 54 13.167 96.833 39.5 128.5
s66.5 47.5 120.5 47.5zM194 636c-28 0 -48.833 -8.83301 -62.5 -26.5s-20.5 -42.5 -20.5 -74.5v-370c0 -32 6.83301 -56.833 20.5 -74.5s34.5 -26.5 62.5 -26.5c28.667 0 49.667 8.83301 63 26.5s20 42.5 20 74.5v370c0 32 -6.66699 56.833 -20 74.5s-34.333 26.5 -63 26.5z
" />
    <glyph glyph-name="divide" unicode="&#xf7;" horiz-adv-x="350" 
d="M212 527v-97h-75v97h75zM320 378v-56h-290v56h290zM212 270v-97h-75v97h75z" />
    <glyph glyph-name="oslash" unicode="&#xf8;" horiz-adv-x="389" 
d="M325 646c20 -30 30 -68.333 30 -115v-362c0 -53.333 -13.333 -96 -40 -128s-67 -48 -121 -48c-42 0 -76 10.333 -102 31l-19 -50l-34 13l25 67c-20 30 -30 68.333 -30 115v362c0 54 13.167 96.833 39.5 128.5s66.5 47.5 120.5 47.5c42 0 76.333 -10.333 103 -31l18 49
l35 -13zM266 594c-13.333 28 -37.333 42 -72 42c-28 0 -48.833 -8.83301 -62.5 -26.5s-20.5 -42.5 -20.5 -74.5v-355zM194 64c28.667 0 49.667 8.83301 63 26.5s20 42.5 20 74.5v353l-155 -413c13.333 -27.333 37.333 -41 72 -41z" />
    <glyph glyph-name="ugrave" unicode="&#xf9;" 
d="M173 842l70 -103h-58l-93 103h81zM350 169c0 -53.333 -12.668 -96.166 -38.001 -128.499s-65 -48.5 -119 -48.5c-53.333 0 -92.666 16.167 -117.999 48.5s-38 75.166 -38 128.499v531h77v-535c0 -32 6.5 -56.833 19.5 -74.5s33.833 -26.5 62.5 -26.5
c28 0 48.5 8.83301 61.5 26.5s19.5 42.5 19.5 74.5v535h73v-531z" />
    <glyph glyph-name="uacute" unicode="&#xfa;" 
d="M296 845l-93 -103h-54l70 103h77zM350 169c0 -53.333 -12.668 -96.166 -38.001 -128.499s-65 -48.5 -119 -48.5c-53.333 0 -92.666 16.167 -117.999 48.5s-38 75.166 -38 128.499v531h77v-535c0 -32 6.5 -56.833 19.5 -74.5s33.833 -26.5 62.5 -26.5
c28 0 48.5 8.83301 61.5 26.5s19.5 42.5 19.5 74.5v535h73v-531z" />
    <glyph glyph-name="ucircumflex" unicode="&#xfb;" 
d="M142 741h-68l86 101h69l87 -101h-68l-54 59zM350 169c0 -53.333 -12.668 -96.166 -38.001 -128.499s-65 -48.5 -119 -48.5c-53.333 0 -92.666 16.167 -117.999 48.5s-38 75.166 -38 128.499v531h77v-535c0 -32 6.5 -56.833 19.5 -74.5s33.833 -26.5 62.5 -26.5
c28 0 48.5 8.83301 61.5 26.5s19.5 42.5 19.5 74.5v535h73v-531z" />
    <glyph glyph-name="udieresis" unicode="&#xfc;" 
d="M167 830v-90h-69v90h69zM291 830v-90h-68v90h68zM350 169c0 -53.333 -12.668 -96.166 -38.001 -128.499s-65 -48.5 -119 -48.5c-53.333 0 -92.666 16.167 -117.999 48.5s-38 75.166 -38 128.499v531h77v-535c0 -32 6.5 -56.833 19.5 -74.5s33.833 -26.5 62.5 -26.5
c28 0 48.5 8.83301 61.5 26.5s19.5 42.5 19.5 74.5v535h73v-531z" />
    <glyph glyph-name="yacute" unicode="&#xfd;" horiz-adv-x="406" 
d="M307 842l-93 -103h-54l70 103h77zM164 251l-148 449h81l109 -344l110 344h74l-149 -449v-251h-77v251z" />
    <glyph glyph-name="thorn" unicode="&#xfe;" horiz-adv-x="377" 
d="M193 599c55.333 0 95.333 -15.167 120 -45.5s37 -72.5 37 -126.5v-83c0 -56.667 -13.167 -99.167 -39.5 -127.5s-67.5 -42.5 -123.5 -42.5h-69v-174h-78v700h78v-101h75zM187 245c29.333 0 51 7.16699 65 21.5s21 38.5 21 72.5v93c0 32 -6.16699 56 -18.5 72
s-32.833 24 -61.5 24h-75v-283h69z" />
    <glyph glyph-name="ydieresis" unicode="&#xff;" horiz-adv-x="406" 
d="M177 829v-90h-68v90h68zM301 829v-90h-68v90h68zM164 251l-148 449h81l109 -344l110 344h74l-149 -449v-251h-77v251z" />
    <glyph glyph-name="Amacron" unicode="&#x100;" horiz-adv-x="422" 
d="M316 806v-56h-212v56h212zM119 141l-27 -141h-72l134 700h113l134 -700h-78l-27 141h-177zM129 208h156l-79 404z" />
    <glyph glyph-name="amacron" unicode="&#x101;" horiz-adv-x="422" 
d="M316 806v-56h-212v56h212zM119 141l-27 -141h-72l134 700h113l134 -700h-78l-27 141h-177zM129 208h156l-79 404z" />
    <glyph glyph-name="Abreve" unicode="&#x102;" horiz-adv-x="422" 
d="M314 834c0 -31.333 -9.32812 -56 -27.9951 -74s-44.334 -27 -77.001 -27s-57.834 9 -75.501 27s-26.834 42.667 -27.501 74h47c1.33301 -19.333 7.16602 -32.833 17.499 -40.5s23.166 -11.5 38.499 -11.5c16 0 29.333 3.83301 40 11.5s16.667 21.167 18 40.5h47z
M119.005 141l-27 -141h-72l134 700h113l134 -700h-78l-27 141h-177zM129.005 208h156l-79 404z" />
    <glyph glyph-name="abreve" unicode="&#x103;" horiz-adv-x="422" 
d="M314 834c0 -31.333 -9.32812 -56 -27.9951 -74s-44.334 -27 -77.001 -27s-57.834 9 -75.501 27s-26.834 42.667 -27.501 74h47c1.33301 -19.333 7.16602 -32.833 17.499 -40.5s23.166 -11.5 38.499 -11.5c16 0 29.333 3.83301 40 11.5s16.667 21.167 18 40.5h47z
M119.005 141l-27 -141h-72l134 700h113l134 -700h-78l-27 141h-177zM129.005 208h156l-79 404z" />
    <glyph glyph-name="Aogonek" unicode="&#x104;" horiz-adv-x="422" 
d="M373 0c-12 -10 -21.166 -21.667 -27.499 -35s-9.16602 -24.666 -8.49902 -33.999c0.666992 -10.667 4.66699 -18.334 12 -23.001s15.666 -7 24.999 -7s17 0.833008 23 2.5s11.667 3.83398 17 6.50098v-41c-10 -4.66699 -19.667 -7.83398 -29 -9.50098
s-20.333 -2.5 -33 -2.5c-22 0 -39.833 4.5 -53.5 13.5s-20.834 23.167 -21.501 42.5c-0.666992 14 3.33301 28 12 42s20.667 26.667 36 38l-29 148h-177l-27 -141h-72l134 700h113l134 -700h-28zM129.001 208h156l-79 404z" />
    <glyph glyph-name="aogonek" unicode="&#x105;" horiz-adv-x="422" 
d="M373 0c-12 -10 -21.166 -21.667 -27.499 -35s-9.16602 -24.666 -8.49902 -33.999c0.666992 -10.667 4.66699 -18.334 12 -23.001s15.666 -7 24.999 -7s17 0.833008 23 2.5s11.667 3.83398 17 6.50098v-41c-10 -4.66699 -19.667 -7.83398 -29 -9.50098
s-20.333 -2.5 -33 -2.5c-22 0 -39.833 4.5 -53.5 13.5s-20.834 23.167 -21.501 42.5c-0.666992 14 3.33301 28 12 42s20.667 26.667 36 38l-29 148h-177l-27 -141h-72l134 700h113l134 -700h-28zM129.001 208h156l-79 404z" />
    <glyph glyph-name="Cacute" unicode="&#x106;" horiz-adv-x="380" 
d="M293 845l-93 -103h-55l70 103h78zM191 707c54 0 93.832 -16 119.499 -48s38.5 -74.667 38.5 -128v-63h-74v67c0 32 -6.5 56.833 -19.5 74.5s-33.833 26.5 -62.5 26.5c-28 0 -48.667 -8.83301 -62 -26.5s-20 -42.5 -20 -74.5v-370c0 -32 6.66699 -56.833 20 -74.5
s34 -26.5 62 -26.5c28.667 0 49.5 8.83301 62.5 26.5s19.5 42.5 19.5 74.5v91h74v-87c0 -53.333 -12.833 -96 -38.5 -128s-65.5 -48 -119.5 -48c-53.333 0 -92.833 16 -118.5 48s-38.5 74.667 -38.5 128v362c0 26.667 3.16699 50.834 9.5 72.501s16 40.167 29 55.5
s29.333 27.166 49 35.499s42.834 12.5 69.501 12.5z" />
    <glyph glyph-name="cacute" unicode="&#x107;" horiz-adv-x="380" 
d="M293 845l-93 -103h-55l70 103h78zM191 707c54 0 93.832 -16 119.499 -48s38.5 -74.667 38.5 -128v-63h-74v67c0 32 -6.5 56.833 -19.5 74.5s-33.833 26.5 -62.5 26.5c-28 0 -48.667 -8.83301 -62 -26.5s-20 -42.5 -20 -74.5v-370c0 -32 6.66699 -56.833 20 -74.5
s34 -26.5 62 -26.5c28.667 0 49.5 8.83301 62.5 26.5s19.5 42.5 19.5 74.5v91h74v-87c0 -53.333 -12.833 -96 -38.5 -128s-65.5 -48 -119.5 -48c-53.333 0 -92.833 16 -118.5 48s-38.5 74.667 -38.5 128v362c0 26.667 3.16699 50.834 9.5 72.501s16 40.167 29 55.5
s29.333 27.166 49 35.499s42.834 12.5 69.501 12.5z" />
    <glyph glyph-name="Ccircumflex" unicode="&#x108;" horiz-adv-x="380" 
d="M140 740h-68l86 101h69l87 -101h-68l-53 59zM191 707c54 0 93.832 -16 119.499 -48s38.5 -74.667 38.5 -128v-63h-74v67c0 32 -6.5 56.833 -19.5 74.5s-33.833 26.5 -62.5 26.5c-28 0 -48.667 -8.83301 -62 -26.5s-20 -42.5 -20 -74.5v-370
c0 -32 6.66699 -56.833 20 -74.5s34 -26.5 62 -26.5c28.667 0 49.5 8.83301 62.5 26.5s19.5 42.5 19.5 74.5v91h74v-87c0 -53.333 -12.833 -96 -38.5 -128s-65.5 -48 -119.5 -48c-53.333 0 -92.833 16 -118.5 48s-38.5 74.667 -38.5 128v362
c0 26.667 3.16699 50.834 9.5 72.501s16 40.167 29 55.5s29.333 27.166 49 35.499s42.834 12.5 69.501 12.5z" />
    <glyph glyph-name="ccircumflex" unicode="&#x109;" horiz-adv-x="380" 
d="M140 740h-68l86 101h69l87 -101h-68l-53 59zM191 707c54 0 93.832 -16 119.499 -48s38.5 -74.667 38.5 -128v-63h-74v67c0 32 -6.5 56.833 -19.5 74.5s-33.833 26.5 -62.5 26.5c-28 0 -48.667 -8.83301 -62 -26.5s-20 -42.5 -20 -74.5v-370
c0 -32 6.66699 -56.833 20 -74.5s34 -26.5 62 -26.5c28.667 0 49.5 8.83301 62.5 26.5s19.5 42.5 19.5 74.5v91h74v-87c0 -53.333 -12.833 -96 -38.5 -128s-65.5 -48 -119.5 -48c-53.333 0 -92.833 16 -118.5 48s-38.5 74.667 -38.5 128v362
c0 26.667 3.16699 50.834 9.5 72.501s16 40.167 29 55.5s29.333 27.166 49 35.499s42.834 12.5 69.501 12.5z" />
    <glyph glyph-name="Cdotaccent" unicode="&#x10a;" horiz-adv-x="380" 
d="M225 828v-90h-68v90h68zM191 707c54 0 93.832 -16 119.499 -48s38.5 -74.667 38.5 -128v-63h-74v67c0 32 -6.5 56.833 -19.5 74.5s-33.833 26.5 -62.5 26.5c-28 0 -48.667 -8.83301 -62 -26.5s-20 -42.5 -20 -74.5v-370c0 -32 6.66699 -56.833 20 -74.5
s34 -26.5 62 -26.5c28.667 0 49.5 8.83301 62.5 26.5s19.5 42.5 19.5 74.5v91h74v-87c0 -53.333 -12.833 -96 -38.5 -128s-65.5 -48 -119.5 -48c-53.333 0 -92.833 16 -118.5 48s-38.5 74.667 -38.5 128v362c0 26.667 3.16699 50.834 9.5 72.501s16 40.167 29 55.5
s29.333 27.166 49 35.499s42.834 12.5 69.501 12.5z" />
    <glyph glyph-name="cdotaccent" unicode="&#x10b;" horiz-adv-x="380" 
d="M225 828v-90h-68v90h68zM191 707c54 0 93.832 -16 119.499 -48s38.5 -74.667 38.5 -128v-63h-74v67c0 32 -6.5 56.833 -19.5 74.5s-33.833 26.5 -62.5 26.5c-28 0 -48.667 -8.83301 -62 -26.5s-20 -42.5 -20 -74.5v-370c0 -32 6.66699 -56.833 20 -74.5
s34 -26.5 62 -26.5c28.667 0 49.5 8.83301 62.5 26.5s19.5 42.5 19.5 74.5v91h74v-87c0 -53.333 -12.833 -96 -38.5 -128s-65.5 -48 -119.5 -48c-53.333 0 -92.833 16 -118.5 48s-38.5 74.667 -38.5 128v362c0 26.667 3.16699 50.834 9.5 72.501s16 40.167 29 55.5
s29.333 27.166 49 35.499s42.834 12.5 69.501 12.5z" />
    <glyph glyph-name="Ccaron" unicode="&#x10c;" horiz-adv-x="380" 
d="M141 841l52 -60l53 60h69l-87 -100h-69l-86 100h68zM191 707c54 0 93.832 -16 119.499 -48s38.5 -74.667 38.5 -128v-63h-74v67c0 32 -6.5 56.833 -19.5 74.5s-33.833 26.5 -62.5 26.5c-28 0 -48.667 -8.83301 -62 -26.5s-20 -42.5 -20 -74.5v-370
c0 -32 6.66699 -56.833 20 -74.5s34 -26.5 62 -26.5c28.667 0 49.5 8.83301 62.5 26.5s19.5 42.5 19.5 74.5v91h74v-87c0 -53.333 -12.833 -96 -38.5 -128s-65.5 -48 -119.5 -48c-53.333 0 -92.833 16 -118.5 48s-38.5 74.667 -38.5 128v362
c0 26.667 3.16699 50.834 9.5 72.501s16 40.167 29 55.5s29.333 27.166 49 35.499s42.834 12.5 69.501 12.5z" />
    <glyph glyph-name="ccaron" unicode="&#x10d;" horiz-adv-x="380" 
d="M141 841l52 -60l53 60h69l-87 -100h-69l-86 100h68zM191 707c54 0 93.832 -16 119.499 -48s38.5 -74.667 38.5 -128v-63h-74v67c0 32 -6.5 56.833 -19.5 74.5s-33.833 26.5 -62.5 26.5c-28 0 -48.667 -8.83301 -62 -26.5s-20 -42.5 -20 -74.5v-370
c0 -32 6.66699 -56.833 20 -74.5s34 -26.5 62 -26.5c28.667 0 49.5 8.83301 62.5 26.5s19.5 42.5 19.5 74.5v91h74v-87c0 -53.333 -12.833 -96 -38.5 -128s-65.5 -48 -119.5 -48c-53.333 0 -92.833 16 -118.5 48s-38.5 74.667 -38.5 128v362
c0 26.667 3.16699 50.834 9.5 72.501s16 40.167 29 55.5s29.333 27.166 49 35.499s42.834 12.5 69.501 12.5z" />
    <glyph glyph-name="Dcaron" unicode="&#x10e;" horiz-adv-x="396" 
d="M135 839l53 -60l53 60h69l-87 -100h-69l-87 100h68zM204 700c54.667 0 94.834 -15.5 120.501 -46.5s38.5 -73.5 38.5 -127.5v-353c0 -54 -12.833 -96.333 -38.5 -127s-65.834 -46 -120.501 -46h-164v700h164zM203 71c28 0 48.834 8.5 62.501 25.5s20.5 41.5 20.5 73.5
v360c0 32 -6.83301 56.5 -20.5 73.5s-34.834 25.5 -63.501 25.5h-84v-558h85z" />
    <glyph glyph-name="dcaron" unicode="&#x10f;" horiz-adv-x="396" 
d="M135 839l53 -60l53 60h69l-87 -100h-69l-87 100h68zM204 700c54.667 0 94.834 -15.5 120.501 -46.5s38.5 -73.5 38.5 -127.5v-353c0 -54 -12.833 -96.333 -38.5 -127s-65.834 -46 -120.501 -46h-164v700h164zM203 71c28 0 48.834 8.5 62.501 25.5s20.5 41.5 20.5 73.5
v360c0 32 -6.83301 56.5 -20.5 73.5s-34.834 25.5 -63.501 25.5h-84v-558h85z" />
    <glyph glyph-name="Dcroat" unicode="&#x110;" horiz-adv-x="396" 
d="M204 700c54.667 0 94.834 -15.5 120.501 -46.5s38.5 -73.5 38.5 -127.5v-353c0 -54 -12.833 -96.333 -38.5 -127s-65.834 -46 -120.501 -46h-164v318h-39v63h39v319h164zM197 318h-78.999v-247h85c28 0 48.833 8.5 62.5 25.5s20.5 41.5 20.5 73.5v360
c0 32 -6.83301 56.5 -20.5 73.5s-34.834 25.5 -63.501 25.5h-84v-248h79v-63z" />
    <glyph glyph-name="dcroat" unicode="&#x111;" horiz-adv-x="396" 
d="M204 700c54.667 0 94.834 -15.5 120.501 -46.5s38.5 -73.5 38.5 -127.5v-353c0 -54 -12.833 -96.333 -38.5 -127s-65.834 -46 -120.501 -46h-164v318h-39v63h39v319h164zM197 318h-78.999v-247h85c28 0 48.833 8.5 62.5 25.5s20.5 41.5 20.5 73.5v360
c0 32 -6.83301 56.5 -20.5 73.5s-34.834 25.5 -63.501 25.5h-84v-248h79v-63z" />
    <glyph glyph-name="Emacron" unicode="&#x112;" horiz-adv-x="360" 
d="M286 807v-55h-209v55h209zM289 390v-70h-171v-249h210v-71h-288v700h288v-71h-210v-239h171z" />
    <glyph glyph-name="emacron" unicode="&#x113;" horiz-adv-x="360" 
d="M286 807v-55h-209v55h209zM289 390v-70h-171v-249h210v-71h-288v700h288v-71h-210v-239h171z" />
    <glyph glyph-name="Ebreve" unicode="&#x114;" horiz-adv-x="360" 
d="M287 840c-0.666992 -32 -10.167 -56.833 -28.5 -74.5s-44.166 -26.5 -77.499 -26.5c-32 0 -57 8.83301 -75 26.5s-27.333 42.5 -28 74.5h47c1.33301 -19.333 7.16602 -32.833 17.499 -40.5s23.166 -11.5 38.499 -11.5c16.667 0 30.334 3.83301 41.001 11.5
s16.667 21.167 18 40.5h47zM289 390v-70h-171v-249h210v-71h-288v700h288v-71h-210v-239h171z" />
    <glyph glyph-name="ebreve" unicode="&#x115;" horiz-adv-x="360" 
d="M287 840c-0.666992 -32 -10.167 -56.833 -28.5 -74.5s-44.166 -26.5 -77.499 -26.5c-32 0 -57 8.83301 -75 26.5s-27.333 42.5 -28 74.5h47c1.33301 -19.333 7.16602 -32.833 17.499 -40.5s23.166 -11.5 38.499 -11.5c16.667 0 30.334 3.83301 41.001 11.5
s16.667 21.167 18 40.5h47zM289 390v-70h-171v-249h210v-71h-288v700h288v-71h-210v-239h171z" />
    <glyph glyph-name="Edotaccent" unicode="&#x116;" horiz-adv-x="360" 
d="M218 830v-90h-68v90h68zM289 390v-70h-171v-249h210v-71h-288v700h288v-71h-210v-239h171z" />
    <glyph glyph-name="edotaccent" unicode="&#x117;" horiz-adv-x="360" 
d="M218 830v-90h-68v90h68zM289 390v-70h-171v-249h210v-71h-288v700h288v-71h-210v-239h171z" />
    <glyph glyph-name="Eogonek" unicode="&#x118;" horiz-adv-x="360" 
d="M289 390l0.00195312 -69.999h-171v-249h210v-71h-33c-12.667 -10 -22 -21.667 -28 -35s-9 -24.666 -9 -33.999c0.666992 -10.667 4.66699 -18.334 12 -23.001s16 -7 26 -7c9.33301 0 16.833 0.833008 22.5 2.5s11.167 3.83398 16.5 6.50098v-41
c-10 -4.66699 -19.667 -7.83398 -29 -9.50098s-20 -2.5 -32 -2.5c-22.667 0 -40.834 4.5 -54.501 13.5s-20.834 23.167 -21.501 42.5c0 16 5.5 31.667 16.5 47s25.833 28.666 44.5 39.999h-219v700h288v-71h-210v-239h171z" />
    <glyph glyph-name="eogonek" unicode="&#x119;" horiz-adv-x="360" 
d="M289 390l0.00195312 -69.999h-171v-249h210v-71h-33c-12.667 -10 -22 -21.667 -28 -35s-9 -24.666 -9 -33.999c0.666992 -10.667 4.66699 -18.334 12 -23.001s16 -7 26 -7c9.33301 0 16.833 0.833008 22.5 2.5s11.167 3.83398 16.5 6.50098v-41
c-10 -4.66699 -19.667 -7.83398 -29 -9.50098s-20 -2.5 -32 -2.5c-22.667 0 -40.834 4.5 -54.501 13.5s-20.834 23.167 -21.501 42.5c0 16 5.5 31.667 16.5 47s25.833 28.666 44.5 39.999h-219v700h288v-71h-210v-239h171z" />
    <glyph glyph-name="Ecaron" unicode="&#x11a;" horiz-adv-x="360" 
d="M131 839l52 -60l54 60h68l-87 -100h-69l-86 100h68zM289 390v-70h-171v-249h210v-71h-288v700h288v-71h-210v-239h171z" />
    <glyph glyph-name="ecaron" unicode="&#x11b;" horiz-adv-x="360" 
d="M131 839l52 -60l54 60h68l-87 -100h-69l-86 100h68zM289 390v-70h-171v-249h210v-71h-288v700h288v-71h-210v-239h171z" />
    <glyph glyph-name="Gcircumflex" unicode="&#x11c;" horiz-adv-x="383" 
d="M139 742h-68l86 100h69l87 -100h-68l-54 59zM191 707c54 0 93.832 -16 119.499 -48s38.5 -74.667 38.5 -128v-60h-74v64c0 32 -6.5 56.833 -19.5 74.5s-33.833 26.5 -62.5 26.5c-28 0 -48.667 -8.83301 -62 -26.5s-20 -42.5 -20 -74.5v-370
c0 -32 6.66699 -56.833 20 -74.5s34 -26.5 62 -26.5c28.667 0 49.5 8.83301 62.5 26.5s19.5 42.5 19.5 74.5v140h-72v70h146v-206c0 -53.333 -12.833 -96 -38.5 -128s-65.5 -48 -119.5 -48c-53.333 0 -92.833 16 -118.5 48s-38.5 74.667 -38.5 128v362
c0 26.667 3.16699 50.834 9.5 72.501s16 40.167 29 55.5s29.333 27.166 49 35.499s42.834 12.5 69.501 12.5z" />
    <glyph glyph-name="gcircumflex" unicode="&#x11d;" horiz-adv-x="383" 
d="M139 742h-68l86 100h69l87 -100h-68l-54 59zM191 707c54 0 93.832 -16 119.499 -48s38.5 -74.667 38.5 -128v-60h-74v64c0 32 -6.5 56.833 -19.5 74.5s-33.833 26.5 -62.5 26.5c-28 0 -48.667 -8.83301 -62 -26.5s-20 -42.5 -20 -74.5v-370
c0 -32 6.66699 -56.833 20 -74.5s34 -26.5 62 -26.5c28.667 0 49.5 8.83301 62.5 26.5s19.5 42.5 19.5 74.5v140h-72v70h146v-206c0 -53.333 -12.833 -96 -38.5 -128s-65.5 -48 -119.5 -48c-53.333 0 -92.833 16 -118.5 48s-38.5 74.667 -38.5 128v362
c0 26.667 3.16699 50.834 9.5 72.501s16 40.167 29 55.5s29.333 27.166 49 35.499s42.834 12.5 69.501 12.5z" />
    <glyph glyph-name="Gbreve" unicode="&#x11e;" horiz-adv-x="383" 
d="M296 841c-0.666992 -32 -10.166 -56.833 -28.499 -74.5s-43.833 -26.5 -76.5 -26.5s-58 8.83301 -76 26.5s-27.333 42.5 -28 74.5h47c1.33301 -19.333 7.16602 -32.833 17.499 -40.5s23.5 -11.5 39.5 -11.5s29.333 3.83301 40 11.5s16.667 21.167 18 40.5h47z
M191.001 707c54 0 93.832 -16 119.499 -48s38.5 -74.667 38.5 -128v-60h-74v64c0 32 -6.5 56.833 -19.5 74.5s-33.833 26.5 -62.5 26.5c-28 0 -48.667 -8.83301 -62 -26.5s-20 -42.5 -20 -74.5v-370c0 -32 6.66699 -56.833 20 -74.5s34 -26.5 62 -26.5
c28.667 0 49.5 8.83301 62.5 26.5s19.5 42.5 19.5 74.5v140h-72v70h146v-206c0 -53.333 -12.833 -96 -38.5 -128s-65.5 -48 -119.5 -48c-53.333 0 -92.833 16 -118.5 48s-38.5 74.667 -38.5 128v362c0 26.667 3.16699 50.834 9.5 72.501s16 40.167 29 55.5
s29.333 27.166 49 35.499s42.834 12.5 69.501 12.5z" />
    <glyph glyph-name="gbreve" unicode="&#x11f;" horiz-adv-x="383" 
d="M296 841c-0.666992 -32 -10.166 -56.833 -28.499 -74.5s-43.833 -26.5 -76.5 -26.5s-58 8.83301 -76 26.5s-27.333 42.5 -28 74.5h47c1.33301 -19.333 7.16602 -32.833 17.499 -40.5s23.5 -11.5 39.5 -11.5s29.333 3.83301 40 11.5s16.667 21.167 18 40.5h47z
M191.001 707c54 0 93.832 -16 119.499 -48s38.5 -74.667 38.5 -128v-60h-74v64c0 32 -6.5 56.833 -19.5 74.5s-33.833 26.5 -62.5 26.5c-28 0 -48.667 -8.83301 -62 -26.5s-20 -42.5 -20 -74.5v-370c0 -32 6.66699 -56.833 20 -74.5s34 -26.5 62 -26.5
c28.667 0 49.5 8.83301 62.5 26.5s19.5 42.5 19.5 74.5v140h-72v70h146v-206c0 -53.333 -12.833 -96 -38.5 -128s-65.5 -48 -119.5 -48c-53.333 0 -92.833 16 -118.5 48s-38.5 74.667 -38.5 128v362c0 26.667 3.16699 50.834 9.5 72.501s16 40.167 29 55.5
s29.333 27.166 49 35.499s42.834 12.5 69.501 12.5z" />
    <glyph glyph-name="Gdotaccent" unicode="&#x120;" horiz-adv-x="383" 
d="M228 830v-90h-68v90h68zM191 707c54 0 93.832 -16 119.499 -48s38.5 -74.667 38.5 -128v-60h-74v64c0 32 -6.5 56.833 -19.5 74.5s-33.833 26.5 -62.5 26.5c-28 0 -48.667 -8.83301 -62 -26.5s-20 -42.5 -20 -74.5v-370c0 -32 6.66699 -56.833 20 -74.5
s34 -26.5 62 -26.5c28.667 0 49.5 8.83301 62.5 26.5s19.5 42.5 19.5 74.5v140h-72v70h146v-206c0 -53.333 -12.833 -96 -38.5 -128s-65.5 -48 -119.5 -48c-53.333 0 -92.833 16 -118.5 48s-38.5 74.667 -38.5 128v362c0 26.667 3.16699 50.834 9.5 72.501
s16 40.167 29 55.5s29.333 27.166 49 35.499s42.834 12.5 69.501 12.5z" />
    <glyph glyph-name="gdotaccent" unicode="&#x121;" horiz-adv-x="383" 
d="M228 830v-90h-68v90h68zM191 707c54 0 93.832 -16 119.499 -48s38.5 -74.667 38.5 -128v-60h-74v64c0 32 -6.5 56.833 -19.5 74.5s-33.833 26.5 -62.5 26.5c-28 0 -48.667 -8.83301 -62 -26.5s-20 -42.5 -20 -74.5v-370c0 -32 6.66699 -56.833 20 -74.5
s34 -26.5 62 -26.5c28.667 0 49.5 8.83301 62.5 26.5s19.5 42.5 19.5 74.5v140h-72v70h146v-206c0 -53.333 -12.833 -96 -38.5 -128s-65.5 -48 -119.5 -48c-53.333 0 -92.833 16 -118.5 48s-38.5 74.667 -38.5 128v362c0 26.667 3.16699 50.834 9.5 72.501
s16 40.167 29 55.5s29.333 27.166 49 35.499s42.834 12.5 69.501 12.5z" />
    <glyph glyph-name="uni0122" unicode="&#x122;" horiz-adv-x="383" 
d="M191 707c54 0 93.832 -16 119.499 -48s38.5 -74.667 38.5 -128v-60h-74v64c0 32 -6.5 56.833 -19.5 74.5s-33.833 26.5 -62.5 26.5c-28 0 -48.667 -8.83301 -62 -26.5s-20 -42.5 -20 -74.5v-370c0 -32 6.66699 -56.833 20 -74.5s34 -26.5 62 -26.5
c28.667 0 49.5 8.83301 62.5 26.5s19.5 42.5 19.5 74.5v140h-72v70h146v-206c0 -53.333 -12.833 -96 -38.5 -128s-65.5 -48 -119.5 -48c-53.333 0 -92.833 16 -118.5 48s-38.5 74.667 -38.5 128v362c0 26.667 3.16699 50.834 9.5 72.501s16 40.167 29 55.5
s29.333 27.166 49 35.499s42.834 12.5 69.501 12.5zM182.999 -121h-25v88h66v-81l-35 -63h-29z" />
    <glyph glyph-name="uni0123" unicode="&#x123;" horiz-adv-x="383" 
d="M191 707c54 0 93.832 -16 119.499 -48s38.5 -74.667 38.5 -128v-60h-74v64c0 32 -6.5 56.833 -19.5 74.5s-33.833 26.5 -62.5 26.5c-28 0 -48.667 -8.83301 -62 -26.5s-20 -42.5 -20 -74.5v-370c0 -32 6.66699 -56.833 20 -74.5s34 -26.5 62 -26.5
c28.667 0 49.5 8.83301 62.5 26.5s19.5 42.5 19.5 74.5v140h-72v70h146v-206c0 -53.333 -12.833 -96 -38.5 -128s-65.5 -48 -119.5 -48c-53.333 0 -92.833 16 -118.5 48s-38.5 74.667 -38.5 128v362c0 26.667 3.16699 50.834 9.5 72.501s16 40.167 29 55.5
s29.333 27.166 49 35.499s42.834 12.5 69.501 12.5zM182.999 -121h-24v88h65v-81l-35 -63h-28z" />
    <glyph glyph-name="Hcircumflex" unicode="&#x124;" horiz-adv-x="408" 
d="M151 741h-68l87 101h69l86 -101h-68l-53 59zM118 315v-315h-78v700h78v-315h172v315h78v-700h-78v315h-172z" />
    <glyph glyph-name="hcircumflex" unicode="&#x125;" horiz-adv-x="408" 
d="M151 741h-68l87 101h69l86 -101h-68l-53 59zM118 315v-315h-78v700h78v-315h172v315h78v-700h-78v315h-172z" />
    <glyph glyph-name="Hbar" unicode="&#x126;" horiz-adv-x="415" 
d="M372 514v-514h-79v315h-172v-315h-78v514h-36v58h36v128h78v-128h172v128h79v-128h36v-58h-36zM293 514h-172v-129h172v129z" />
    <glyph glyph-name="hbar" unicode="&#x127;" horiz-adv-x="415" 
d="M372 514v-514h-79v315h-172v-315h-78v514h-36v58h36v128h78v-128h172v128h79v-128h36v-58h-36zM293 514h-172v-129h172v129z" />
    <glyph glyph-name="Itilde" unicode="&#x128;" horiz-adv-x="158" 
d="M201 802c-14.667 -38.667 -38.333 -58 -71 -58c-10 0 -18.833 1.5 -26.5 4.5s-15.167 6.33301 -22.5 10s-14.333 7 -21 10s-14 4.5 -22 4.5c-9.33301 0 -17.333 -2 -24 -6s-12.667 -11.667 -18 -23l-39 26c8.66699 20.667 19.334 35.5 32.001 44.5s26.667 13.5 42 13.5
c10 0 19 -1.5 27 -4.5s15.5 -6.33301 22.5 -10s14 -7 21 -10s14.167 -4.5 21.5 -4.5c8.66699 0 16.167 2.16699 22.5 6.5s12.166 11.833 17.499 22.5zM118.001 700v-700h-78v700h78z" />
    <glyph glyph-name="itilde" unicode="&#x129;" horiz-adv-x="158" 
d="M201 802c-14.667 -38.667 -38.333 -58 -71 -58c-10 0 -18.833 1.5 -26.5 4.5s-15.167 6.33301 -22.5 10s-14.333 7 -21 10s-14 4.5 -22 4.5c-9.33301 0 -17.333 -2 -24 -6s-12.667 -11.667 -18 -23l-39 26c8.66699 20.667 19.334 35.5 32.001 44.5s26.667 13.5 42 13.5
c10 0 19 -1.5 27 -4.5s15.5 -6.33301 22.5 -10s14 -7 21 -10s14.167 -4.5 21.5 -4.5c8.66699 0 16.167 2.16699 22.5 6.5s12.166 11.833 17.499 22.5zM118.001 700v-700h-78v700h78z" />
    <glyph glyph-name="Imacron" unicode="&#x12a;" horiz-adv-x="158" 
d="M178 806v-56h-199v56h199zM118 700v-700h-78v700h78z" />
    <glyph glyph-name="imacron" unicode="&#x12b;" horiz-adv-x="158" 
d="M178 806v-56h-199v56h199zM118 700v-700h-78v700h78z" />
    <glyph glyph-name="Ibreve" unicode="&#x12c;" horiz-adv-x="158" 
d="M183 838c0 -32 -9.32812 -57 -27.9951 -75s-44.334 -27 -77.001 -27s-57.834 9 -75.501 27s-26.834 43 -27.501 75h47c1.33301 -20 7.16602 -33.833 17.499 -41.5s23.166 -11.5 38.499 -11.5c16 0 29.333 3.83301 40 11.5s16.667 21.5 18 41.5h47zM40.0049 700h78v-700
h-78v700z" />
    <glyph glyph-name="ibreve" unicode="&#x12d;" horiz-adv-x="158" 
d="M183 838c0 -32 -9.32812 -57 -27.9951 -75s-44.334 -27 -77.001 -27s-57.834 9 -75.501 27s-26.834 43 -27.501 75h47c1.33301 -20 7.16602 -33.833 17.499 -41.5s23.166 -11.5 38.499 -11.5c16 0 29.333 3.83301 40 11.5s16.667 21.5 18 41.5h47zM40.0049 700h78v-700
h-78v700z" />
    <glyph glyph-name="Iogonek" unicode="&#x12e;" horiz-adv-x="158" 
d="M104 0c-12.667 -10 -22 -21.666 -28 -34.999s-8.66699 -24.666 -8 -33.999c0 -10.667 3.66699 -18.334 11 -23.001s16 -7 26 -7c9.33301 0 16.833 0.833008 22.5 2.5s11.5 3.83398 17.5 6.50098v-41c-10 -4.66699 -19.833 -7.83398 -29.5 -9.50098s-20.5 -2.5 -32.5 -2.5
c-22 0 -40 4.5 -54 13.5s-21 23.167 -21 42.5c-0.666992 15.333 4.33301 30.666 15 45.999s26 29 46 41h-29v700h78v-700h-14z" />
    <glyph glyph-name="iogonek" unicode="&#x12f;" horiz-adv-x="158" 
d="M104 0c-12.667 -10 -22 -21.666 -28 -34.999s-8.66699 -24.666 -8 -33.999c0 -10.667 3.66699 -18.334 11 -23.001s16 -7 26 -7c9.33301 0 16.833 0.833008 22.5 2.5s11.5 3.83398 17.5 6.50098v-41c-10 -4.66699 -19.833 -7.83398 -29.5 -9.50098s-20.5 -2.5 -32.5 -2.5
c-22 0 -40 4.5 -54 13.5s-21 23.167 -21 42.5c-0.666992 15.333 4.33301 30.666 15 45.999s26 29 46 41h-29v700h78v-700h-14z" />
    <glyph glyph-name="Idotaccent" unicode="&#x130;" horiz-adv-x="158" 
d="M113 829v-90h-68v90h68zM118 700v-700h-78v700h78z" />
    <glyph glyph-name="dotlessi" unicode="&#x131;" horiz-adv-x="158" 
d="M118 700v-700h-78v700h78z" />
    <glyph glyph-name="IJ" unicode="&#x132;" horiz-adv-x="412" 
d="M118 700v-700h-78v700h78zM376 173c0 -33.333 -3.83301 -60.9971 -11.5 -82.9971s-18.334 -39.667 -32.001 -53s-29.667 -22.833 -48 -28.5s-38.166 -8.83398 -59.499 -9.50098h-24.5c-7 0 -14.833 0.333008 -23.5 1v71c6.66699 -0.666992 13.167 -1 19.5 -1h18.5
c26.667 1.33301 47.167 9.16602 61.5 23.499s21.5 39.166 21.5 74.499v532h78v-527z" />
    <glyph glyph-name="ij" unicode="&#x133;" horiz-adv-x="412" 
d="M118 700v-700h-78v700h78zM376 173c0 -33.333 -3.83301 -60.9971 -11.5 -82.9971s-18.334 -39.667 -32.001 -53s-29.667 -22.833 -48 -28.5s-38.166 -8.83398 -59.499 -9.50098h-24.5c-7 0 -14.833 0.333008 -23.5 1v71c6.66699 -0.666992 13.167 -1 19.5 -1h18.5
c26.667 1.33301 47.167 9.16602 61.5 23.499s21.5 39.166 21.5 74.499v532h78v-527z" />
    <glyph glyph-name="Jcircumflex" unicode="&#x134;" horiz-adv-x="255" 
d="M114 739h-68l86 101h69l87 -101h-68l-53 60zM218 173c0 -32.667 -3.83594 -59.9961 -11.5029 -81.9961s-18.167 -39.833 -31.5 -53.5s-29.166 -23.334 -47.499 -29.001s-37.833 -8.83398 -58.5 -9.50098c-9.33301 0 -17.666 -0.166992 -24.999 -0.5
s-15.333 0.166992 -24 1.5v71c6.66699 -0.666992 13.334 -1 20.001 -1h19c25.333 1.33301 45.333 9.16602 60 23.499s22 39.166 22 74.499v532h77v-527z" />
    <glyph glyph-name="jcircumflex" unicode="&#x135;" horiz-adv-x="255" 
d="M114 739h-68l86 101h69l87 -101h-68l-53 60zM218 173c0 -32.667 -3.83594 -59.9961 -11.5029 -81.9961s-18.167 -39.833 -31.5 -53.5s-29.166 -23.334 -47.499 -29.001s-37.833 -8.83398 -58.5 -9.50098c-9.33301 0 -17.666 -0.166992 -24.999 -0.5
s-15.333 0.166992 -24 1.5v71c6.66699 -0.666992 13.334 -1 20.001 -1h19c25.333 1.33301 45.333 9.16602 60 23.499s22 39.166 22 74.499v532h77v-527z" />
    <glyph glyph-name="uni0136" unicode="&#x136;" horiz-adv-x="409" 
d="M159 304l-41 -69v-235h-78v700h78v-338l186 338h79l-177 -319l183 -381h-80zM197 -121h-25v88h66v-81l-35 -63h-29z" />
    <glyph glyph-name="uni0137" unicode="&#x137;" horiz-adv-x="409" 
d="M159 304l-41 -69v-235h-78v700h78v-338l186 338h79l-177 -319l183 -381h-80zM197 -121h-25v88h66v-81l-35 -63h-29z" />
    <glyph glyph-name="kgreenlandic" unicode="&#x138;" horiz-adv-x="409" 
d="M159 304l-41 -69v-235h-78v700h78v-338l186 338h79l-177 -319l183 -381h-80z" />
    <glyph glyph-name="Lacute" unicode="&#x139;" horiz-adv-x="337" 
d="M206 842l-93 -103h-54l70 103h77zM40 0v700h78v-629h200v-71h-278z" />
    <glyph glyph-name="lacute" unicode="&#x13a;" horiz-adv-x="337" 
d="M203 842l-93 -103h-54l69 103h78zM40 0v700h78v-629h200v-71h-278z" />
    <glyph glyph-name="uni013B" unicode="&#x13b;" horiz-adv-x="337" 
d="M40 0v700h78v-629h200v-71h-278zM174 -122h-25v87h66v-81l-35 -63h-29z" />
    <glyph glyph-name="uni013C" unicode="&#x13c;" horiz-adv-x="337" 
d="M40 0v700h78v-629h200v-71h-278zM177 -121h-24v88h65v-81l-35 -63h-28z" />
    <glyph glyph-name="Lcaron" unicode="&#x13d;" horiz-adv-x="337" 
d="M40 0v700h78v-629h200v-71h-278zM242 603h-29v97h75v-89l-38 -96h-33z" />
    <glyph glyph-name="lcaron" unicode="&#x13e;" horiz-adv-x="337" 
d="M40 0v700h78v-629h200v-71h-278zM242 603h-29v97h75v-89l-38 -96h-33z" />
    <glyph glyph-name="Ldot" unicode="&#x13f;" horiz-adv-x="337" 
d="M40 0v700h78v-629h200v-71h-278zM272 400v-97h-75v97h75z" />
    <glyph glyph-name="ldot" unicode="&#x140;" horiz-adv-x="337" 
d="M40 0v700h78v-629h200v-71h-278zM272 400v-97h-75v97h75z" />
    <glyph glyph-name="Lslash" unicode="&#x141;" horiz-adv-x="348" 
d="M128 291v-220h201v-71h-278v208l-51 -50v72l51 50v420h77v-337l109 113v-72z" />
    <glyph glyph-name="lslash" unicode="&#x142;" horiz-adv-x="348" 
d="M128 291v-220h201v-71h-278v208l-51 -50v72l51 50v420h77v-337l109 113v-72z" />
    <glyph glyph-name="Nacute" unicode="&#x143;" horiz-adv-x="409" 
d="M306 842l-93 -102h-54l70 102h77zM109 0h-70v700h99l162 -506v506h69v-700h-81l-179 567v-567z" />
    <glyph glyph-name="nacute" unicode="&#x144;" horiz-adv-x="409" 
d="M306 842l-93 -102h-54l70 102h77zM109 0h-70v700h99l162 -506v506h69v-700h-81l-179 567v-567z" />
    <glyph glyph-name="uni0145" unicode="&#x145;" horiz-adv-x="409" 
d="M109 0h-70v700h99l162 -506v506h69v-700h-81l-179 566v-566zM196 -121h-25v88h65v-81l-35 -63h-28z" />
    <glyph glyph-name="uni0146" unicode="&#x146;" horiz-adv-x="409" 
d="M109 0h-70v700h99l162 -506v506h69v-700h-81l-179 566v-566zM196 -121h-25v88h65v-81l-35 -63h-28z" />
    <glyph glyph-name="Ncaron" unicode="&#x147;" horiz-adv-x="409" 
d="M152 842l53 -60l53 60h68l-86 -101h-69l-87 101h68zM109 0h-70v700h99l162 -506v506h69v-700h-81l-179 566v-566z" />
    <glyph glyph-name="ncaron" unicode="&#x148;" horiz-adv-x="409" 
d="M152 842l53 -60l53 60h68l-86 -101h-69l-87 101h68zM109 0h-70v700h99l162 -506v506h69v-700h-81l-179 566v-566z" />
    <glyph glyph-name="napostrophe" unicode="&#x149;" horiz-adv-x="503" 
d="M40 603h-29v97h75v-89l-38 -96h-33zM204 0h-70v700h99l162 -506v506h69v-700h-81l-179 566v-566z" />
    <glyph glyph-name="Omacron" unicode="&#x14c;" horiz-adv-x="389" 
d="M299 806v-55h-208v55h208zM194 707c54 0 94.333 -15.833 121 -47.5s40 -74.5 40 -128.5v-362c0 -53.333 -13.333 -96 -40 -128s-67 -48 -121 -48s-94.167 16 -120.5 48s-39.5 74.667 -39.5 128v362c0 54 13.167 96.833 39.5 128.5s66.5 47.5 120.5 47.5zM194 636
c-28 0 -48.833 -8.83301 -62.5 -26.5s-20.5 -42.5 -20.5 -74.5v-370c0 -32 6.83301 -56.833 20.5 -74.5s34.5 -26.5 62.5 -26.5c28.667 0 49.667 8.83301 63 26.5s20 42.5 20 74.5v370c0 32 -6.66699 56.833 -20 74.5s-34.333 26.5 -63 26.5z" />
    <glyph glyph-name="omacron" unicode="&#x14d;" horiz-adv-x="389" 
d="M299 806v-55h-208v55h208zM194 707c54 0 94.333 -15.833 121 -47.5s40 -74.5 40 -128.5v-362c0 -53.333 -13.333 -96 -40 -128s-67 -48 -121 -48s-94.167 16 -120.5 48s-39.5 74.667 -39.5 128v362c0 54 13.167 96.833 39.5 128.5s66.5 47.5 120.5 47.5zM194 636
c-28 0 -48.833 -8.83301 -62.5 -26.5s-20.5 -42.5 -20.5 -74.5v-370c0 -32 6.83301 -56.833 20.5 -74.5s34.5 -26.5 62.5 -26.5c28.667 0 49.667 8.83301 63 26.5s20 42.5 20 74.5v370c0 32 -6.66699 56.833 -20 74.5s-34.333 26.5 -63 26.5z" />
    <glyph glyph-name="Obreve" unicode="&#x14e;" horiz-adv-x="389" 
d="M299 841c-0.666992 -32 -10.167 -56.833 -28.5 -74.5s-44.166 -26.5 -77.499 -26.5c-32 0 -57 8.83301 -75 26.5s-27.333 42.5 -28 74.5h47c1.33301 -19.333 7.16602 -32.833 17.499 -40.5s23.166 -11.5 38.499 -11.5c16.667 0 30.334 3.83301 41.001 11.5
s16.667 21.167 18 40.5h47zM194 707c54 0 94.333 -15.833 121 -47.5s40 -74.5 40 -128.5v-362c0 -53.333 -13.333 -96 -40 -128s-67 -48 -121 -48s-94.167 16 -120.5 48s-39.5 74.667 -39.5 128v362c0 54 13.167 96.833 39.5 128.5s66.5 47.5 120.5 47.5zM194 636
c-28 0 -48.833 -8.83301 -62.5 -26.5s-20.5 -42.5 -20.5 -74.5v-370c0 -32 6.83301 -56.833 20.5 -74.5s34.5 -26.5 62.5 -26.5c28.667 0 49.667 8.83301 63 26.5s20 42.5 20 74.5v370c0 32 -6.66699 56.833 -20 74.5s-34.333 26.5 -63 26.5z" />
    <glyph glyph-name="obreve" unicode="&#x14f;" horiz-adv-x="389" 
d="M299 841c-0.666992 -32 -10.167 -56.833 -28.5 -74.5s-44.166 -26.5 -77.499 -26.5c-32 0 -57 8.83301 -75 26.5s-27.333 42.5 -28 74.5h47c1.33301 -19.333 7.16602 -32.833 17.499 -40.5s23.166 -11.5 38.499 -11.5c16.667 0 30.334 3.83301 41.001 11.5
s16.667 21.167 18 40.5h47zM194 707c54 0 94.333 -15.833 121 -47.5s40 -74.5 40 -128.5v-362c0 -53.333 -13.333 -96 -40 -128s-67 -48 -121 -48s-94.167 16 -120.5 48s-39.5 74.667 -39.5 128v362c0 54 13.167 96.833 39.5 128.5s66.5 47.5 120.5 47.5zM194 636
c-28 0 -48.833 -8.83301 -62.5 -26.5s-20.5 -42.5 -20.5 -74.5v-370c0 -32 6.83301 -56.833 20.5 -74.5s34.5 -26.5 62.5 -26.5c28.667 0 49.667 8.83301 63 26.5s20 42.5 20 74.5v370c0 32 -6.66699 56.833 -20 74.5s-34.333 26.5 -63 26.5z" />
    <glyph glyph-name="Ohungarumlaut" unicode="&#x150;" horiz-adv-x="389" 
d="M230 845l-80 -103h-49l57 103h72zM338 845l-81 -103h-49l57 103h73zM194 707c54 0 94.333 -15.833 121 -47.5s40 -74.5 40 -128.5v-362c0 -53.333 -13.333 -96 -40 -128s-67 -48 -121 -48s-94.167 16 -120.5 48s-39.5 74.667 -39.5 128v362
c0 54 13.167 96.833 39.5 128.5s66.5 47.5 120.5 47.5zM194 636c-28 0 -48.833 -8.83301 -62.5 -26.5s-20.5 -42.5 -20.5 -74.5v-370c0 -32 6.83301 -56.833 20.5 -74.5s34.5 -26.5 62.5 -26.5c28.667 0 49.667 8.83301 63 26.5s20 42.5 20 74.5v370
c0 32 -6.66699 56.833 -20 74.5s-34.333 26.5 -63 26.5z" />
    <glyph glyph-name="ohungarumlaut" unicode="&#x151;" horiz-adv-x="389" 
d="M230 845l-80 -103h-49l57 103h72zM338 845l-81 -103h-49l57 103h73zM194 707c54 0 94.333 -15.833 121 -47.5s40 -74.5 40 -128.5v-362c0 -53.333 -13.333 -96 -40 -128s-67 -48 -121 -48s-94.167 16 -120.5 48s-39.5 74.667 -39.5 128v362
c0 54 13.167 96.833 39.5 128.5s66.5 47.5 120.5 47.5zM194 636c-28 0 -48.833 -8.83301 -62.5 -26.5s-20.5 -42.5 -20.5 -74.5v-370c0 -32 6.83301 -56.833 20.5 -74.5s34.5 -26.5 62.5 -26.5c28.667 0 49.667 8.83301 63 26.5s20 42.5 20 74.5v370
c0 32 -6.66699 56.833 -20 74.5s-34.333 26.5 -63 26.5z" />
    <glyph glyph-name="OE" unicode="&#x152;" horiz-adv-x="577" 
d="M508 390v-70.002h-161v-249h198v-71h-357c-54 0 -93.333 15.833 -118 47.5s-37 73.834 -37 126.501v352c0 52.667 12.333 94.834 37 126.501s64 47.5 118 47.5h357v-71h-198v-239h161zM189 628.998c-28 0 -48 -9 -60 -27s-18 -42 -18 -72v-360c0 -30 6 -54 18 -72
s32 -27 60 -27h81v558h-81z" />
    <glyph glyph-name="oe" unicode="&#x153;" horiz-adv-x="577" 
d="M508 390v-70.002h-161v-249h198v-71h-357c-54 0 -93.333 15.833 -118 47.5s-37 73.834 -37 126.501v352c0 52.667 12.333 94.834 37 126.501s64 47.5 118 47.5h357v-71h-198v-239h161zM189 628.998c-28 0 -48 -9 -60 -27s-18 -42 -18 -72v-360c0 -30 6 -54 18 -72
s32 -27 60 -27h81v558h-81z" />
    <glyph glyph-name="Racute" unicode="&#x154;" horiz-adv-x="394" 
d="M287 845l-93 -103h-54l69 103h78zM196 700c55.333 0 95.168 -13.668 119.501 -41.001s36.5 -67 36.5 -119v-57c0 -38.667 -7 -70 -21 -94s-36 -40.667 -66 -50c32 -9.33301 54.667 -26.5 68 -51.5s20 -56.5 20 -94.5v-109c0 -15.333 0.666992 -30.166 2 -44.499
s5.33301 -27.5 12 -39.5h-79c-4.66699 10 -8 20.833 -10 32.5s-3 29.167 -3 52.5v110c0 39.333 -8.83301 66.5 -26.5 81.5s-42.834 22.5 -75.501 22.5h-55v-299h-78v700h156zM176.002 369.999c31.333 0 55.666 6.5 72.999 19.5s26 38.5 26 76.5v67
c0 32 -6.16699 56 -18.5 72s-33.166 24 -62.499 24h-76v-259h58z" />
    <glyph glyph-name="racute" unicode="&#x155;" horiz-adv-x="394" 
d="M287 845l-93 -103h-54l69 103h78zM196 700c55.333 0 95.168 -13.668 119.501 -41.001s36.5 -67 36.5 -119v-57c0 -38.667 -7 -70 -21 -94s-36 -40.667 -66 -50c32 -9.33301 54.667 -26.5 68 -51.5s20 -56.5 20 -94.5v-109c0 -15.333 0.666992 -30.166 2 -44.499
s5.33301 -27.5 12 -39.5h-79c-4.66699 10 -8 20.833 -10 32.5s-3 29.167 -3 52.5v110c0 39.333 -8.83301 66.5 -26.5 81.5s-42.834 22.5 -75.501 22.5h-55v-299h-78v700h156zM176.002 369.999c31.333 0 55.666 6.5 72.999 19.5s26 38.5 26 76.5v67
c0 32 -6.16699 56 -18.5 72s-33.166 24 -62.499 24h-76v-259h58z" />
    <glyph glyph-name="uni0156" unicode="&#x156;" horiz-adv-x="394" 
d="M196 700c55.333 0 95.168 -13.668 119.501 -41.001s36.5 -67 36.5 -119v-57c0 -38.667 -7 -70 -21 -94s-36 -40.667 -66 -50c32 -9.33301 54.667 -26.5 68 -51.5s20 -56.5 20 -94.5v-109c0 -15.333 0.666992 -30.166 2 -44.499s5.33301 -27.5 12 -39.5h-79
c-4.66699 10 -8 20.833 -10 32.5s-3 29.167 -3 52.5v110c0 39.333 -8.83301 66.5 -26.5 81.5s-42.834 22.5 -75.501 22.5h-55v-299h-78v700h156zM176.002 369.999c31.333 0 55.666 6.5 72.999 19.5s26 38.5 26 76.5v67c0 32 -6.16699 56 -18.5 72s-33.166 24 -62.499 24h-76
v-259h58zM188.002 -120.001h-24v87h65v-81l-35 -63h-29z" />
    <glyph glyph-name="uni0157" unicode="&#x157;" horiz-adv-x="394" 
d="M196 700c55.333 0 95.168 -13.668 119.501 -41.001s36.5 -67 36.5 -119v-57c0 -38.667 -7 -70 -21 -94s-36 -40.667 -66 -50c32 -9.33301 54.667 -26.5 68 -51.5s20 -56.5 20 -94.5v-109c0 -15.333 0.666992 -30.166 2 -44.499s5.33301 -27.5 12 -39.5h-79
c-4.66699 10 -8 20.833 -10 32.5s-3 29.167 -3 52.5v110c0 39.333 -8.83301 66.5 -26.5 81.5s-42.834 22.5 -75.501 22.5h-55v-299h-78v700h156zM176.002 369.999c31.333 0 55.666 6.5 72.999 19.5s26 38.5 26 76.5v67c0 32 -6.16699 56 -18.5 72s-33.166 24 -62.499 24h-76
v-259h58zM189.002 -121.001h-25v88h66v-81l-35 -63h-29z" />
    <glyph glyph-name="Rcaron" unicode="&#x158;" horiz-adv-x="394" 
d="M133 842l53 -60l53 60h68l-87 -100h-69l-86 100h68zM196 700c55.333 0 95.168 -13.668 119.501 -41.001s36.5 -67 36.5 -119v-57c0 -38.667 -7 -70 -21 -94s-36 -40.667 -66 -50c32 -9.33301 54.667 -26.5 68 -51.5s20 -56.5 20 -94.5v-109
c0 -15.333 0.666992 -30.166 2 -44.499s5.33301 -27.5 12 -39.5h-79c-4.66699 10 -8 20.833 -10 32.5s-3 29.167 -3 52.5v110c0 39.333 -8.83301 66.5 -26.5 81.5s-42.834 22.5 -75.501 22.5h-55v-299h-78v700h156zM176.002 369.999c31.333 0 55.666 6.5 72.999 19.5
s26 38.5 26 76.5v67c0 32 -6.16699 56 -18.5 72s-33.166 24 -62.499 24h-76v-259h58z" />
    <glyph glyph-name="rcaron" unicode="&#x159;" horiz-adv-x="394" 
d="M133 842l53 -60l53 60h68l-87 -100h-69l-86 100h68zM196 700c55.333 0 95.168 -13.668 119.501 -41.001s36.5 -67 36.5 -119v-57c0 -38.667 -7 -70 -21 -94s-36 -40.667 -66 -50c32 -9.33301 54.667 -26.5 68 -51.5s20 -56.5 20 -94.5v-109
c0 -15.333 0.666992 -30.166 2 -44.499s5.33301 -27.5 12 -39.5h-79c-4.66699 10 -8 20.833 -10 32.5s-3 29.167 -3 52.5v110c0 39.333 -8.83301 66.5 -26.5 81.5s-42.834 22.5 -75.501 22.5h-55v-299h-78v700h156zM176.002 369.999c31.333 0 55.666 6.5 72.999 19.5
s26 38.5 26 76.5v67c0 32 -6.16699 56 -18.5 72s-33.166 24 -62.499 24h-76v-259h58z" />
    <glyph glyph-name="Sacute" unicode="&#x15a;" horiz-adv-x="372" 
d="M289 845l-93 -103h-54l69 103h78zM187 707c53.333 0 92.6689 -15.835 118.002 -47.502s38 -74.167 38 -127.5v-19h-74v23c0 32 -6.33301 56.667 -19 74s-33 26 -61 26s-48.333 -8.66699 -61 -26s-19 -41.666 -19 -72.999c0 -26 5.83301 -48.667 17.5 -68
s26.167 -37.166 43.5 -53.499s36.166 -32.333 56.499 -48s39.166 -32.834 56.499 -51.501s31.833 -39.834 43.5 -63.501s17.5 -51.834 17.5 -84.501c0 -53.333 -12.833 -95.833 -38.5 -127.5s-65.5 -47.5 -119.5 -47.5s-93.667 15.833 -119 47.5s-38 74.167 -38 127.5v40h73
v-44c0 -32 6.66699 -56.667 20 -74s34 -26 62 -26s48.667 8.66699 62 26s20 42 20 74c0 26 -5.83301 48.5 -17.5 67.5s-26.167 36.667 -43.5 53s-36 32.333 -56 48s-38.667 32.834 -56 51.501s-31.833 39.834 -43.5 63.501s-17.5 51.834 -17.5 84.501
c0 54 12.667 96.667 38 128s64.333 47 117 47z" />
    <glyph glyph-name="sacute" unicode="&#x15b;" horiz-adv-x="372" 
d="M289 845l-93 -103h-54l69 103h78zM187 707c53.333 0 92.6689 -15.835 118.002 -47.502s38 -74.167 38 -127.5v-19h-74v23c0 32 -6.33301 56.667 -19 74s-33 26 -61 26s-48.333 -8.66699 -61 -26s-19 -41.666 -19 -72.999c0 -26 5.83301 -48.667 17.5 -68
s26.167 -37.166 43.5 -53.499s36.166 -32.333 56.499 -48s39.166 -32.834 56.499 -51.501s31.833 -39.834 43.5 -63.501s17.5 -51.834 17.5 -84.501c0 -53.333 -12.833 -95.833 -38.5 -127.5s-65.5 -47.5 -119.5 -47.5s-93.667 15.833 -119 47.5s-38 74.167 -38 127.5v40h73
v-44c0 -32 6.66699 -56.667 20 -74s34 -26 62 -26s48.667 8.66699 62 26s20 42 20 74c0 26 -5.83301 48.5 -17.5 67.5s-26.167 36.667 -43.5 53s-36 32.333 -56 48s-38.667 32.834 -56 51.501s-31.833 39.834 -43.5 63.501s-17.5 51.834 -17.5 84.501
c0 54 12.667 96.667 38 128s64.333 47 117 47z" />
    <glyph glyph-name="Scircumflex" unicode="&#x15c;" horiz-adv-x="372" 
d="M135 741h-68l87 101h69l86 -101h-68l-53 59zM187 707c53.333 0 92.6689 -15.835 118.002 -47.502s38 -74.167 38 -127.5v-19h-74v23c0 32 -6.33301 56.667 -19 74s-33 26 -61 26s-48.333 -8.66699 -61 -26s-19 -41.666 -19 -72.999c0 -26 5.83301 -48.667 17.5 -68
s26.167 -37.166 43.5 -53.499s36.166 -32.333 56.499 -48s39.166 -32.834 56.499 -51.501s31.833 -39.834 43.5 -63.501s17.5 -51.834 17.5 -84.501c0 -53.333 -12.833 -95.833 -38.5 -127.5s-65.5 -47.5 -119.5 -47.5s-93.667 15.833 -119 47.5s-38 74.167 -38 127.5v40h73
v-44c0 -32 6.66699 -56.667 20 -74s34 -26 62 -26s48.667 8.66699 62 26s20 42 20 74c0 26 -5.83301 48.5 -17.5 67.5s-26.167 36.667 -43.5 53s-36 32.333 -56 48s-38.667 32.834 -56 51.501s-31.833 39.834 -43.5 63.501s-17.5 51.834 -17.5 84.501
c0 54 12.667 96.667 38 128s64.333 47 117 47z" />
    <glyph glyph-name="scircumflex" unicode="&#x15d;" horiz-adv-x="372" 
d="M135 741h-68l87 101h69l86 -101h-68l-53 59zM187 707c53.333 0 92.6689 -15.835 118.002 -47.502s38 -74.167 38 -127.5v-19h-74v23c0 32 -6.33301 56.667 -19 74s-33 26 -61 26s-48.333 -8.66699 -61 -26s-19 -41.666 -19 -72.999c0 -26 5.83301 -48.667 17.5 -68
s26.167 -37.166 43.5 -53.499s36.166 -32.333 56.499 -48s39.166 -32.834 56.499 -51.501s31.833 -39.834 43.5 -63.501s17.5 -51.834 17.5 -84.501c0 -53.333 -12.833 -95.833 -38.5 -127.5s-65.5 -47.5 -119.5 -47.5s-93.667 15.833 -119 47.5s-38 74.167 -38 127.5v40h73
v-44c0 -32 6.66699 -56.667 20 -74s34 -26 62 -26s48.667 8.66699 62 26s20 42 20 74c0 26 -5.83301 48.5 -17.5 67.5s-26.167 36.667 -43.5 53s-36 32.333 -56 48s-38.667 32.834 -56 51.501s-31.833 39.834 -43.5 63.501s-17.5 51.834 -17.5 84.501
c0 54 12.667 96.667 38 128s64.333 47 117 47z" />
    <glyph glyph-name="Scedilla" unicode="&#x15e;" horiz-adv-x="372" 
d="M201 -37c23.333 0 41.5029 -4.50195 54.5029 -13.502s19.5 -21.5 19.5 -37.5c0 -20 -8.33301 -35.667 -25 -47s-40 -17 -70 -17c-29.333 0 -52 5.5 -68 16.5s-24 26.167 -24 45.5v8h51v-7c0 -17.333 13.667 -27 41 -29c28.667 0 43 10.667 43 32c0 20 -16.333 30 -49 30
h-9v50c-47.333 4 -81.833 21.5 -103.5 52.5s-32.5 71.5 -32.5 121.5v40h73v-44c0 -32 6.66699 -56.667 20 -74s34 -26 62 -26s48.667 8.66699 62 26s20 42 20 74c0 26 -5.83301 48.5 -17.5 67.5s-26.167 36.667 -43.5 53s-36 32.333 -56 48s-38.667 32.834 -56 51.501
s-31.833 39.834 -43.5 63.501s-17.5 51.834 -17.5 84.501c0 54 12.667 96.667 38 128s64.333 47 117 47c53.333 0 92.666 -15.833 117.999 -47.5s38 -74.167 38 -127.5v-19h-74v23c0 32 -6.33301 56.667 -19 74s-33 26 -61 26s-48.333 -8.66699 -61 -26
s-19 -41.666 -19 -72.999c0 -26 5.83301 -48.667 17.5 -68s26.167 -37.166 43.5 -53.499s36.166 -32.333 56.499 -48s39.166 -32.834 56.499 -51.501s31.833 -39.834 43.5 -63.501s17.5 -51.834 17.5 -84.501c0 -50.667 -11.667 -91.5 -35 -122.5
s-59.333 -48.167 -108 -51.5v-31z" />
    <glyph glyph-name="scedilla" unicode="&#x15f;" horiz-adv-x="372" 
d="M201 -37c23.333 0 41.5029 -4.50195 54.5029 -13.502s19.5 -21.5 19.5 -37.5c0 -20 -8.33301 -35.667 -25 -47s-40 -17 -70 -17c-29.333 0 -52 5.5 -68 16.5s-24 26.167 -24 45.5v8h51v-7c0 -17.333 13.667 -27 41 -29c28.667 0 43 10.667 43 32c0 20 -16.333 30 -49 30
h-9v50c-47.333 4 -81.833 21.5 -103.5 52.5s-32.5 71.5 -32.5 121.5v40h73v-44c0 -32 6.66699 -56.667 20 -74s34 -26 62 -26s48.667 8.66699 62 26s20 42 20 74c0 26 -5.83301 48.5 -17.5 67.5s-26.167 36.667 -43.5 53s-36 32.333 -56 48s-38.667 32.834 -56 51.501
s-31.833 39.834 -43.5 63.501s-17.5 51.834 -17.5 84.501c0 54 12.667 96.667 38 128s64.333 47 117 47c53.333 0 92.666 -15.833 117.999 -47.5s38 -74.167 38 -127.5v-19h-74v23c0 32 -6.33301 56.667 -19 74s-33 26 -61 26s-48.333 -8.66699 -61 -26
s-19 -41.666 -19 -72.999c0 -26 5.83301 -48.667 17.5 -68s26.167 -37.166 43.5 -53.499s36.166 -32.333 56.499 -48s39.166 -32.834 56.499 -51.501s31.833 -39.834 43.5 -63.501s17.5 -51.834 17.5 -84.501c0 -50.667 -11.667 -91.5 -35 -122.5
s-59.333 -48.167 -108 -51.5v-31z" />
    <glyph glyph-name="Scaron" unicode="&#x160;" horiz-adv-x="372" 
d="M135 842l52 -60l53 60h69l-87 -100h-69l-86 100h68zM187 707c53.333 0 92.6689 -15.835 118.002 -47.502s38 -74.167 38 -127.5v-19h-74v23c0 32 -6.33301 56.667 -19 74s-33 26 -61 26s-48.333 -8.66699 -61 -26s-19 -41.666 -19 -72.999
c0 -26 5.83301 -48.667 17.5 -68s26.167 -37.166 43.5 -53.499s36.166 -32.333 56.499 -48s39.166 -32.834 56.499 -51.501s31.833 -39.834 43.5 -63.501s17.5 -51.834 17.5 -84.501c0 -53.333 -12.833 -95.833 -38.5 -127.5s-65.5 -47.5 -119.5 -47.5
s-93.667 15.833 -119 47.5s-38 74.167 -38 127.5v40h73v-44c0 -32 6.66699 -56.667 20 -74s34 -26 62 -26s48.667 8.66699 62 26s20 42 20 74c0 26 -5.83301 48.5 -17.5 67.5s-26.167 36.667 -43.5 53s-36 32.333 -56 48s-38.667 32.834 -56 51.501
s-31.833 39.834 -43.5 63.501s-17.5 51.834 -17.5 84.501c0 54 12.667 96.667 38 128s64.333 47 117 47z" />
    <glyph glyph-name="scaron" unicode="&#x161;" horiz-adv-x="372" 
d="M134 842l53 -60l53 60h68l-87 -100h-69l-86 100h68zM187 707c53.333 0 92.6689 -15.835 118.002 -47.502s38 -74.167 38 -127.5v-19h-74v23c0 32 -6.33301 56.667 -19 74s-33 26 -61 26s-48.333 -8.66699 -61 -26s-19 -41.666 -19 -72.999
c0 -26 5.83301 -48.667 17.5 -68s26.167 -37.166 43.5 -53.499s36.166 -32.333 56.499 -48s39.166 -32.834 56.499 -51.501s31.833 -39.834 43.5 -63.501s17.5 -51.834 17.5 -84.501c0 -53.333 -12.833 -95.833 -38.5 -127.5s-65.5 -47.5 -119.5 -47.5
s-93.667 15.833 -119 47.5s-38 74.167 -38 127.5v40h73v-44c0 -32 6.66699 -56.667 20 -74s34 -26 62 -26s48.667 8.66699 62 26s20 42 20 74c0 26 -5.83301 48.5 -17.5 67.5s-26.167 36.667 -43.5 53s-36 32.333 -56 48s-38.667 32.834 -56 51.501
s-31.833 39.834 -43.5 63.501s-17.5 51.834 -17.5 84.501c0 54 12.667 96.667 38 128s64.333 47 117 47z" />
    <glyph glyph-name="uni0162" unicode="&#x162;" horiz-adv-x="372" 
d="M204 0v-37.9971c19.333 0 35.333 -4.5 48 -13.5s19 -23.167 19 -42.5c0 -13.333 -2.5 -24.833 -7.5 -34.5s-11.5 -17.5 -19.5 -23.5s-17.333 -10.167 -28 -12.5s-21.667 -3.5 -33 -3.5c-10.667 0 -21.167 1.33301 -31.5 4s-19.5 6.66699 -27.5 12
s-14.5 12.166 -19.5 20.499s-7.5 18.166 -7.5 29.499v8h47v-8c0 -11.333 4.16699 -19 12.5 -23s16.833 -6 25.5 -6c10.667 0 20.167 2.66699 28.5 8s12.5 14 12.5 26c0 13.333 -4.5 22.166 -13.5 26.499s-20.167 6.5 -33.5 6.5h-9v64h-20v629h-129v71h336v-71h-129v-629h-21
z" />
    <glyph glyph-name="uni0163" unicode="&#x163;" horiz-adv-x="372" 
d="M204 0v-37.9971c19.333 0 35.333 -4.5 48 -13.5s19 -23.167 19 -42.5c0 -13.333 -2.5 -24.833 -7.5 -34.5s-11.5 -17.5 -19.5 -23.5s-17.333 -10.167 -28 -12.5s-21.667 -3.5 -33 -3.5c-10.667 0 -21.167 1.33301 -31.5 4s-19.5 6.66699 -27.5 12
s-14.5 12.166 -19.5 20.499s-7.5 18.166 -7.5 29.499v8h47v-8c0 -11.333 4.16699 -19 12.5 -23s16.833 -6 25.5 -6c10.667 0 20.167 2.66699 28.5 8s12.5 14 12.5 26c0 13.333 -4.5 22.166 -13.5 26.499s-20.167 6.5 -33.5 6.5h-9v64h-20v629h-129v71h336v-71h-129v-629h-21
z" />
    <glyph glyph-name="Tcaron" unicode="&#x164;" horiz-adv-x="372" 
d="M133 840l52 -60l54 60h68l-87 -101h-69l-86 101h68zM147 0v629h-129v71h336v-71h-129v-629h-78z" />
    <glyph glyph-name="tcaron" unicode="&#x165;" horiz-adv-x="372" 
d="M133 840l52 -60l54 60h68l-87 -101h-69l-86 101h68zM147 0v629h-129v71h336v-71h-129v-629h-78z" />
    <glyph glyph-name="Tbar" unicode="&#x166;" horiz-adv-x="372" 
d="M296 476v-58h-71v-418h-78v418h-71v58h71v153h-129v71h336v-71h-129v-153h71z" />
    <glyph glyph-name="tbar" unicode="&#x167;" horiz-adv-x="372" 
d="M296 476v-58h-71v-418h-78v418h-71v58h71v153h-129v71h336v-71h-129v-153h71z" />
    <glyph glyph-name="Utilde" unicode="&#x168;" 
d="M317 802c-8 -20 -18.167 -34.5029 -30.5 -43.5029s-26.166 -13.5 -41.499 -13.5c-10 0 -18.833 1.5 -26.5 4.5s-15 6.33301 -22 10s-13.833 7 -20.5 10s-14 4.5 -22 4.5c-9.33301 0 -17.333 -2.16699 -24 -6.5s-12.667 -12.166 -18 -23.499l-39 27
c8 20.667 18.333 35.334 31 44.001s26.667 13.334 42 14.001c10 0 19 -1.5 27 -4.5s15.5 -6.5 22.5 -10.5s14 -7.5 21 -10.5s14.167 -4.5 21.5 -4.5c8.66699 0.666992 16.167 3.16699 22.5 7.5s12.166 11.833 17.499 22.5zM350 168.997
c0 -53.333 -12.668 -96.166 -38.001 -128.499s-65 -48.5 -119 -48.5c-53.333 0 -92.666 16.167 -117.999 48.5s-38 75.166 -38 128.499v531h77v-535c0 -32 6.5 -56.833 19.5 -74.5s33.833 -26.5 62.5 -26.5c28 0 48.5 8.83301 61.5 26.5s19.5 42.5 19.5 74.5v535h73v-531z
" />
    <glyph glyph-name="utilde" unicode="&#x169;" 
d="M317 802c-8 -20 -18.167 -34.5029 -30.5 -43.5029s-26.166 -13.5 -41.499 -13.5c-10 0 -18.833 1.5 -26.5 4.5s-15 6.33301 -22 10s-13.833 7 -20.5 10s-14 4.5 -22 4.5c-9.33301 0 -17.333 -2.16699 -24 -6.5s-12.667 -12.166 -18 -23.499l-39 27
c8 20.667 18.333 35.334 31 44.001s26.667 13.334 42 14.001c10 0 19 -1.5 27 -4.5s15.5 -6.5 22.5 -10.5s14 -7.5 21 -10.5s14.167 -4.5 21.5 -4.5c8.66699 0.666992 16.167 3.16699 22.5 7.5s12.166 11.833 17.499 22.5zM350 168.997
c0 -53.333 -12.668 -96.166 -38.001 -128.499s-65 -48.5 -119 -48.5c-53.333 0 -92.666 16.167 -117.999 48.5s-38 75.166 -38 128.499v531h77v-535c0 -32 6.5 -56.833 19.5 -74.5s33.833 -26.5 62.5 -26.5c28 0 48.5 8.83301 61.5 26.5s19.5 42.5 19.5 74.5v535h73v-531z
" />
    <glyph glyph-name="Umacron" unicode="&#x16a;" 
d="M298 806v-56h-205v56h205zM350 169c0 -53.333 -12.668 -96.166 -38.001 -128.499s-65 -48.5 -119 -48.5c-53.333 0 -92.666 16.167 -117.999 48.5s-38 75.166 -38 128.499v531h77v-535c0 -32 6.5 -56.833 19.5 -74.5s33.833 -26.5 62.5 -26.5
c28 0 48.5 8.83301 61.5 26.5s19.5 42.5 19.5 74.5v535h73v-531z" />
    <glyph glyph-name="umacron" unicode="&#x16b;" 
d="M298 806v-56h-205v56h205zM350 169c0 -53.333 -12.668 -96.166 -38.001 -128.499s-65 -48.5 -119 -48.5c-53.333 0 -92.666 16.167 -117.999 48.5s-38 75.166 -38 128.499v531h77v-535c0 -32 6.5 -56.833 19.5 -74.5s33.833 -26.5 62.5 -26.5
c28 0 48.5 8.83301 61.5 26.5s19.5 42.5 19.5 74.5v535h73v-531z" />
    <glyph glyph-name="Ubreve" unicode="&#x16c;" 
d="M299 838c-0.666992 -32 -10.166 -57 -28.499 -75s-43.833 -27 -76.5 -27s-58 9 -76 27s-27.333 43 -28 75h47c1.33301 -20 7.16602 -33.833 17.499 -41.5s23.5 -11.5 39.5 -11.5s29.333 3.83301 40 11.5s16.667 21.5 18 41.5h47zM350.001 169
c0 -53.333 -12.668 -96.166 -38.001 -128.499s-65 -48.5 -119 -48.5c-53.333 0 -92.666 16.167 -117.999 48.5s-38 75.166 -38 128.499v531h77v-535c0 -32 6.5 -56.833 19.5 -74.5s33.833 -26.5 62.5 -26.5c28 0 48.5 8.83301 61.5 26.5s19.5 42.5 19.5 74.5v535h73v-531z
" />
    <glyph glyph-name="ubreve" unicode="&#x16d;" 
d="M299 838c-0.666992 -32 -10.166 -57 -28.499 -75s-43.833 -27 -76.5 -27s-58 9 -76 27s-27.333 43 -28 75h47c1.33301 -20 7.16602 -33.833 17.499 -41.5s23.5 -11.5 39.5 -11.5s29.333 3.83301 40 11.5s16.667 21.5 18 41.5h47zM350.001 169
c0 -53.333 -12.668 -96.166 -38.001 -128.499s-65 -48.5 -119 -48.5c-53.333 0 -92.666 16.167 -117.999 48.5s-38 75.166 -38 128.499v531h77v-535c0 -32 6.5 -56.833 19.5 -74.5s33.833 -26.5 62.5 -26.5c28 0 48.5 8.83301 61.5 26.5s19.5 42.5 19.5 74.5v535h73v-531z
" />
    <glyph glyph-name="Uring" unicode="&#x16e;" 
d="M196 881c20.667 0 38.167 -7 52.5 -21s21.5 -31.333 21.5 -52s-7.16699 -38 -21.5 -52s-31.833 -21 -52.5 -21s-38 7 -52 21s-21 31.333 -21 52s7 38 21 52s31.333 21 52 21zM196 844c-10 0 -18.5 -3.33301 -25.5 -10s-10.5 -15.334 -10.5 -26.001
s3.5 -19.334 10.5 -26.001s15.5 -10 25.5 -10s18.667 3.33301 26 10s11 15.334 11 26.001s-3.66699 19.334 -11 26.001s-16 10 -26 10zM350 169c0 -53.333 -12.668 -96.166 -38.001 -128.499s-65 -48.5 -119 -48.5c-53.333 0 -92.666 16.167 -117.999 48.5
s-38 75.166 -38 128.499v531h77v-535c0 -32 6.5 -56.833 19.5 -74.5s33.833 -26.5 62.5 -26.5c28 0 48.5 8.83301 61.5 26.5s19.5 42.5 19.5 74.5v535h73v-531z" />
    <glyph glyph-name="uring" unicode="&#x16f;" 
d="M196 881c20.667 0 38.167 -7 52.5 -21s21.5 -31.333 21.5 -52s-7.16699 -38 -21.5 -52s-31.833 -21 -52.5 -21s-38 7 -52 21s-21 31.333 -21 52s7 38 21 52s31.333 21 52 21zM196 844c-10 0 -18.5 -3.33301 -25.5 -10s-10.5 -15.334 -10.5 -26.001
s3.5 -19.334 10.5 -26.001s15.5 -10 25.5 -10s18.667 3.33301 26 10s11 15.334 11 26.001s-3.66699 19.334 -11 26.001s-16 10 -26 10zM350 169c0 -53.333 -12.668 -96.166 -38.001 -128.499s-65 -48.5 -119 -48.5c-53.333 0 -92.666 16.167 -117.999 48.5
s-38 75.166 -38 128.499v531h77v-535c0 -32 6.5 -56.833 19.5 -74.5s33.833 -26.5 62.5 -26.5c28 0 48.5 8.83301 61.5 26.5s19.5 42.5 19.5 74.5v535h73v-531z" />
    <glyph glyph-name="Uhungarumlaut" unicode="&#x170;" 
d="M229 844l-80 -103h-49l57 103h72zM337 844l-81 -103h-48l56 103h73zM350 169c0 -53.333 -12.668 -96.166 -38.001 -128.499s-65 -48.5 -119 -48.5c-53.333 0 -92.666 16.167 -117.999 48.5s-38 75.166 -38 128.499v531h77v-535c0 -32 6.5 -56.833 19.5 -74.5
s33.833 -26.5 62.5 -26.5c28 0 48.5 8.83301 61.5 26.5s19.5 42.5 19.5 74.5v535h73v-531z" />
    <glyph glyph-name="uhungarumlaut" unicode="&#x171;" 
d="M229 844l-80 -103h-49l57 103h72zM337 844l-81 -103h-48l56 103h73zM350 169c0 -53.333 -12.668 -96.166 -38.001 -128.499s-65 -48.5 -119 -48.5c-53.333 0 -92.666 16.167 -117.999 48.5s-38 75.166 -38 128.499v531h77v-535c0 -32 6.5 -56.833 19.5 -74.5
s33.833 -26.5 62.5 -26.5c28 0 48.5 8.83301 61.5 26.5s19.5 42.5 19.5 74.5v535h73v-531z" />
    <glyph glyph-name="Uogonek" unicode="&#x172;" 
d="M350 169c0 -16.667 -1.00098 -32.8291 -3.00098 -48.4961s-5.83301 -30.667 -11.5 -45s-13.334 -27.5 -23.001 -39.5s-22.167 -22.333 -37.5 -31c-13.333 -10.667 -23.333 -23.167 -30 -37.5s-9.66699 -26.5 -9 -36.5c0 -10.667 3.83301 -18.334 11.5 -23.001
s16.167 -7 25.5 -7s17 0.833008 23 2.5s11.667 3.83398 17 6.50098v-41c-10 -4.66699 -19.667 -7.83398 -29 -9.50098s-20.333 -2.5 -33 -2.5c-22 0 -40 4.5 -54 13.5s-21 23.167 -21 42.5c-0.666992 15.333 3.83301 30.166 13.5 44.499s22.834 27.166 39.501 38.499
c-10 -2.66699 -22 -4 -36 -4c-53.333 0 -92.666 16.167 -117.999 48.5s-38 75.166 -38 128.499v531h77v-535c0 -32 6.5 -56.833 19.5 -74.5s33.833 -26.5 62.5 -26.5c28 0 48.5 8.83301 61.5 26.5s19.5 42.5 19.5 74.5v535h73v-531z" />
    <glyph glyph-name="uogonek" unicode="&#x173;" 
d="M350 169c0 -16.667 -1.00098 -32.8291 -3.00098 -48.4961s-5.83301 -30.667 -11.5 -45s-13.334 -27.5 -23.001 -39.5s-22.167 -22.333 -37.5 -31c-13.333 -10.667 -23.333 -23.167 -30 -37.5s-9.66699 -26.5 -9 -36.5c0 -10.667 3.83301 -18.334 11.5 -23.001
s16.167 -7 25.5 -7s17 0.833008 23 2.5s11.667 3.83398 17 6.50098v-41c-10 -4.66699 -19.667 -7.83398 -29 -9.50098s-20.333 -2.5 -33 -2.5c-22 0 -40 4.5 -54 13.5s-21 23.167 -21 42.5c-0.666992 15.333 3.83301 30.166 13.5 44.499s22.834 27.166 39.501 38.499
c-10 -2.66699 -22 -4 -36 -4c-53.333 0 -92.666 16.167 -117.999 48.5s-38 75.166 -38 128.499v531h77v-535c0 -32 6.5 -56.833 19.5 -74.5s33.833 -26.5 62.5 -26.5c28 0 48.5 8.83301 61.5 26.5s19.5 42.5 19.5 74.5v535h73v-531z" />
    <glyph glyph-name="Wcircumflex" unicode="&#x174;" horiz-adv-x="583" 
d="M240 740h-68l86 101h69l87 -101h-68l-53 59zM226 0h-107l-96 700h76l82 -596l78 595h77l77 -596l79 597h68l-95 -700h-103l-67 475z" />
    <glyph glyph-name="wcircumflex" unicode="&#x175;" horiz-adv-x="583" 
d="M240 740h-68l86 101h69l87 -101h-68l-53 59zM226 0h-107l-96 700h76l82 -596l78 595h77l77 -596l79 597h68l-95 -700h-103l-67 475z" />
    <glyph glyph-name="Ycircumflex" unicode="&#x176;" horiz-adv-x="406" 
d="M153 740h-68l86 100h69l87 -100h-68l-53 59zM164 251l-148 449h81l109 -344l110 344h74l-149 -449v-251h-77v251z" />
    <glyph glyph-name="ycircumflex" unicode="&#x177;" horiz-adv-x="406" 
d="M153 740h-68l86 100h69l87 -100h-68l-53 59zM164 251l-148 449h81l109 -344l110 344h74l-149 -449v-251h-77v251z" />
    <glyph glyph-name="Ydieresis" unicode="&#x178;" horiz-adv-x="406" 
d="M177 829v-90h-68v90h68zM301 829v-90h-68v90h68zM164 251l-148 449h81l109 -344l110 344h74l-149 -449v-251h-77v251z" />
    <glyph glyph-name="Zacute" unicode="&#x179;" horiz-adv-x="379" 
d="M297 845l-93 -103h-54l69 103h78zM347 0h-318v70l240 559h-229v71h309v-70l-241 -559h239v-71z" />
    <glyph glyph-name="zacute" unicode="&#x17a;" horiz-adv-x="379" 
d="M297 845l-93 -103h-54l69 103h78zM347 0h-318v70l240 559h-229v71h309v-70l-241 -559h239v-71z" />
    <glyph glyph-name="Zdotaccent" unicode="&#x17b;" horiz-adv-x="379" 
d="M231 832v-90h-68v90h68zM347 0h-318v70l240 559h-229v71h309v-70l-241 -559h239v-71z" />
    <glyph glyph-name="zdotaccent" unicode="&#x17c;" horiz-adv-x="379" 
d="M231 832v-90h-68v90h68zM347 0h-318v70l240 559h-229v71h309v-70l-241 -559h239v-71z" />
    <glyph glyph-name="Zcaron" unicode="&#x17d;" horiz-adv-x="379" 
d="M141 842l52 -60l54 60h68l-87 -101h-69l-86 101h68zM347 0h-318v70l240 559h-229v71h309v-70l-241 -559h239v-71z" />
    <glyph glyph-name="zcaron" unicode="&#x17e;" horiz-adv-x="379" 
d="M141 842l52 -60l54 60h68l-87 -101h-69l-86 101h68zM347 0h-318v70l240 559h-229v71h309v-70l-241 -559h239v-71z" />
    <glyph glyph-name="AEacute" unicode="&#x1fc;" horiz-adv-x="585" 
d="M410 844l-93 -103h-54l70 103h77zM516 390v-70h-161v-249h198v-71h-275v142h-143l-45 -142h-74l218 700h319v-71h-198v-239h161zM153 210h125v392z" />
    <glyph glyph-name="aeacute" unicode="&#x1fd;" horiz-adv-x="585" 
d="M410 844l-93 -103h-54l70 103h77zM516 390v-70h-161v-249h198v-71h-275v142h-143l-45 -142h-74l218 700h319v-71h-198v-239h161zM153 210h125v392z" />
    <glyph glyph-name="Oslashacute" unicode="&#x1fe;" horiz-adv-x="389" 
d="M219 845h78l-93 -103h-55zM325 646c20 -30 30 -68.333 30 -115v-362c0 -53.333 -13.333 -96 -40 -128s-67 -48 -121 -48c-42 0 -76 10.333 -102 31l-19 -50l-34 13l25 67c-20 30 -30 68.333 -30 115v362c0 54 13.167 96.833 39.5 128.5s66.5 47.5 120.5 47.5
c42 0 76.333 -10.333 103 -31l18 49l35 -13zM266 594c-13.333 28 -37.333 42 -72 42c-28 0 -48.833 -8.83301 -62.5 -26.5s-20.5 -42.5 -20.5 -74.5v-355zM194 64c28.667 0 49.667 8.83301 63 26.5s20 42.5 20 74.5v353l-155 -413c13.333 -27.333 37.333 -41 72 -41z" />
    <glyph glyph-name="oslashacute" unicode="&#x1ff;" horiz-adv-x="389" 
d="M219 845h78l-93 -103h-55zM325 646c20 -30 30 -68.333 30 -115v-362c0 -53.333 -13.333 -96 -40 -128s-67 -48 -121 -48c-42 0 -76 10.333 -102 31l-19 -50l-34 13l25 67c-20 30 -30 68.333 -30 115v362c0 54 13.167 96.833 39.5 128.5s66.5 47.5 120.5 47.5
c42 0 76.333 -10.333 103 -31l18 49l35 -13zM266 594c-13.333 28 -37.333 42 -72 42c-28 0 -48.833 -8.83301 -62.5 -26.5s-20.5 -42.5 -20.5 -74.5v-355zM194 64c28.667 0 49.667 8.83301 63 26.5s20 42.5 20 74.5v353l-155 -413c13.333 -27.333 37.333 -41 72 -41z" />
    <glyph glyph-name="uni0218" unicode="&#x218;" horiz-adv-x="372" 
d="M187 707c53.333 0 92.6689 -15.835 118.002 -47.502s38 -74.167 38 -127.5v-19h-74v23c0 32 -6.33301 56.667 -19 74s-33 26 -61 26s-48.333 -8.66699 -61 -26s-19 -41.666 -19 -72.999c0 -26 5.83301 -48.667 17.5 -68s26.167 -37.166 43.5 -53.499
s36.166 -32.333 56.499 -48s39.166 -32.834 56.499 -51.501s31.833 -39.834 43.5 -63.501s17.5 -51.834 17.5 -84.501c0 -53.333 -12.833 -95.833 -38.5 -127.5s-65.5 -47.5 -119.5 -47.5s-93.667 15.833 -119 47.5s-38 74.167 -38 127.5v40h73v-44
c0 -32 6.66699 -56.667 20 -74s34 -26 62 -26s48.667 8.66699 62 26s20 42 20 74c0 26 -5.83301 48.5 -17.5 67.5s-26.167 36.667 -43.5 53s-36 32.333 -56 48s-38.667 32.834 -56 51.501s-31.833 39.834 -43.5 63.501s-17.5 51.834 -17.5 84.501c0 54 12.667 96.667 38 128
s64.333 47 117 47zM176.003 -121.002h-25v88h66v-81l-35 -63h-29z" />
    <glyph glyph-name="uni0219" unicode="&#x219;" horiz-adv-x="372" 
d="M187 707c53.333 0 92.6689 -15.835 118.002 -47.502s38 -74.167 38 -127.5v-19h-74v23c0 32 -6.33301 56.667 -19 74s-33 26 -61 26s-48.333 -8.66699 -61 -26s-19 -41.666 -19 -72.999c0 -26 5.83301 -48.667 17.5 -68s26.167 -37.166 43.5 -53.499
s36.166 -32.333 56.499 -48s39.166 -32.834 56.499 -51.501s31.833 -39.834 43.5 -63.501s17.5 -51.834 17.5 -84.501c0 -53.333 -12.833 -95.833 -38.5 -127.5s-65.5 -47.5 -119.5 -47.5s-93.667 15.833 -119 47.5s-38 74.167 -38 127.5v40h73v-44
c0 -32 6.66699 -56.667 20 -74s34 -26 62 -26s48.667 8.66699 62 26s20 42 20 74c0 26 -5.83301 48.5 -17.5 67.5s-26.167 36.667 -43.5 53s-36 32.333 -56 48s-38.667 32.834 -56 51.501s-31.833 39.834 -43.5 63.501s-17.5 51.834 -17.5 84.501c0 54 12.667 96.667 38 128
s64.333 47 117 47zM176.003 -121.002h-25v88h66v-81l-35 -63h-29z" />
    <glyph glyph-name="uni021A" unicode="&#x21a;" horiz-adv-x="372" 
d="M147 0v629h-129v71h336v-71h-129v-629h-78zM178 -121h-25v88h66v-81l-35 -63h-29z" />
    <glyph glyph-name="uni021B" unicode="&#x21b;" horiz-adv-x="372" 
d="M147 0v629h-129v71h336v-71h-129v-629h-78zM178 -121h-25v88h66v-81l-35 -63h-29z" />
    <glyph glyph-name="uni0237" unicode="&#x237;" horiz-adv-x="255" 
d="M20 71c6.66699 -0.666992 13.3311 -0.996094 19.998 -0.996094h19c25.333 1.33301 45.333 9.16602 60 23.499s22 39.166 22 74.499v532h77v-527c0 -32.667 -3.83301 -60 -11.5 -82s-18.167 -39.833 -31.5 -53.5s-29.166 -23.334 -47.499 -29.001
s-37.833 -8.83398 -58.5 -9.50098c-9.33301 0 -17.666 -0.166992 -24.999 -0.5s-15.333 0.166992 -24 1.5v71z" />
    <glyph glyph-name="uni02BC" unicode="&#x2bc;" horiz-adv-x="160" 
d="M81 515h-32l25 88h-29v97h75v-89z" />
    <glyph glyph-name="circumflex" unicode="&#x2c6;" horiz-adv-x="250" 
d="M72 748h-68l87 100h69l86 -100h-68l-53 59z" />
    <glyph glyph-name="caron" unicode="&#x2c7;" horiz-adv-x="250" 
d="M72 848l53 -60l53 60h68l-86 -100h-69l-87 100h68z" />
    <glyph glyph-name="breve" unicode="&#x2d8;" horiz-adv-x="252" 
d="M231 834c-0.666992 -31.333 -10.1631 -56 -28.4961 -74s-44.166 -27 -77.499 -27c-32.667 0 -57.834 9 -75.501 27s-26.834 42.667 -27.501 74h47c1.33301 -19.333 7.16602 -32.833 17.499 -40.5s23.166 -11.5 38.499 -11.5c16.667 0 30.167 3.83301 40.5 11.5
s16.166 21.167 17.499 40.5h48z" />
    <glyph glyph-name="dotaccent" unicode="&#x2d9;" horiz-adv-x="198" 
d="M133 833v-90h-68v90h68z" />
    <glyph glyph-name="ring" unicode="&#x2da;" horiz-adv-x="234" 
d="M117 887c20.667 0 38 -7 52 -21s21 -31.333 21 -52s-7 -38 -21 -52s-31.333 -21 -52 -21s-38.167 7 -52.5 21s-21.5 31.333 -21.5 52s7.16699 38 21.5 52s31.833 21 52.5 21zM117 850c-10.667 0 -19.5 -3.33301 -26.5 -10s-10.5 -15.334 -10.5 -26.001
s3.5 -19.334 10.5 -26.001s15.833 -10 26.5 -10c10 0 18.5 3.33301 25.5 10s10.5 15.334 10.5 26.001s-3.5 19.334 -10.5 26.001s-15.5 10 -25.5 10z" />
    <glyph glyph-name="ogonek" unicode="&#x2db;" horiz-adv-x="227" 
d="M145 3c-14 -10.667 -24.333 -22.833 -31 -36.5s-9.66699 -25.5 -9 -35.5c0 -10.667 3.83301 -18.334 11.5 -23.001s16.167 -7 25.5 -7s17 0.833008 23 2.5s11.667 3.83398 17 6.50098v-41c-10 -4.66699 -19.833 -7.83398 -29.5 -9.50098s-20.5 -2.5 -32.5 -2.5
c-22 0 -40 4.5 -54 13.5s-21 23.167 -21 42.5c-0.666992 16.667 4.83301 32.834 16.5 48.501s28.167 29.5 49.5 41.5h34z" />
    <glyph glyph-name="tilde" unicode="&#x2dc;" horiz-adv-x="256" 
d="M250 802c-7.33301 -20 -17.168 -34.667 -29.501 -44s-26.166 -14 -41.499 -14c-10 0 -18.833 1.5 -26.5 4.5s-15.167 6.33301 -22.5 10s-14.333 7 -21 10s-14 4.5 -22 4.5c-9.33301 0 -17.333 -2 -24 -6s-12.667 -11.667 -18 -23l-39 26
c8.66699 20.667 19.334 35.5 32.001 44.5s26.667 13.5 42 13.5c10 0 19 -1.5 27 -4.5s15.5 -6.33301 22.5 -10s14 -7 21 -10s14.167 -4.5 21.5 -4.5c8.66699 0 16.167 2.16699 22.5 6.5s12.166 11.833 17.499 22.5z" />
    <glyph glyph-name="hungarumlaut" unicode="&#x2dd;" horiz-adv-x="242" 
d="M126 848l-80 -103h-50l58 103h72zM233 848l-80 -103h-49l57 103h72z" />
    <glyph glyph-name="uni0401" unicode="&#x401;" horiz-adv-x="360" 
d="M155 831v-90h-68v90h68zM280 831v-90h-69v90h69zM289 390v-70h-171v-249h210v-71h-288v700h288v-71h-210v-239h171z" />
    <glyph glyph-name="uni0410" unicode="&#x410;" horiz-adv-x="422" 
d="M119 141l-27 -141h-72l134 700h113l134 -700h-78l-27 141h-177zM129 208h156l-79 404z" />
    <glyph glyph-name="uni0411" unicode="&#x411;" horiz-adv-x="401" 
d="M200 411c54.667 0 95.833 -13.167 123.5 -39.5s41.5 -67.833 41.5 -124.5v-77c0 -54.667 -13 -96.667 -39 -126s-66.667 -44 -122 -44h-163v700h295v-71h-218v-218h82zM203.999 71c28.667 0 49.668 7.5 63.001 22.5s20 38.833 20 71.5v87c0 34 -7.33301 57.333 -22 70
s-36.334 19 -65.001 19h-82v-270h86z" />
    <glyph glyph-name="uni0412" unicode="&#x412;" horiz-adv-x="392" 
d="M197 700c54.667 0 93.667 -12.833 117 -38.5s35 -64.5 35 -116.5v-33c0 -37.333 -6 -67.5 -18 -90.5s-33.333 -39.167 -64 -48.5c34 -9.33301 58.167 -27 72.5 -53s21.5 -58.333 21.5 -97v-59c0 -52.667 -13 -93.167 -39 -121.5s-66.333 -42.5 -121 -42.5h-161v700h157z
M178 403c31.333 0 54.833 6.33203 70.5 18.999s23.5 37.334 23.5 74.001v41c0 31.333 -5.83301 54.5 -17.5 69.5s-31.5 22.5 -59.5 22.5h-77v-226h60zM201 70.999c55.333 0 83 31.667 83 95v62c0 39.333 -7.83301 66.5 -23.5 81.5s-40.5 22.5 -74.5 22.5h-68v-261h83z" />
    <glyph glyph-name="uni0413" unicode="&#x413;" horiz-adv-x="356" 
d="M118 629v-629h-77v700h279v-71h-202z" />
    <glyph glyph-name="uni0414" unicode="&#x414;" horiz-adv-x="489" 
d="M385 -96v96h-286v-96h-75v165h45c12 13.333 19.833 28.333 23.5 45s6.16699 35.667 7.5 57l27 529h281v-631h53v-165h-76zM176 172c-1.33301 -25.333 -4.16797 -46 -8.50098 -62s-12.166 -29.667 -23.499 -41h185v560h-130z" />
    <glyph glyph-name="uni0415" unicode="&#x415;" horiz-adv-x="360" 
d="M289 390v-70h-171v-249h210v-71h-288v700h288v-71h-210v-239h171z" />
    <glyph glyph-name="uni0416" unicode="&#x416;" horiz-adv-x="613" 
d="M382 330l-37 -66v-264h-77v264l-36 67l-134 -331h-80l160 403l-156 297h78l168 -322v322h77v-322l169 322h78l-155 -295l159 -405h-80z" />
    <glyph glyph-name="uni0417" unicode="&#x417;" 
d="M193 707c54 0 93.833 -16.002 119.5 -48.002s38.5 -74.667 38.5 -128v-18c0 -36 -7.16699 -66.5 -21.5 -91.5s-35.833 -42.833 -64.5 -53.5c30 -10 51.833 -27.667 65.5 -53s20.5 -55.666 20.5 -90.999v-55c0 -53.333 -12.833 -96 -38.5 -128s-65.5 -48 -119.5 -48
c-53.333 0 -92.833 16 -118.5 48s-38.5 74.667 -38.5 128v68h73v-72c0 -32 6.66699 -56.833 20 -74.5s34 -26.5 62 -26.5c28.667 0 49.5 9 62.5 27s19.5 44.667 19.5 80v55c0 69.333 -30 104 -90 104h-33v70h37c26 0 46.833 8.33301 62.5 25s23.5 40.334 23.5 71.001v32
c0 36 -6.5 63 -19.5 81s-33.833 27 -62.5 27c-28 0 -48.667 -8.83301 -62 -26.5s-20 -42.5 -20 -74.5v-47h-72v44c0 54 12.5 96.667 37.5 128s64.5 47 118.5 47z" />
    <glyph glyph-name="uni0418" unicode="&#x418;" horiz-adv-x="409" 
d="M225 325l-104 -325h-81v700h69v-522l72 221l102 301h87v-700h-70v557z" />
    <glyph glyph-name="uni0419" unicode="&#x419;" horiz-adv-x="410" 
d="M317 844c0 -30.667 -9.50195 -54.667 -28.502 -72s-45.5 -26 -79.5 -26s-60.167 8.66699 -78.5 26s-28.166 41.333 -29.499 72h49c1.33301 -19.333 7.33301 -32.666 18 -39.999s24.334 -11 41.001 -11s30.5 3.66699 41.5 11s17.167 20.666 18.5 39.999h48zM226.998 331
l-106 -331h-81v700h69v-522l66 205l108 317h87v-700h-70v557z" />
    <glyph glyph-name="uni041A" unicode="&#x41a;" horiz-adv-x="409" 
d="M159 304l-41 -69v-235h-78v700h78v-338l186 338h79l-177 -319l183 -381h-80z" />
    <glyph glyph-name="uni041B" unicode="&#x41b;" horiz-adv-x="444" 
d="M189 629l-15.9971 -455.001c-1.33301 -28 -4.33301 -52.667 -9 -74s-12.334 -39.5 -23.001 -54.5s-24.834 -26.5 -42.501 -34.5s-39.834 -12 -66.501 -12h-13v71c16 0 29 2 39 6s17.833 10.167 23.5 18.5s9.5 18.833 11.5 31.5s3.33301 27.334 4 44.001l19 530h285v-700
h-78v629h-134z" />
    <glyph glyph-name="uni041C" unicode="&#x41c;" horiz-adv-x="523" 
d="M298 1h-75l-116 557v-558h-68v700h109l115 -559l111 559h109v-700h-74v563z" />
    <glyph glyph-name="uni041D" unicode="&#x41d;" horiz-adv-x="408" 
d="M118 315v-315h-78v700h78v-315h172v315h78v-700h-78v315h-172z" />
    <glyph glyph-name="uni041E" unicode="&#x41e;" horiz-adv-x="389" 
d="M34 531c0 54 13.167 96.833 39.5 128.5s66.5 47.5 120.5 47.5s94.333 -15.833 121 -47.5s40 -74.5 40 -128.5v-362c0 -53.333 -13.333 -96 -40 -128s-67 -48 -121 -48s-94.167 16 -120.5 48s-39.5 74.667 -39.5 128v362zM111 165c0 -32 6.83301 -56.833 20.5 -74.5
s34.5 -26.5 62.5 -26.5c28.667 0 49.667 8.83301 63 26.5s20 42.5 20 74.5v370c0 32 -6.66699 56.833 -20 74.5s-34.333 26.5 -63 26.5c-28 0 -48.833 -8.83301 -62.5 -26.5s-20.5 -42.5 -20.5 -74.5v-370z" />
    <glyph glyph-name="uni041F" unicode="&#x41f;" horiz-adv-x="408" 
d="M118 629v-629h-78v700h328v-700h-78v629h-172z" />
    <glyph glyph-name="uni0420" unicode="&#x420;" horiz-adv-x="371" 
d="M193 700c55.333 0 95.333 -15.168 120 -45.501s37 -72.166 37 -125.499v-84c0 -56 -13.167 -98.167 -39.5 -126.5s-67.5 -42.5 -123.5 -42.5h-69v-276h-78v700h153zM187 345.999c29.333 0 51 7.16699 65 21.5s21 38.5 21 72.5v93c0 32 -6.16699 56 -18.5 72
s-32.833 24 -61.5 24h-75v-283h69z" />
    <glyph glyph-name="uni0421" unicode="&#x421;" horiz-adv-x="380" 
d="M191 707c54 0 93.832 -16 119.499 -48s38.5 -74.667 38.5 -128v-63h-74v67c0 32 -6.5 56.833 -19.5 74.5s-33.833 26.5 -62.5 26.5c-28 0 -48.667 -8.83301 -62 -26.5s-20 -42.5 -20 -74.5v-370c0 -32 6.66699 -56.833 20 -74.5s34 -26.5 62 -26.5
c28.667 0 49.5 8.83301 62.5 26.5s19.5 42.5 19.5 74.5v91h74v-87c0 -53.333 -12.833 -96 -38.5 -128s-65.5 -48 -119.5 -48c-53.333 0 -92.833 16 -118.5 48s-38.5 74.667 -38.5 128v362c0 26.667 3.16699 50.834 9.5 72.501s16 40.167 29 55.5s29.333 27.166 49 35.499
s42.834 12.5 69.501 12.5z" />
    <glyph glyph-name="uni0422" unicode="&#x422;" horiz-adv-x="372" 
d="M147 0v629h-129v71h336v-71h-129v-629h-78z" />
    <glyph glyph-name="uni0423" unicode="&#x423;" horiz-adv-x="417" 
d="M250 154c-6 -26 -13.167 -49 -21.5 -69s-19.5 -36.667 -33.5 -50s-31.5 -23 -52.5 -29s-47.5 -8.33301 -79.5 -7v70c30 -1.33301 52.5 3.16699 67.5 13.5s25.833 28.833 32.5 55.5l16 46l-161 516h78l71 -243l48 -176l41 176l63 243h81z" />
    <glyph glyph-name="uni0424" unicode="&#x424;" horiz-adv-x="569" 
d="M371 618c56.667 0 97.834 -15.167 123.501 -45.5s38.5 -73.5 38.5 -129.5v-191c0 -56 -12.833 -99.167 -38.5 -129.5s-66.834 -45.5 -123.501 -45.5h-49v-77h-77v77h-49c-56.667 0 -97.834 15.167 -123.501 45.5s-38.5 73.5 -38.5 129.5v191
c0 56 12.833 99.167 38.5 129.5s66.834 45.5 123.501 45.5h49v82h77v-82h49zM196 549c-30 0 -51.667 -8.33301 -65 -25s-20 -42 -20 -76v-201c0 -34 6.66699 -59.5 20 -76.5s35 -25.5 65 -25.5h49v404h-49zM371 145c57.333 0 86 34 86 102v201
c0 34 -6.83301 59.333 -20.5 76s-35.5 25 -65.5 25h-49v-404h49z" />
    <glyph glyph-name="uni0425" unicode="&#x425;" horiz-adv-x="435" 
d="M214 302l-117 -302h-74l141 361l-132 339h81l108 -280l109 280h73l-131 -339l140 -361h-82z" />
    <glyph glyph-name="uni0426" unicode="&#x426;" horiz-adv-x="455" 
d="M352 -94v94h-305v700h77v-629h172v629h79v-631h53v-163h-76z" />
    <glyph glyph-name="uni0427" unicode="&#x427;" horiz-adv-x="401" 
d="M283 310c-12.667 -18 -28.668 -31.666 -48.001 -40.999s-39.666 -14 -60.999 -14c-23.333 0 -43.833 4.16699 -61.5 12.5s-32.167 20 -43.5 35s-19.833 32.667 -25.5 53s-8.5 42.166 -8.5 65.499v279h78v-273c0 -30 7.33301 -54.333 22 -73s36 -28 64 -28
c48 0 76 27.333 84 82v292h77v-700h-77v310z" />
    <glyph glyph-name="uni0428" unicode="&#x428;" horiz-adv-x="581" 
d="M118 700v-629h134v629h78v-629h134v629h77v-700h-501v700h78z" />
    <glyph glyph-name="uni0429" unicode="&#x429;" horiz-adv-x="622" 
d="M520 -94v94h-480v700h78v-629h134v629h77v-629h135v629h77v-631h54v-163h-75z" />
    <glyph glyph-name="uni042A" unicode="&#x42a;" horiz-adv-x="438" 
d="M245 424c108.667 0 163 -56.334 163 -169.001v-84c0 -53.333 -12.5 -95.166 -37.5 -125.499s-64.833 -45.5 -119.5 -45.5h-153v630h-88v70h165v-276h70zM251 70.999c28.667 0 49 8 61 24s18 40 18 72v93c0 34 -6.83301 58.167 -20.5 72.5s-35.167 21.5 -64.5 21.5h-70
v-283h76z" />
    <glyph glyph-name="uni042B" unicode="&#x42b;" horiz-adv-x="532" 
d="M187 424c56 0 97.167 -14.168 123.5 -42.501s39.5 -70.5 39.5 -126.5v-84c0 -53.333 -12.5 -95.166 -37.5 -125.499s-64.833 -45.5 -119.5 -45.5h-153v700h78v-276h69zM492 699.999v-700h-77v700h77zM193 70.999c28.667 0 49.167 8 61.5 24s18.5 40 18.5 72v93
c0 34 -7 58.167 -21 72.5s-35.667 21.5 -65 21.5h-69v-283h75z" />
    <glyph glyph-name="uni042C" unicode="&#x42c;" horiz-adv-x="381" 
d="M187 424c56 0 97.167 -14.168 123.5 -42.501s39.5 -70.5 39.5 -126.5v-84c0 -53.333 -12.5 -95.166 -37.5 -125.499s-64.833 -45.5 -119.5 -45.5h-153v700h78v-276h69zM193 70.999c28.667 0 49.167 8 61.5 24s18.5 40 18.5 72v93c0 34 -7 58.167 -21 72.5
s-35.667 21.5 -65 21.5h-69v-283h75z" />
    <glyph glyph-name="uni042D" unicode="&#x42d;" horiz-adv-x="380" 
d="M188 707c26.667 0 49.8311 -4.16699 69.498 -12.5s36 -20.166 49 -35.499s22.667 -33.833 29 -55.5s9.5 -45.834 9.5 -72.501v-362c0 -53.333 -12.833 -96 -38.5 -128s-65.167 -48 -118.5 -48s-92.833 16 -118.5 48s-38.5 74.667 -38.5 128v76h73v-80
c0 -32 6.66699 -56.833 20 -74.5s34 -26.5 62 -26.5s48.667 8.83301 62 26.5s20 42.5 20 74.5v162h-122v70h122v138c0 32 -6.66699 56.833 -20 74.5s-34 26.5 -62 26.5s-48.667 -8.83301 -62 -26.5s-20 -42.5 -20 -74.5v-56h-72v52c0 26.667 3.16699 50.834 9.5 72.501
s15.833 40.167 28.5 55.5s28.834 27.166 48.501 35.499s42.834 12.5 69.501 12.5z" />
    <glyph glyph-name="uni042E" unicode="&#x42e;" horiz-adv-x="575" 
d="M380 707c54 0 94.167 -15.833 120.5 -47.5s39.5 -74.5 39.5 -128.5v-362c0 -53.333 -13.167 -96 -39.5 -128s-66.5 -48 -120.5 -48s-94.333 16 -121 48s-40 74.667 -40 128v146h-101v-315h-78v700h78v-315h101v146c0 54 13.333 96.833 40 128.5s67 47.5 121 47.5z
M380 636c-28.667 0 -49.667 -8.83301 -63 -26.5s-20 -42.5 -20 -74.5v-370c0 -32 6.66699 -56.833 20 -74.5s34.333 -26.5 63 -26.5c28 0 48.833 8.83301 62.5 26.5s20.5 42.5 20.5 74.5v370c0 32 -6.83301 56.833 -20.5 74.5s-34.5 26.5 -62.5 26.5z" />
    <glyph glyph-name="uni042F" unicode="&#x42f;" horiz-adv-x="394" 
d="M221 299c-32.667 0 -57.832 -7.49902 -75.499 -22.499s-26.5 -42.167 -26.5 -81.5v-110c0 -23.333 -1 -40.833 -3 -52.5s-5.33301 -22.5 -10 -32.5h-79c6 12 9.83301 25.167 11.5 39.5s2.5 29.166 2.5 44.499v109c0 38 6.5 69.5 19.5 94.5s35.5 42.167 67.5 51.5
c-57.333 18.667 -86 66.667 -86 144v57c0 52 12.167 91.667 36.5 119s64.166 41 119.499 41h156v-700h-78v299h-55zM200.002 629.001c-29.333 0 -50.167 -8 -62.5 -24s-18.5 -40 -18.5 -72v-67c0 -38 8.66699 -63.5 26 -76.5s41.333 -19.5 72 -19.5h59v259h-76z" />
    <glyph glyph-name="uni0430" unicode="&#x430;" horiz-adv-x="422" 
d="M119 141l-27 -141h-72l134 700h113l134 -700h-78l-27 141h-177zM129 208h156l-79 404z" />
    <glyph glyph-name="uni0431" unicode="&#x431;" horiz-adv-x="401" 
d="M200 411c54.667 0 95.833 -13.167 123.5 -39.5s41.5 -67.833 41.5 -124.5v-77c0 -54.667 -13 -96.667 -39 -126s-66.667 -44 -122 -44h-163v700h295v-71h-218v-218h82zM203.999 71c28.667 0 49.668 7.5 63.001 22.5s20 38.833 20 71.5v87c0 34 -7.33301 57.333 -22 70
s-36.334 19 -65.001 19h-82v-270h86z" />
    <glyph glyph-name="uni0432" unicode="&#x432;" horiz-adv-x="392" 
d="M197 700c54.667 0 93.667 -12.833 117 -38.5s35 -64.5 35 -116.5v-33c0 -37.333 -6 -67.5 -18 -90.5s-33.333 -39.167 -64 -48.5c34 -9.33301 58.167 -27 72.5 -53s21.5 -58.333 21.5 -97v-59c0 -52.667 -13 -93.167 -39 -121.5s-66.333 -42.5 -121 -42.5h-161v700h157z
M178 403c31.333 0 54.833 6.33203 70.5 18.999s23.5 37.334 23.5 74.001v41c0 31.333 -5.83301 54.5 -17.5 69.5s-31.5 22.5 -59.5 22.5h-77v-226h60zM201 70.999c55.333 0 83 31.667 83 95v62c0 39.333 -7.83301 66.5 -23.5 81.5s-40.5 22.5 -74.5 22.5h-68v-261h83z" />
    <glyph glyph-name="uni0433" unicode="&#x433;" horiz-adv-x="356" 
d="M118 629v-629h-77v700h279v-71h-202z" />
    <glyph glyph-name="uni0434" unicode="&#x434;" horiz-adv-x="489" 
d="M385 -96v96h-286v-96h-75v165h45c12 13.333 19.833 28.333 23.5 45s6.16699 35.667 7.5 57l27 529h281v-631h53v-165h-76zM176 172c-1.33301 -25.333 -4.16797 -46 -8.50098 -62s-12.166 -29.667 -23.499 -41h185v560h-130z" />
    <glyph glyph-name="uni0435" unicode="&#x435;" horiz-adv-x="360" 
d="M289 390v-70h-171v-249h210v-71h-288v700h288v-71h-210v-239h171z" />
    <glyph glyph-name="uni0436" unicode="&#x436;" horiz-adv-x="613" 
d="M382 330l-37 -66v-264h-77v264l-36 67l-134 -331h-80l160 403l-156 297h78l168 -322v322h77v-322l169 322h78l-155 -295l159 -405h-80z" />
    <glyph glyph-name="uni0437" unicode="&#x437;" 
d="M193 707c54 0 93.833 -16.002 119.5 -48.002s38.5 -74.667 38.5 -128v-18c0 -36 -7.16699 -66.5 -21.5 -91.5s-35.833 -42.833 -64.5 -53.5c30 -10 51.833 -27.667 65.5 -53s20.5 -55.666 20.5 -90.999v-55c0 -53.333 -12.833 -96 -38.5 -128s-65.5 -48 -119.5 -48
c-53.333 0 -92.833 16 -118.5 48s-38.5 74.667 -38.5 128v68h73v-72c0 -32 6.66699 -56.833 20 -74.5s34 -26.5 62 -26.5c28.667 0 49.5 9 62.5 27s19.5 44.667 19.5 80v55c0 69.333 -30 104 -90 104h-33v70h37c26 0 46.833 8.33301 62.5 25s23.5 40.334 23.5 71.001v32
c0 36 -6.5 63 -19.5 81s-33.833 27 -62.5 27c-28 0 -48.667 -8.83301 -62 -26.5s-20 -42.5 -20 -74.5v-47h-72v44c0 54 12.5 96.667 37.5 128s64.5 47 118.5 47z" />
    <glyph glyph-name="uni0438" unicode="&#x438;" horiz-adv-x="409" 
d="M224 323l-103 -323h-81v700h69v-522l62 193l112 329h87v-700h-70v557z" />
    <glyph glyph-name="uni0439" unicode="&#x439;" horiz-adv-x="410" 
d="M317 843c0 -30.667 -9.50195 -54.667 -28.502 -72s-45.5 -26 -79.5 -26s-60.167 8.66699 -78.5 26s-28.166 41.333 -29.499 72h49c1.33301 -19.333 7.33301 -32.666 18 -39.999s24.334 -11 41.001 -11s30.5 3.66699 41.5 11s17.167 20.666 18.5 39.999h48zM229.998 337
l-109 -337h-81v700h69v-522l65 202l109 320h87v-700h-70v557z" />
    <glyph glyph-name="uni043A" unicode="&#x43a;" horiz-adv-x="409" 
d="M159 304l-41 -69v-235h-78v700h78v-338l186 338h79l-177 -319l183 -381h-80z" />
    <glyph glyph-name="uni043B" unicode="&#x43b;" horiz-adv-x="444" 
d="M189 629l-15.9971 -455.001c-1.33301 -28 -4.33301 -52.667 -9 -74s-12.334 -39.5 -23.001 -54.5s-24.834 -26.5 -42.501 -34.5s-39.834 -12 -66.501 -12h-13v71c16 0 29 2 39 6s17.833 10.167 23.5 18.5s9.5 18.833 11.5 31.5s3.33301 27.334 4 44.001l19 530h285v-700
h-78v629h-134z" />
    <glyph glyph-name="uni043C" unicode="&#x43c;" horiz-adv-x="523" 
d="M298 1h-75l-116 557v-558h-68v700h109l115 -559l111 559h109v-700h-74v563z" />
    <glyph glyph-name="uni043D" unicode="&#x43d;" horiz-adv-x="408" 
d="M118 315v-315h-78v700h78v-315h172v315h78v-700h-78v315h-172z" />
    <glyph glyph-name="uni043E" unicode="&#x43e;" horiz-adv-x="389" 
d="M34 531c0 54 13.167 96.833 39.5 128.5s66.5 47.5 120.5 47.5s94.333 -15.833 121 -47.5s40 -74.5 40 -128.5v-362c0 -53.333 -13.333 -96 -40 -128s-67 -48 -121 -48s-94.167 16 -120.5 48s-39.5 74.667 -39.5 128v362zM111 165c0 -32 6.83301 -56.833 20.5 -74.5
s34.5 -26.5 62.5 -26.5c28.667 0 49.667 8.83301 63 26.5s20 42.5 20 74.5v370c0 32 -6.66699 56.833 -20 74.5s-34.333 26.5 -63 26.5c-28 0 -48.833 -8.83301 -62.5 -26.5s-20.5 -42.5 -20.5 -74.5v-370z" />
    <glyph glyph-name="uni043F" unicode="&#x43f;" horiz-adv-x="408" 
d="M118 629v-629h-78v700h328v-700h-78v629h-172z" />
    <glyph glyph-name="uni0440" unicode="&#x440;" horiz-adv-x="371" 
d="M193 700c55.333 0 95.333 -15.168 120 -45.501s37 -72.166 37 -125.499v-84c0 -56 -13.167 -98.167 -39.5 -126.5s-67.5 -42.5 -123.5 -42.5h-69v-276h-78v700h153zM187 345.999c29.333 0 51 7.16699 65 21.5s21 38.5 21 72.5v93c0 32 -6.16699 56 -18.5 72
s-32.833 24 -61.5 24h-75v-283h69z" />
    <glyph glyph-name="uni0441" unicode="&#x441;" horiz-adv-x="380" 
d="M191 707c54 0 93.832 -16 119.499 -48s38.5 -74.667 38.5 -128v-63h-74v67c0 32 -6.5 56.833 -19.5 74.5s-33.833 26.5 -62.5 26.5c-28 0 -48.667 -8.83301 -62 -26.5s-20 -42.5 -20 -74.5v-370c0 -32 6.66699 -56.833 20 -74.5s34 -26.5 62 -26.5
c28.667 0 49.5 8.83301 62.5 26.5s19.5 42.5 19.5 74.5v91h74v-87c0 -53.333 -12.833 -96 -38.5 -128s-65.5 -48 -119.5 -48c-53.333 0 -92.833 16 -118.5 48s-38.5 74.667 -38.5 128v362c0 26.667 3.16699 50.834 9.5 72.501s16 40.167 29 55.5s29.333 27.166 49 35.499
s42.834 12.5 69.501 12.5z" />
    <glyph glyph-name="uni0442" unicode="&#x442;" horiz-adv-x="372" 
d="M147 0v629h-129v71h336v-71h-129v-629h-78z" />
    <glyph glyph-name="uni0443" unicode="&#x443;" horiz-adv-x="417" 
d="M250 154c-6 -26 -13.167 -49 -21.5 -69s-19.5 -36.667 -33.5 -50s-31.5 -23 -52.5 -29s-47.5 -8.33301 -79.5 -7v70c30 -1.33301 52.5 3.16699 67.5 13.5s25.833 28.833 32.5 55.5l16 46l-161 516h78l71 -243l48 -176l41 176l63 243h81z" />
    <glyph glyph-name="uni0444" unicode="&#x444;" horiz-adv-x="569" 
d="M371 618c56.667 0 97.834 -15.167 123.501 -45.5s38.5 -73.5 38.5 -129.5v-191c0 -56 -12.833 -99.167 -38.5 -129.5s-66.834 -45.5 -123.501 -45.5h-49v-77h-77v77h-49c-56.667 0 -97.834 15.167 -123.501 45.5s-38.5 73.5 -38.5 129.5v191
c0 56 12.833 99.167 38.5 129.5s66.834 45.5 123.501 45.5h49v82h77v-82h49zM196 549c-30 0 -51.667 -8.33301 -65 -25s-20 -42 -20 -76v-201c0 -34 6.66699 -59.5 20 -76.5s35 -25.5 65 -25.5h49v404h-49zM371 145c57.333 0 86 34 86 102v201
c0 34 -6.83301 59.333 -20.5 76s-35.5 25 -65.5 25h-49v-404h49z" />
    <glyph glyph-name="uni0445" unicode="&#x445;" horiz-adv-x="435" 
d="M214 302l-117 -302h-74l141 361l-132 339h81l108 -280l109 280h73l-131 -339l140 -361h-82z" />
    <glyph glyph-name="uni0446" unicode="&#x446;" horiz-adv-x="455" 
d="M352 -94v94h-305v700h77v-629h172v629h79v-631h53v-163h-76z" />
    <glyph glyph-name="uni0447" unicode="&#x447;" horiz-adv-x="401" 
d="M283 310c-12.667 -18 -28.668 -31.666 -48.001 -40.999s-39.666 -14 -60.999 -14c-23.333 0 -43.833 4.16699 -61.5 12.5s-32.167 20 -43.5 35s-19.833 32.667 -25.5 53s-8.5 42.166 -8.5 65.499v279h78v-273c0 -30 7.33301 -54.333 22 -73s36 -28 64 -28
c48 0 76 27.333 84 82v292h77v-700h-77v310z" />
    <glyph glyph-name="uni0448" unicode="&#x448;" horiz-adv-x="581" 
d="M118 700v-629h134v629h78v-629h134v629h77v-700h-501v700h78z" />
    <glyph glyph-name="uni0449" unicode="&#x449;" horiz-adv-x="622" 
d="M520 -94v94h-480v700h78v-629h134v629h77v-629h135v629h77v-631h54v-163h-75z" />
    <glyph glyph-name="uni044A" unicode="&#x44a;" horiz-adv-x="438" 
d="M245 424c108.667 0 163 -56.334 163 -169.001v-84c0 -53.333 -12.5 -95.166 -37.5 -125.499s-64.833 -45.5 -119.5 -45.5h-153v630h-88v70h165v-276h70zM251 70.999c28.667 0 49 8 61 24s18 40 18 72v93c0 34 -6.83301 58.167 -20.5 72.5s-35.167 21.5 -64.5 21.5h-70
v-283h76z" />
    <glyph glyph-name="uni044B" unicode="&#x44b;" horiz-adv-x="532" 
d="M187 424c56 0 97.167 -14.168 123.5 -42.501s39.5 -70.5 39.5 -126.5v-84c0 -53.333 -12.5 -95.166 -37.5 -125.499s-64.833 -45.5 -119.5 -45.5h-153v700h78v-276h69zM492 699.999v-700h-77v700h77zM193 70.999c28.667 0 49.167 8 61.5 24s18.5 40 18.5 72v93
c0 34 -7 58.167 -21 72.5s-35.667 21.5 -65 21.5h-69v-283h75z" />
    <glyph glyph-name="uni044C" unicode="&#x44c;" horiz-adv-x="381" 
d="M187 424c56 0 97.167 -14.168 123.5 -42.501s39.5 -70.5 39.5 -126.5v-84c0 -53.333 -12.5 -95.166 -37.5 -125.499s-64.833 -45.5 -119.5 -45.5h-153v700h78v-276h69zM193 70.999c28.667 0 49.167 8 61.5 24s18.5 40 18.5 72v93c0 34 -7 58.167 -21 72.5
s-35.667 21.5 -65 21.5h-69v-283h75z" />
    <glyph glyph-name="uni044D" unicode="&#x44d;" horiz-adv-x="380" 
d="M188 707c26.667 0 49.8311 -4.16699 69.498 -12.5s36 -20.166 49 -35.499s22.667 -33.833 29 -55.5s9.5 -45.834 9.5 -72.501v-362c0 -53.333 -12.833 -96 -38.5 -128s-65.167 -48 -118.5 -48s-92.833 16 -118.5 48s-38.5 74.667 -38.5 128v76h73v-80
c0 -32 6.66699 -56.833 20 -74.5s34 -26.5 62 -26.5s48.667 8.83301 62 26.5s20 42.5 20 74.5v162h-122v70h122v138c0 32 -6.66699 56.833 -20 74.5s-34 26.5 -62 26.5s-48.667 -8.83301 -62 -26.5s-20 -42.5 -20 -74.5v-56h-72v52c0 26.667 3.16699 50.834 9.5 72.501
s15.833 40.167 28.5 55.5s28.834 27.166 48.501 35.499s42.834 12.5 69.501 12.5z" />
    <glyph glyph-name="uni044E" unicode="&#x44e;" horiz-adv-x="575" 
d="M380 707c54 0 94.167 -15.833 120.5 -47.5s39.5 -74.5 39.5 -128.5v-362c0 -53.333 -13.167 -96 -39.5 -128s-66.5 -48 -120.5 -48s-94.333 16 -121 48s-40 74.667 -40 128v146h-101v-315h-78v700h78v-315h101v146c0 54 13.333 96.833 40 128.5s67 47.5 121 47.5z
M380 636c-28.667 0 -49.667 -8.83301 -63 -26.5s-20 -42.5 -20 -74.5v-370c0 -32 6.66699 -56.833 20 -74.5s34.333 -26.5 63 -26.5c28 0 48.833 8.83301 62.5 26.5s20.5 42.5 20.5 74.5v370c0 32 -6.83301 56.833 -20.5 74.5s-34.5 26.5 -62.5 26.5z" />
    <glyph glyph-name="uni044F" unicode="&#x44f;" horiz-adv-x="394" 
d="M221 299c-32.667 0 -57.832 -7.49902 -75.499 -22.499s-26.5 -42.167 -26.5 -81.5v-110c0 -23.333 -1 -40.833 -3 -52.5s-5.33301 -22.5 -10 -32.5h-79c6 12 9.83301 25.167 11.5 39.5s2.5 29.166 2.5 44.499v109c0 38 6.5 69.5 19.5 94.5s35.5 42.167 67.5 51.5
c-57.333 18.667 -86 66.667 -86 144v57c0 52 12.167 91.667 36.5 119s64.166 41 119.499 41h156v-700h-78v299h-55zM200.002 629.001c-29.333 0 -50.167 -8 -62.5 -24s-18.5 -40 -18.5 -72v-67c0 -38 8.66699 -63.5 26 -76.5s41.333 -19.5 72 -19.5h59v259h-76z" />
    <glyph glyph-name="uni0451" unicode="&#x451;" horiz-adv-x="360" 
d="M155 831v-90h-68v90h68zM280 831v-90h-69v90h69zM289 390v-70h-171v-249h210v-71h-288v700h288v-71h-210v-239h171z" />
    <glyph glyph-name="uni1E02" unicode="&#x1e02;" horiz-adv-x="392" 
d="M212 830v-90h-68v90h68zM197 700c54.667 0 93.667 -12.833 117 -38.5s35 -64.5 35 -116.5v-33c0 -37.333 -6 -67.5 -18 -90.5s-33.333 -39.167 -64 -48.5c34 -9.33301 58.167 -27 72.5 -53s21.5 -58.333 21.5 -97v-59c0 -52.667 -13 -93.167 -39 -121.5
s-66.333 -42.5 -121 -42.5h-161v700h157zM178 403c31.333 0 54.833 6.33203 70.5 18.999s23.5 37.334 23.5 74.001v41c0 31.333 -5.83301 54.5 -17.5 69.5s-31.5 22.5 -59.5 22.5h-77v-226h60zM201 70.999c55.333 0 83 31.667 83 95v62c0 39.333 -7.83301 66.5 -23.5 81.5
s-40.5 22.5 -74.5 22.5h-68v-261h83z" />
    <glyph glyph-name="uni1E03" unicode="&#x1e03;" horiz-adv-x="392" 
d="M212 830v-90h-68v90h68zM197 700c54.667 0 93.667 -12.833 117 -38.5s35 -64.5 35 -116.5v-33c0 -37.333 -6 -67.5 -18 -90.5s-33.333 -39.167 -64 -48.5c34 -9.33301 58.167 -27 72.5 -53s21.5 -58.333 21.5 -97v-59c0 -52.667 -13 -93.167 -39 -121.5
s-66.333 -42.5 -121 -42.5h-161v700h157zM178 403c31.333 0 54.833 6.33203 70.5 18.999s23.5 37.334 23.5 74.001v41c0 31.333 -5.83301 54.5 -17.5 69.5s-31.5 22.5 -59.5 22.5h-77v-226h60zM201 70.999c55.333 0 83 31.667 83 95v62c0 39.333 -7.83301 66.5 -23.5 81.5
s-40.5 22.5 -74.5 22.5h-68v-261h83z" />
    <glyph glyph-name="uni1E0A" unicode="&#x1e0a;" horiz-adv-x="396" 
d="M219 830v-90h-68v90h68zM204 700c54.667 0 94.834 -15.5 120.501 -46.5s38.5 -73.5 38.5 -127.5v-353c0 -54 -12.833 -96.333 -38.5 -127s-65.834 -46 -120.501 -46h-164v700h164zM203 71c28 0 48.834 8.5 62.501 25.5s20.5 41.5 20.5 73.5v360
c0 32 -6.83301 56.5 -20.5 73.5s-34.834 25.5 -63.501 25.5h-84v-558h85z" />
    <glyph glyph-name="uni1E0B" unicode="&#x1e0b;" horiz-adv-x="396" 
d="M219 830v-90h-68v90h68zM204 700c54.667 0 94.834 -15.5 120.501 -46.5s38.5 -73.5 38.5 -127.5v-353c0 -54 -12.833 -96.333 -38.5 -127s-65.834 -46 -120.501 -46h-164v700h164zM203 71c28 0 48.834 8.5 62.501 25.5s20.5 41.5 20.5 73.5v360
c0 32 -6.83301 56.5 -20.5 73.5s-34.834 25.5 -63.501 25.5h-84v-558h85z" />
    <glyph glyph-name="uni1E1E" unicode="&#x1e1e;" horiz-adv-x="340" 
d="M211 829v-90h-68v90h68zM279 374v-71h-161v-303h-78v700h278v-71h-200v-255h161z" />
    <glyph glyph-name="uni1E1F" unicode="&#x1e1f;" horiz-adv-x="340" 
d="M214 830v-90h-68v90h68zM279 374v-71h-161v-303h-78v700h278v-71h-200v-255h161z" />
    <glyph glyph-name="uni1E40" unicode="&#x1e40;" horiz-adv-x="523" 
d="M295 832v-91h-68v91h68zM298 1h-75l-116 557v-558h-68v700h109l115 -559l111 559h109v-700h-74v563z" />
    <glyph glyph-name="uni1E41" unicode="&#x1e41;" horiz-adv-x="523" 
d="M295 832v-90h-68v90h68zM298 1h-75l-116 557v-558h-68v700h109l115 -559l111 559h109v-700h-74v563z" />
    <glyph glyph-name="uni1E56" unicode="&#x1e56;" horiz-adv-x="371" 
d="M214 830v-90h-68v90h68zM193 700c55.333 0 95.333 -15.168 120 -45.501s37 -72.166 37 -125.499v-84c0 -56 -13.167 -98.167 -39.5 -126.5s-67.5 -42.5 -123.5 -42.5h-69v-276h-78v700h153zM187 345.999c29.333 0 51 7.16699 65 21.5s21 38.5 21 72.5v93
c0 32 -6.16699 56 -18.5 72s-32.833 24 -61.5 24h-75v-283h69z" />
    <glyph glyph-name="uni1E57" unicode="&#x1e57;" horiz-adv-x="371" 
d="M217 830v-90h-68v90h68zM193 700c55.333 0 95.333 -15.168 120 -45.501s37 -72.166 37 -125.499v-84c0 -56 -13.167 -98.167 -39.5 -126.5s-67.5 -42.5 -123.5 -42.5h-69v-276h-78v700h153zM187 345.999c29.333 0 51 7.16699 65 21.5s21 38.5 21 72.5v93
c0 32 -6.16699 56 -18.5 72s-32.833 24 -61.5 24h-75v-283h69z" />
    <glyph glyph-name="uni1E60" unicode="&#x1e60;" horiz-adv-x="372" 
d="M220 830v-90h-68v90h68zM187 707c53.333 0 92.6689 -15.835 118.002 -47.502s38 -74.167 38 -127.5v-19h-74v23c0 32 -6.33301 56.667 -19 74s-33 26 -61 26s-48.333 -8.66699 -61 -26s-19 -41.666 -19 -72.999c0 -26 5.83301 -48.667 17.5 -68
s26.167 -37.166 43.5 -53.499s36.166 -32.333 56.499 -48s39.166 -32.834 56.499 -51.501s31.833 -39.834 43.5 -63.501s17.5 -51.834 17.5 -84.501c0 -53.333 -12.833 -95.833 -38.5 -127.5s-65.5 -47.5 -119.5 -47.5s-93.667 15.833 -119 47.5s-38 74.167 -38 127.5v40h73
v-44c0 -32 6.66699 -56.667 20 -74s34 -26 62 -26s48.667 8.66699 62 26s20 42 20 74c0 26 -5.83301 48.5 -17.5 67.5s-26.167 36.667 -43.5 53s-36 32.333 -56 48s-38.667 32.834 -56 51.501s-31.833 39.834 -43.5 63.501s-17.5 51.834 -17.5 84.501
c0 54 12.667 96.667 38 128s64.333 47 117 47z" />
    <glyph glyph-name="uni1E61" unicode="&#x1e61;" horiz-adv-x="372" 
d="M223 833v-90h-68v90h68zM187 707c53.333 0 92.6689 -15.835 118.002 -47.502s38 -74.167 38 -127.5v-19h-74v23c0 32 -6.33301 56.667 -19 74s-33 26 -61 26s-48.333 -8.66699 -61 -26s-19 -41.666 -19 -72.999c0 -26 5.83301 -48.667 17.5 -68
s26.167 -37.166 43.5 -53.499s36.166 -32.333 56.499 -48s39.166 -32.834 56.499 -51.501s31.833 -39.834 43.5 -63.501s17.5 -51.834 17.5 -84.501c0 -53.333 -12.833 -95.833 -38.5 -127.5s-65.5 -47.5 -119.5 -47.5s-93.667 15.833 -119 47.5s-38 74.167 -38 127.5v40h73
v-44c0 -32 6.66699 -56.667 20 -74s34 -26 62 -26s48.667 8.66699 62 26s20 42 20 74c0 26 -5.83301 48.5 -17.5 67.5s-26.167 36.667 -43.5 53s-36 32.333 -56 48s-38.667 32.834 -56 51.501s-31.833 39.834 -43.5 63.501s-17.5 51.834 -17.5 84.501
c0 54 12.667 96.667 38 128s64.333 47 117 47z" />
    <glyph glyph-name="uni1E6A" unicode="&#x1e6a;" horiz-adv-x="372" 
d="M220 830v-90h-68v90h68zM147 0v629h-129v71h336v-71h-129v-629h-78z" />
    <glyph glyph-name="uni1E6B" unicode="&#x1e6b;" horiz-adv-x="372" 
d="M219 830v-90h-68v90h68zM146 0v629h-129v71h336v-71h-129v-629h-78z" />
    <glyph glyph-name="Wgrave" unicode="&#x1e80;" horiz-adv-x="583" 
d="M277 845l69 -103h-57l-93 103h81zM226 0h-107l-96 700h76l82 -596l78 595h77l77 -596l79 597h68l-95 -700h-103l-67 475z" />
    <glyph glyph-name="wgrave" unicode="&#x1e81;" horiz-adv-x="583" 
d="M277 845l69 -103h-57l-93 103h81zM226 0h-107l-96 700h76l82 -596l78 595h77l77 -596l79 597h68l-95 -700h-103l-67 475z" />
    <glyph glyph-name="Wacute" unicode="&#x1e82;" horiz-adv-x="583" 
d="M391 842l-93 -103h-55l70 103h78zM226 0h-107l-96 700h76l82 -596l78 595h77l77 -596l79 597h68l-95 -700h-103l-67 475z" />
    <glyph glyph-name="wacute" unicode="&#x1e83;" horiz-adv-x="583" 
d="M391 842l-93 -103h-55l70 103h78zM226 0h-107l-96 700h76l82 -596l78 595h77l77 -596l79 597h68l-95 -700h-103l-67 475z" />
    <glyph glyph-name="Wdieresis" unicode="&#x1e84;" horiz-adv-x="583" 
d="M265 831v-90h-68v90h68zM389 831v-90h-68v90h68zM226 0h-107l-96 700h76l82 -596l78 595h77l77 -596l79 597h68l-95 -700h-103l-67 475z" />
    <glyph glyph-name="wdieresis" unicode="&#x1e85;" horiz-adv-x="583" 
d="M265 831v-90h-68v90h68zM389 831v-90h-68v90h68zM226 0h-107l-96 700h76l82 -596l78 595h77l77 -596l79 597h68l-95 -700h-103l-67 475z" />
    <glyph glyph-name="Ygrave" unicode="&#x1ef2;" horiz-adv-x="406" 
d="M186 845l69 -103h-57l-93 103h81zM164 251l-148 449h81l109 -344l110 344h74l-149 -449v-251h-77v251z" />
    <glyph glyph-name="ygrave" unicode="&#x1ef3;" horiz-adv-x="406" 
d="M186 845l69 -103h-57l-93 103h81zM164 251l-148 449h81l109 -344l110 344h74l-149 -449v-251h-77v251z" />
    <glyph glyph-name="figuredash" unicode="&#x2012;" horiz-adv-x="425" 
d="M13 382h399v-64h-399v64z" />
    <glyph glyph-name="endash" unicode="&#x2013;" horiz-adv-x="458" 
d="M13 382h432v-64h-432v64z" />
    <glyph glyph-name="emdash" unicode="&#x2014;" horiz-adv-x="833" 
d="M13 382h807v-64h-807v64z" />
    <glyph glyph-name="quoteleft" unicode="&#x2018;" horiz-adv-x="160" 
d="M78 700h33l-25 -88h29v-97h-75v90z" />
    <glyph glyph-name="quoteright" unicode="&#x2019;" horiz-adv-x="160" 
d="M81 515h-32l25 88h-29v97h75v-89z" />
    <glyph glyph-name="quotesinglbase" unicode="&#x201a;" horiz-adv-x="160" 
d="M81 -88h-32l25 88h-29v97h75v-90z" />
    <glyph glyph-name="quotedblleft" unicode="&#x201c;" horiz-adv-x="271" 
d="M78 700h33l-25 -88h29v-97h-75v90zM190 700h32l-24 -88h28v-97h-74v90z" />
    <glyph glyph-name="quotedblright" unicode="&#x201d;" horiz-adv-x="271" 
d="M76 515h-32l24 88h-28v97h74v-90zM188 515h-33l25 88h-29v97h75v-90z" />
    <glyph glyph-name="quotedblbase" unicode="&#x201e;" horiz-adv-x="274" 
d="M81 -88h-32l25 88h-29v97h75v-90zM196 -88h-33l25 88h-29v97h75v-90z" />
    <glyph glyph-name="dagger" unicode="&#x2020;" horiz-adv-x="394" 
d="M229 513h136v-61h-136v-517h-64v517h-135v61h135v187h64v-187z" />
    <glyph glyph-name="daggerdbl" unicode="&#x2021;" horiz-adv-x="394" 
d="M229 513h136v-61h-136v-268h136v-61h-136v-188h-64v188h-135v61h135v268h-135v61h135v187h64v-187z" />
    <glyph glyph-name="bullet" unicode="&#x2022;" horiz-adv-x="328" 
d="M164 455c14.667 0 28.334 -2.83301 41.001 -8.5s23.667 -13.167 33 -22.5s16.833 -20.333 22.5 -33s8.5 -26.334 8.5 -41.001s-2.83301 -28.334 -8.5 -41.001s-13.167 -23.834 -22.5 -33.501s-20.333 -17.167 -33 -22.5s-26.334 -8 -41.001 -8s-28.334 2.66699 -41.001 8
s-23.834 12.833 -33.501 22.5s-17.167 20.834 -22.5 33.501s-8 26.334 -8 41.001s2.66699 28.334 8 41.001s12.833 23.667 22.5 33s20.834 16.833 33.501 22.5s26.334 8.5 41.001 8.5z" />
    <glyph glyph-name="ellipsis" unicode="&#x2026;" horiz-adv-x="379" 
d="M115 97v-97h-75v97h75zM227 97v-97h-75v97h75zM339 97v-97h-75v97h75z" />
    <glyph glyph-name="perthousand" unicode="&#x2030;" horiz-adv-x="867" 
d="M136 704c34 0 59.167 -10.333 75.5 -31s24.5 -48 24.5 -82v-221c0 -34 -8.16699 -61.333 -24.5 -82s-41.5 -31 -75.5 -31s-59.167 10.333 -75.5 31s-24.5 48 -24.5 82v221c0 34 8.16699 61.333 24.5 82s41.5 31 75.5 31zM467 700l-276 -700h-47l276 700h47zM136 658
c-18 0 -30.833 -5.83301 -38.5 -17.5s-11.5 -27.167 -11.5 -46.5v-228c0 -19.333 3.83301 -34.666 11.5 -45.999s20.5 -17 38.5 -17c17.333 0 30 5.66699 38 17s12 26.666 12 45.999v228c0 19.333 -4 34.833 -12 46.5s-20.667 17.5 -38 17.5zM480 442
c34.667 0 60 -10.167 76 -30.5s24 -47.5 24 -81.5v-220c0 -34 -8 -61.333 -24 -82s-41.333 -31 -76 -31c-34 0 -59.167 10.333 -75.5 31s-24.5 48 -24.5 82v220c0 34 8.16699 61.167 24.5 81.5s41.5 30.5 75.5 30.5zM731 442c34.667 0 60 -10.167 76 -30.5
s24 -47.5 24 -81.5v-220c0 -34 -8 -61.333 -24 -82s-41.333 -31 -76 -31c-34 0 -59.167 10.333 -75.5 31s-24.5 48 -24.5 82v220c0 34 8.16699 61.167 24.5 81.5s41.5 30.5 75.5 30.5zM480 396c-17.333 0 -30 -5.66699 -38 -17s-12 -26.666 -12 -45.999v-227
c0 -19.333 4 -34.833 12 -46.5s20.667 -17.5 38 -17.5s30 5.83301 38 17.5s12 27.167 12 46.5v227c0 19.333 -4 34.666 -12 45.999s-20.667 17 -38 17zM731 396c-17.333 0 -29.833 -5.66699 -37.5 -17s-11.5 -26.666 -11.5 -45.999v-227
c0 -19.333 3.83301 -34.833 11.5 -46.5s20.167 -17.5 37.5 -17.5s30 5.83301 38 17.5s12 27.167 12 46.5v227c0 19.333 -4 34.666 -12 45.999s-20.667 17 -38 17z" />
    <glyph glyph-name="guilsinglleft" unicode="&#x2039;" horiz-adv-x="183" 
d="M24 351l62 257h74l-62 -257l62 -268h-74z" />
    <glyph glyph-name="guilsinglright" unicode="&#x203a;" horiz-adv-x="183" 
d="M85 351l-61 257h73l63 -257l-63 -267h-73z" />
    <glyph glyph-name="fraction" unicode="&#x2044;" horiz-adv-x="164" 
d="M244 700l-276 -700h-47l276 700h47z" />
    <glyph glyph-name="zerosuperior" unicode="&#x2070;" horiz-adv-x="277" 
d="M36 687c0 34.667 8.33301 62.167 25 82.5s42.334 30.5 77.001 30.5s60.5 -10.167 77.5 -30.5s25.5 -47.833 25.5 -82.5v-228c0 -34.667 -8.5 -62.167 -25.5 -82.5s-42.833 -30.5 -77.5 -30.5s-60.334 10.167 -77.001 30.5s-25 47.833 -25 82.5v228zM86 455
c0 -19.333 4.16699 -34.666 12.5 -45.999s21.5 -17 39.5 -17s31.167 5.66699 39.5 17s12.5 26.666 12.5 45.999v236c0 19.333 -4.16699 34.666 -12.5 45.999s-21.5 17 -39.5 17s-31.167 -5.66699 -39.5 -17s-12.5 -26.666 -12.5 -45.999v-236z" />
    <glyph glyph-name="foursuperior" unicode="&#x2074;" horiz-adv-x="283" 
d="M222 439v-88h-50v88h-143v47l138 309h55v-309h35v-47h-35zM75 486h97v212z" />
    <glyph glyph-name="fivesuperior" unicode="&#x2075;" horiz-adv-x="275" 
d="M86 454c0 -20 4.16699 -35.499 12.5 -46.499s21.166 -16.5 38.499 -16.5s30.166 5.5 38.499 16.5s12.5 26.5 12.5 46.5v86c0 19.333 -4.16699 34.666 -12.5 45.999s-21.166 17 -38.499 17c-12.667 0 -23.667 -3.83301 -33 -11.5s-14.666 -19.5 -15.999 -35.5v-10h-48
l13 248h175v-46h-131l-6 -133c14 23.333 36 35 66 35c28 0 48.667 -9.66699 62 -29s20 -45 20 -77v-87c0 -34 -8.16699 -61.333 -24.5 -82s-41.833 -31 -76.5 -31c-34 0 -59.167 10.333 -75.5 31s-24.5 48 -24.5 82v30h48v-33z" />
    <glyph glyph-name="sixsuperior" unicode="&#x2076;" horiz-adv-x="277" 
d="M140 800c34.667 0 60.166 -10.167 76.499 -30.5s24.5 -47.5 24.5 -81.5v-8h-48v11c0 20 -4.16699 35.5 -12.5 46.5s-21.166 16.5 -38.499 16.5c-19.333 0 -33.166 -5.83301 -41.499 -17.5s-12.5 -29.5 -12.5 -53.5v-96c13.333 30 37 45 71 45
c28.667 0 49.667 -9.66699 63 -29s20 -45 20 -77v-67c0 -34 -8.33301 -61.333 -25 -82s-42.334 -31 -77.001 -31s-60.5 10.333 -77.5 31s-25.5 48 -25.5 82v226c0 35.333 8.16699 63.333 24.5 84s42.5 31 78.5 31zM139.999 586c-18 0 -31.167 -5.66699 -39.5 -17
s-12.5 -27 -12.5 -47v-67c0 -20 4.16699 -35.5 12.5 -46.5s21.5 -16.5 39.5 -16.5c17.333 0 30.333 5.5 39 16.5s13 26.5 13 46.5v67c0 20 -4.33301 35.667 -13 47s-21.667 17 -39 17z" />
    <glyph glyph-name="sevensuperior" unicode="&#x2077;" horiz-adv-x="275" 
d="M187 749h-150v46h202v-44l-115 -400h-50z" />
    <glyph glyph-name="eightsuperior" unicode="&#x2078;" horiz-adv-x="279" 
d="M139 800c34.667 0 61.0029 -9.83301 79.0029 -29.5s27 -46.5 27 -80.5v-15c0 -21.333 -3.83301 -40 -11.5 -56s-20.167 -27.667 -37.5 -35c17.333 -8 29.833 -20.333 37.5 -37s11.5 -35.667 11.5 -57v-33c0 -34 -8.83301 -61 -26.5 -81s-44.167 -30 -79.5 -30
c-34.667 0 -60.834 10 -78.501 30s-26.5 47 -26.5 81v33c0 21.333 3.66699 40.333 11 57s19.666 29 36.999 37c-16.667 7.33301 -28.834 19 -36.501 35s-11.5 34.667 -11.5 56v15c0 34 9 60.833 27 80.5s44 29.5 78 29.5zM139.003 754
c-17.333 0 -30.833 -5.16699 -40.5 -15.5s-14.5 -27.166 -14.5 -50.499v-21c0 -41.333 18.333 -62 55 -62c17.333 0 30.833 5 40.5 15s14.5 25.667 14.5 47v21c0 23.333 -4.83301 40.166 -14.5 50.499s-23.167 15.5 -40.5 15.5zM139.003 559c-36.667 0 -55 -21 -55 -63v-38
c0 -44 18.333 -66 55 -66s55 22 55 66v38c0 42 -18.333 63 -55 63z" />
    <glyph glyph-name="ninesuperior" unicode="&#x2079;" horiz-adv-x="277" 
d="M137 800c34.667 0 60.332 -10.333 76.999 -31s25 -48 25 -82v-226c0 -35.333 -8.16699 -63.333 -24.5 -84s-42.5 -31 -78.5 -31c-34 0 -59.333 10.167 -76 30.5s-25 47.5 -25 81.5v8h48v-11c0 -20 4.33301 -35.5 13 -46.5s21.667 -16.5 39 -16.5c36 0 54 23.667 54 71v96
c-13.333 -30 -37.333 -45 -72 -45c-28 0 -48.667 9.66699 -62 29s-20 45 -20 77v67c0 34 8.33301 61.333 25 82s42.334 31 77.001 31zM136.998 754c-17.333 0 -30.333 -5.5 -39 -16.5s-13 -26.5 -13 -46.5v-67c0 -20 4.33301 -35.667 13 -47s21.667 -17 39 -17
s30.333 5.66699 39 17s13 27 13 47v67c0 20 -4.33301 35.5 -13 46.5s-21.667 16.5 -39 16.5z" />
    <glyph glyph-name="zeroinferior" unicode="&#x2080;" horiz-adv-x="277" 
d="M36 271c0 34.667 8.33301 62.167 25 82.5s42.334 30.5 77.001 30.5s60.5 -10.167 77.5 -30.5s25.5 -47.833 25.5 -82.5v-228c0 -34.667 -8.5 -62.167 -25.5 -82.5s-42.833 -30.5 -77.5 -30.5s-60.334 10.167 -77.001 30.5s-25 47.833 -25 82.5v228zM86 39
c0 -19.333 4.16699 -34.666 12.5 -45.999s21.5 -17 39.5 -17s31.167 5.66699 39.5 17s12.5 26.666 12.5 45.999v236c0 19.333 -4.16699 34.666 -12.5 45.999s-21.5 17 -39.5 17s-31.167 -5.66699 -39.5 -17s-12.5 -26.666 -12.5 -45.999v-236z" />
    <glyph glyph-name="oneinferior" unicode="&#x2081;" horiz-adv-x="189" 
d="M91 302c-16.667 -10 -37 -15.999 -61 -17.999v37c24 0.666992 41.167 6.66699 51.5 18s18.5 24.666 24.5 39.999h35v-444h-50v367z" />
    <glyph glyph-name="twoinferior" unicode="&#x2082;" horiz-adv-x="275" 
d="M142 385c34.667 0 59.999 -10.3291 75.999 -30.9961s24 -48 24 -82c0 -22.667 -3.83301 -43 -11.5 -61s-17.167 -34.833 -28.5 -50.5s-23.5 -30.334 -36.5 -44.001s-25.167 -27.334 -36.5 -41.001s-20.666 -27.834 -27.999 -42.501s-10.666 -30.667 -9.99902 -48v-4h146
v-46h-196v38c0 24 3.66699 45 11 63s16.666 34.5 27.999 49.5s23.5 29.167 36.5 42.5s25.167 27.166 36.5 41.499s20.666 29.5 27.999 45.5s11 34.667 11 56c0 45.333 -17.333 68 -52 68c-17.333 0 -30.166 -5.83301 -38.499 -17.5s-12.5 -27.5 -12.5 -47.5v-38h-48v35
c0 34 8 61.5 24 82.5s41.667 31.5 77 31.5z" />
    <glyph glyph-name="threeinferior" unicode="&#x2083;" horiz-adv-x="275" 
d="M138 384c34 0 59.167 -10.1689 75.5 -30.502s24.5 -47.833 24.5 -82.5v-11c0 -46.667 -17.333 -77 -52 -91c18 -7.33301 31.167 -19 39.5 -35s12.5 -35 12.5 -57v-34c0 -34.667 -8.16699 -62.167 -24.5 -82.5s-41.5 -30.5 -75.5 -30.5
c-34.667 0 -60.167 10.167 -76.5 30.5s-24.5 47.833 -24.5 82.5v30h48v-34c0 -19.333 4.16699 -34.666 12.5 -45.999s21.166 -17 38.499 -17c34.667 0 52 22.667 52 68v34c0 43.333 -18.333 65 -55 65h-27v46h29c16 0 28.833 5.33301 38.5 16s14.5 25.667 14.5 45v20
c0 45.333 -17.333 68 -52 68c-17.333 0 -30.166 -5.66699 -38.499 -17s-12.5 -26.666 -12.5 -45.999v-23h-48v19c0 34.667 8.16699 62.167 24.5 82.5s41.833 30.5 76.5 30.5z" />
    <glyph glyph-name="fourinferior" unicode="&#x2084;" horiz-adv-x="283" 
d="M222 22v-89h-50v89h-143v46l138 309h55v-309h35v-46h-35zM75 68h97v212z" />
    <glyph glyph-name="fiveinferior" unicode="&#x2085;" horiz-adv-x="275" 
d="M86 40c0 -20 4.16699 -35.499 12.5 -46.499s21.166 -16.5 38.499 -16.5s30.166 5.5 38.499 16.5s12.5 26.5 12.5 46.5v86c0 19.333 -4.16699 34.666 -12.5 45.999s-21.166 17 -38.499 17c-12.667 0 -23.667 -3.83301 -33 -11.5s-14.666 -19.5 -15.999 -35.5v-10h-48
l13 248h175v-46h-131l-6 -134c14 23.333 36 35 66 35c28 0 48.667 -9.5 62 -28.5s20 -44.5 20 -76.5v-88c0 -34 -8.16699 -61.167 -24.5 -81.5s-41.833 -30.5 -76.5 -30.5c-34 0 -59.167 10.167 -75.5 30.5s-24.5 47.5 -24.5 81.5v31h48v-33z" />
    <glyph glyph-name="sixinferior" unicode="&#x2086;" horiz-adv-x="277" 
d="M140 384c34.667 0 60.166 -10.167 76.499 -30.5s24.5 -47.5 24.5 -81.5v-8h-48v11c0 20 -4.16699 35.5 -12.5 46.5s-21.166 16.5 -38.499 16.5c-19.333 0 -33.166 -5.83301 -41.499 -17.5s-12.5 -29.5 -12.5 -53.5v-96c13.333 30 37 45 71 45
c28.667 0 49.667 -9.66699 63 -29s20 -45 20 -77v-67c0 -34 -8.33301 -61.333 -25 -82s-42.334 -31 -77.001 -31s-60.5 10.333 -77.5 31s-25.5 48 -25.5 82v226c0 35.333 8.16699 63.333 24.5 84s42.5 31 78.5 31zM139.999 170c-18 0 -31.167 -5.66699 -39.5 -17
s-12.5 -27 -12.5 -47v-67c0 -20 4.16699 -35.5 12.5 -46.5s21.5 -16.5 39.5 -16.5c17.333 0 30.333 5.5 39 16.5s13 26.5 13 46.5v67c0 20 -4.33301 35.667 -13 47s-21.667 17 -39 17z" />
    <glyph glyph-name="seveninferior" unicode="&#x2087;" horiz-adv-x="275" 
d="M187 335h-150v46h202v-44l-115 -400h-50z" />
    <glyph glyph-name="eightinferior" unicode="&#x2088;" horiz-adv-x="279" 
d="M139 384c34.667 0 61.0029 -9.83301 79.0029 -29.5s27 -46.5 27 -80.5v-15c0 -21.333 -3.83301 -40 -11.5 -56s-20.167 -27.667 -37.5 -35c17.333 -8 29.833 -20.333 37.5 -37s11.5 -35.667 11.5 -57v-33c0 -34 -8.83301 -61 -26.5 -81s-44.167 -30 -79.5 -30
c-34.667 0 -60.834 10 -78.501 30s-26.5 47 -26.5 81v33c0 21.333 3.66699 40.333 11 57s19.666 29 36.999 37c-16.667 7.33301 -28.834 19 -36.501 35s-11.5 34.667 -11.5 56v15c0 34 9 60.833 27 80.5s44 29.5 78 29.5zM139.003 338
c-17.333 0 -30.833 -5.16699 -40.5 -15.5s-14.5 -27.166 -14.5 -50.499v-21c0 -41.333 18.333 -62 55 -62c17.333 0 30.833 5 40.5 15s14.5 25.667 14.5 47v21c0 23.333 -4.83301 40.166 -14.5 50.499s-23.167 15.5 -40.5 15.5zM139.003 143c-36.667 0 -55 -21 -55 -63v-38
c0 -44 18.333 -66 55 -66s55 22 55 66v38c0 42 -18.333 63 -55 63z" />
    <glyph glyph-name="nineinferior" unicode="&#x2089;" horiz-adv-x="277" 
d="M137 384c34.667 0 60.332 -10.333 76.999 -31s25 -48 25 -82v-226c0 -35.333 -8.16699 -63.333 -24.5 -84s-42.5 -31 -78.5 -31c-34 0 -59.333 10.167 -76 30.5s-25 47.5 -25 81.5v8h48v-11c0 -20 4.33301 -35.5 13 -46.5s21.667 -16.5 39 -16.5c36 0 54 23.667 54 71v96
c-13.333 -30 -37.333 -45 -72 -45c-28 0 -48.667 9.66699 -62 29s-20 45 -20 77v67c0 34 8.33301 61.333 25 82s42.334 31 77.001 31zM136.998 338c-17.333 0 -30.333 -5.5 -39 -16.5s-13 -26.5 -13 -46.5v-67c0 -20 4.33301 -35.667 13 -47s21.667 -17 39 -17
s30.333 5.66699 39 17s13 27 13 47v67c0 20 -4.33301 35.5 -13 46.5s-21.667 16.5 -39 16.5z" />
    <glyph glyph-name="Euro" unicode="&#x20ac;" horiz-adv-x="397" 
d="M57 531c0 26.667 3 50.834 9 72.501s15.333 40.167 28 55.5s28.667 27.166 48 35.499s42.333 12.5 69 12.5s49.667 -4.16699 69 -12.5s35.333 -20.166 48 -35.499s22 -33.833 28 -55.5s9 -45.834 9 -72.501v-45h-73v49c0 31.333 -6.16699 56 -18.5 74s-32.5 27 -60.5 27
s-48.167 -9 -60.5 -27s-18.5 -42.667 -18.5 -74v-108h174v-40h-174v-69h174v-41h-174v-112c0 -31.333 6.16699 -56 18.5 -74s32.5 -27 60.5 -27s48.167 9 60.5 27s18.5 42.667 18.5 74v54h73v-50c0 -52.667 -12.333 -95.167 -37 -127.5s-63.667 -48.5 -117 -48.5
s-92.333 16.167 -117 48.5s-37 74.833 -37 127.5v108h-44v41h44v69h-44v40h44v104z" />
    <glyph glyph-name="uni20B9" unicode="&#x20b9;" horiz-adv-x="388" 
d="M245 639c17.333 -10.667 29.833 -25.166 37.5 -43.499s12.167 -37.833 13.5 -58.5h61v-61h-61c-3.33301 -46.667 -19.666 -83.834 -48.999 -111.501s-68 -41.5 -116 -41.5h-17l242 -323h-84l-241 323v60h80c37.333 0 64.666 7.83301 81.999 23.5s26.333 38.834 27 69.501
h-188v61h188c0 33.333 -9.16699 58.666 -27.5 75.999s-45.5 26 -81.5 26h-79v61h325v-61h-112z" />
    <glyph glyph-name="uni2117" unicode="&#x2117;" horiz-adv-x="742" 
d="M371 704c49.333 0 95 -8.83301 137 -26.5s78.333 -42.334 109 -74.001s54.667 -69.167 72 -112.5s26 -90.333 26 -141s-8.66699 -97.667 -26 -141s-41.333 -80.666 -72 -111.999s-67 -56 -109 -74s-87.667 -27 -137 -27s-95 9 -137 27s-78.333 42.667 -109 74
s-54.667 68.666 -72 111.999s-26 90.333 -26 141s8.66699 97.667 26 141s41.333 80.833 72 112.5s67 56.334 109 74.001s87.667 26.5 137 26.5zM371 654c-42 0 -81 -7.66699 -117 -23s-67 -36.5 -93 -63.5s-46.333 -59.167 -61 -96.5s-22 -77.666 -22 -120.999
s7.33301 -83.666 22 -120.999s35 -69.5 61 -96.5s57 -48.167 93 -63.5s75 -23 117 -23s81 7.66699 117 23s67 36.5 93 63.5s46.333 59.167 61 96.5s22 77.666 22 120.999s-7.33301 83.666 -22 120.999s-35 69.5 -61 96.5s-57 48.167 -93 63.5s-75 23 -117 23zM393 555
c38.667 0 66.333 -9.83301 83 -29.5s25 -47.5 25 -83.5v-46c0 -38 -8.83301 -66.333 -26.5 -85s-46.167 -28 -85.5 -28h-51v-156h-54v428h109zM385.999 334c21.333 0 36.832 5.50098 46.499 16.501s14.5 28.167 14.5 51.5v34c0 21.333 -4.16699 38.166 -12.5 50.499
s-23.166 18.5 -44.499 18.5h-52v-171h48z" />
    <glyph glyph-name="trademark" unicode="&#x2122;" horiz-adv-x="583" 
d="M94 344v310h-82v46h213v-46h-81v-310h-50zM436 346h-48l-73 277v-279h-45v356h70l73 -278l70 278h70v-356h-48v281z" />
    <glyph glyph-name="uni2153" unicode="&#x2153;" horiz-adv-x="596" 
d="M118 623c-16.667 -10 -37 -15.999 -61 -17.999v37c24 0.666992 41.167 6.66699 51.5 18s18.5 24.666 24.5 39.999h35v-444h-50v367zM439 700.001l-276 -700h-47l276 700h47zM458 449.001c34.667 0 60.166 -10.1689 76.499 -30.502s24.5 -47.833 24.5 -82.5v-11
c0 -46.667 -17.667 -77 -53 -91c18.667 -7.33301 32.167 -19 40.5 -35s12.5 -35 12.5 -57v-34c0 -34.667 -8.16699 -62.167 -24.5 -82.5s-41.833 -30.5 -76.5 -30.5s-60 10.167 -76 30.5s-24 47.833 -24 82.5v30h48v-34c0 -19.333 4.16699 -34.666 12.5 -45.999
s21.166 -17 38.499 -17c34 0 51 22.667 51 68v34c0 43.333 -18.333 65 -55 65h-27v46h29c16.667 0 29.834 5.33301 39.501 16s14.167 25.667 13.5 45v20c0 45.333 -17 68 -51 68c-17.333 0 -30.166 -5.66699 -38.499 -17s-12.5 -26.666 -12.5 -45.999v-23h-48v19
c0 34.667 8 62.167 24 82.5s41.333 30.5 76 30.5z" />
    <glyph glyph-name="uni2154" unicode="&#x2154;" horiz-adv-x="618" 
d="M142 705c34.667 0 60.001 -10.334 76.001 -31.001s24 -48 24 -82c0 -22.667 -3.83301 -43 -11.5 -61s-17 -34.667 -28 -50s-23.167 -30 -36.5 -44s-25.5 -27.833 -36.5 -41.5s-20.167 -27.667 -27.5 -42s-11 -30.166 -11 -47.499v-5h146v-46h-196v38
c0 24 3.66699 45.167 11 63.5s16.666 35 27.999 50s23.5 29.167 36.5 42.5s25.167 27 36.5 41s20.666 29.167 27.999 45.5s11 34.833 11 55.5c0 45.333 -17.333 68 -52 68c-17.333 0 -30.166 -5.83301 -38.499 -17.5s-12.5 -27.5 -12.5 -47.5v-38h-48v36
c0 34 8 61.333 24 82s41.667 31 77 31zM200.001 -0.000976562h-47l276 700h47zM481.001 448.999c34 0 59.166 -10.1689 75.499 -30.502s24.5 -47.833 24.5 -82.5v-11c0 -46.667 -17.667 -77 -53 -91c18.667 -7.33301 32.167 -19 40.5 -35s12.5 -35 12.5 -57v-34
c0 -34.667 -8.16699 -62.167 -24.5 -82.5s-41.5 -30.5 -75.5 -30.5c-34.667 0 -60.167 10.167 -76.5 30.5s-24.5 47.833 -24.5 82.5v30h48v-34c0 -19.333 4.16699 -34.666 12.5 -45.999s21.166 -17 38.499 -17c34 0 51 22.667 51 68v34c0 43.333 -18.333 65 -55 65h-27v46
h29c16.667 0 29.834 5.33301 39.501 16s14.167 25.667 13.5 45v20c0 45.333 -17 68 -51 68c-17.333 0 -30.166 -5.66699 -38.499 -17s-12.5 -26.666 -12.5 -45.999v-23h-48v19c0 34.667 8.16699 62.167 24.5 82.5s41.833 30.5 76.5 30.5z" />
    <glyph glyph-name="oneeighth" unicode="&#x215b;" horiz-adv-x="601" 
d="M118 623c-16.667 -10 -37 -15.999 -61 -17.999v37c24 0.666992 41.167 6.66699 51.5 18s18.5 24.666 24.5 39.999h35v-444h-50v367zM116 0.000976562l276 700h47l-276 -700h-47zM462 449.001c34 0 60.0029 -9.83301 78.0029 -29.5s27 -46.5 27 -80.5v-15
c0 -21.333 -3.83301 -40 -11.5 -56s-19.834 -27.667 -36.501 -35c17.333 -8 29.666 -20.333 36.999 -37s11 -35.667 11 -57v-33c0 -34 -8.83301 -61 -26.5 -81s-43.834 -30 -78.501 -30c-35.333 0 -61.833 10 -79.5 30s-26.5 47 -26.5 81v33
c0 21.333 3.83301 40.333 11.5 57s20.167 29 37.5 37c-17.333 7.33301 -29.833 19 -37.5 35s-11.5 34.667 -11.5 56v15c0 34 9 60.833 27 80.5s44.333 29.5 79 29.5zM462.003 403.001c-17.333 0 -30.833 -5.16699 -40.5 -15.5s-14.5 -27.166 -14.5 -50.499v-21
c0 -41.333 18.333 -62 55 -62c17.333 0 30.833 5 40.5 15s14.5 25.667 14.5 47v21c0 23.333 -4.83301 40.166 -14.5 50.499s-23.167 15.5 -40.5 15.5zM462.003 208.001c-36.667 0 -55 -21 -55 -63v-38c0 -44 18.333 -66 55 -66s55 22 55 66v38c0 42 -18.333 63 -55 63z" />
    <glyph glyph-name="threeeighths" unicode="&#x215c;" horiz-adv-x="626" 
d="M138 705c34 0 59.167 -10.1689 75.5 -30.502s24.5 -47.833 24.5 -82.5v-11c0 -46.667 -17.333 -77 -52 -91c18.667 -7.33301 32 -19 40 -35s12 -35 12 -57v-34c0 -34.667 -8.16699 -62.167 -24.5 -82.5s-41.5 -30.5 -75.5 -30.5c-34.667 0 -60.167 10.167 -76.5 30.5
s-24.5 47.833 -24.5 82.5v30h48v-34c0 -19.333 4.16699 -34.666 12.5 -45.999s21.166 -17 38.499 -17c34.667 0 52 22.667 52 68v34c0 43.333 -18.333 65 -55 65h-27v46h29c16 0 28.833 5.33301 38.5 16s14.5 25.667 14.5 45v20c0 45.333 -17.333 68 -52 68
c-17.333 0 -30.166 -5.66699 -38.499 -17s-12.5 -26.666 -12.5 -45.999v-23h-48v19c0 34.667 8.16699 62.167 24.5 82.5s41.833 30.5 76.5 30.5zM473 699.998l-276 -700h-47l276 700h47zM487 448.998c34.667 0 60.834 -9.83301 78.501 -29.5s26.5 -46.5 26.5 -80.5v-15
c0 -21.333 -3.66699 -40 -11 -56s-19.666 -27.667 -36.999 -35c17.333 -8 29.666 -20.333 36.999 -37s11 -35.667 11 -57v-33c0 -34 -8.83301 -61 -26.5 -81s-43.834 -30 -78.501 -30s-60.834 10 -78.501 30s-26.5 47 -26.5 81v33c0 21.333 3.66699 40.333 11 57
s19.666 29 36.999 37c-17.333 7.33301 -29.666 19 -36.999 35s-11 34.667 -11 56v15c0 34 8.83301 60.833 26.5 80.5s43.834 29.5 78.501 29.5zM487 402.998c-17.333 0 -30.833 -5.16699 -40.5 -15.5s-14.5 -27.166 -14.5 -50.499v-21c0 -41.333 18.333 -62 55 -62
c17.333 0 30.833 5 40.5 15s14.5 25.667 14.5 47v21c0 23.333 -4.83301 40.166 -14.5 50.499s-23.167 15.5 -40.5 15.5zM487 207.998c-36.667 0 -55 -21 -55 -63v-38c0 -44 18.333 -66 55 -66s55 22 55 66v38c0 42 -18.333 63 -55 63z" />
    <glyph glyph-name="fiveeighths" unicode="&#x215d;" horiz-adv-x="626" 
d="M425 700h47l-276 -700h-47zM91 520c14 23.333 36 35.001 66 35.001c28 0 48.667 -9.66699 62 -29s20 -45 20 -77v-87c0 -34 -8.16699 -61.333 -24.5 -82s-41.833 -31 -76.5 -31c-34 0 -59.167 10.333 -75.5 31s-24.5 48 -24.5 82v30h48v-33
c0 -20 4.16699 -35.5 12.5 -46.5s21.166 -16.5 38.499 -16.5s30.166 5.5 38.499 16.5s12.5 26.5 12.5 46.5v86c0 19.333 -4.16699 34.666 -12.5 45.999s-21.166 17 -38.499 17c-12.667 0 -23.667 -3.83301 -33 -11.5s-14.666 -19.5 -15.999 -35.5v-10h-48l13 248h175v-46
h-131zM486 449.001c34.667 0 61.0029 -9.83301 79.0029 -29.5s27 -46.5 27 -80.5v-15c0 -21.333 -3.83301 -40 -11.5 -56s-20.167 -27.667 -37.5 -35c17.333 -8 29.833 -20.333 37.5 -37s11.5 -35.667 11.5 -57v-33c0 -34 -8.83301 -61 -26.5 -81s-44.167 -30 -79.5 -30
c-34.667 0 -60.834 10 -78.501 30s-26.5 47 -26.5 81v33c0 21.333 3.66699 40.333 11 57s19.666 29 36.999 37c-16.667 7.33301 -28.834 19 -36.501 35s-11.5 34.667 -11.5 56v15c0 34 9 60.833 27 80.5s44 29.5 78 29.5zM486.003 403.001
c-17.333 0 -30.833 -5.16699 -40.5 -15.5s-14.5 -27.166 -14.5 -50.499v-21c0 -41.333 18.333 -62 55 -62c17.333 0 30.833 5 40.5 15s14.5 25.667 14.5 47v21c0 23.333 -4.83301 40.166 -14.5 50.499s-23.167 15.5 -40.5 15.5zM486.003 208.001c-36.667 0 -55 -21 -55 -63
v-38c0 -44 18.333 -66 55 -66s55 22 55 66v38c0 42 -18.333 63 -55 63z" />
    <glyph glyph-name="seveneighths" unicode="&#x215e;" horiz-adv-x="594" 
d="M187 654h-150v46h202v-44l-115 -400h-50zM144 0h-47l276 700h47zM454 449c34.667 0 61 -9.83301 79 -29.5s27 -46.5 27 -80.5v-15c0 -21.333 -3.83301 -40 -11.5 -56s-20.167 -27.667 -37.5 -35c17.333 -8 29.833 -20.333 37.5 -37s11.5 -35.667 11.5 -57v-33
c0 -34 -8.83301 -61 -26.5 -81s-44.167 -30 -79.5 -30c-34.667 0 -60.834 10 -78.501 30s-26.5 47 -26.5 81v33c0 21.333 3.66699 40.333 11 57s19.666 29 36.999 37c-17.333 7.33301 -29.666 19 -36.999 35s-11 34.667 -11 56v15c0 34 8.83301 60.833 26.5 80.5
s43.834 29.5 78.501 29.5zM454 403c-17.333 0 -30.833 -5.16699 -40.5 -15.5s-14.5 -27.166 -14.5 -50.499v-21c0 -41.333 18.333 -62 55 -62c17.333 0 30.833 5 40.5 15s14.5 25.667 14.5 47v21c0 23.333 -4.83301 40.166 -14.5 50.499s-23.167 15.5 -40.5 15.5zM454 208
c-36.667 0 -55 -21 -55 -63v-38c0 -44 18.333 -66 55 -66s55 22 55 66v38c0 42 -18.333 63 -55 63z" />
    <glyph glyph-name="minus" unicode="&#x2212;" horiz-adv-x="392" 
d="M362 378v-56h-332v56h332z" />
    <glyph glyph-name="infinity" unicode="&#x221e;" horiz-adv-x="583" 
d="M418 483c41.333 0 73.666 -10.5 96.999 -31.5s35 -52.167 35 -93.5s-11.667 -72.333 -35 -93s-55.666 -31 -96.999 -31h-13c-26.667 0 -49.334 4.33301 -68.001 13s-32.334 22.667 -41.001 42c-9.33301 -20.667 -23.833 -35 -43.5 -43s-42.5 -12 -68.5 -12h-12
c-41.333 0 -73.833 10.333 -97.5 31s-35.5 51.667 -35.5 93s11.833 72.5 35.5 93.5s56.167 31.5 97.5 31.5h12c26 0 48.833 -4.16699 68.5 -12.5s34.167 -22.833 43.5 -43.5c8.66699 20 22.334 34.333 41.001 43s41.334 13 68.001 13h13zM173 429
c-28.667 0 -49 -6.50098 -61 -19.501s-18 -30.167 -18 -51.5s6 -38.166 18 -50.499s32.333 -18.833 61 -19.5h18c26.667 0 46.334 6.16699 59.001 18.5s19 29.5 19 51.5s-6.33301 39.333 -19 52s-32.334 19 -59.001 19h-18zM397 428.999
c-29.333 0 -49.5 -6.50098 -60.5 -19.501s-16.5 -30.167 -16.5 -51.5s5.5 -38.166 16.5 -50.499s31.167 -18.833 60.5 -19.5h18c26.667 0 46.667 6.16699 60 18.5s20 29.5 20 51.5s-6.66699 39.333 -20 52s-33.333 19 -60 19h-18z" />
    <glyph glyph-name="approxequal" unicode="&#x2248;" horiz-adv-x="396" 
d="M125 492c14 0 27.667 -3.33301 41 -10s26.166 -13.834 38.499 -21.501s24.5 -14.667 36.5 -21s23.667 -9.5 35 -9.5c12.667 0.666992 23.334 5.5 32.001 14.5s19.334 22.833 32.001 41.5l38 -38c-18.667 -28.667 -35.834 -48.5 -51.501 -59.5
s-32.834 -16.833 -51.501 -17.5c-14 0 -27.333 3.16699 -40 9.5s-25.167 13.333 -37.5 21s-24.5 14.667 -36.5 21s-24 9.5 -36 9.5c-13.333 0 -24.833 -4.33301 -34.5 -13s-21.167 -22.667 -34.5 -42l-38 35c19.333 29.333 37.333 49.833 54 61.5
s34.334 17.834 53.001 18.501zM125 328c14 0 27.667 -3.16699 41 -9.5s26.166 -13.333 38.499 -21s24.5 -14.667 36.5 -21s23.667 -9.5 35 -9.5c12.667 0 23.334 4.66699 32.001 14s19.334 23 32.001 41l38 -37c-18.667 -28.667 -35.834 -48.667 -51.501 -60
s-32.834 -17 -51.501 -17c-14 0 -27.333 3.16699 -40 9.5s-25.167 13.333 -37.5 21s-24.5 14.667 -36.5 21s-24 9.5 -36 9.5c-13.333 0 -24.833 -4.5 -34.5 -13.5s-21.167 -22.833 -34.5 -41.5l-38 35c19.333 29.333 37.333 49.833 54 61.5s34.334 17.5 53.001 17.5z" />
    <glyph glyph-name="commaaccentcomb" unicode="&#xf6c3;" horiz-adv-x="0" 
d="M102 -177h-29l23 56h-25v88h66v-81z" />
    <glyph glyph-name="zero.alt" horiz-adv-x="389" 
d="M34 531c0 54 13.167 96.833 39.5 128.5s66.5 47.5 120.5 47.5s94.333 -15.833 121 -47.5s40 -74.5 40 -128.5v-361c0 -54 -13.333 -97 -40 -129s-67 -48 -121 -48s-94.167 16 -120.5 48s-39.5 75 -39.5 129v361zM111 165c0 -32 6.83301 -56.833 20.5 -74.5
s34.5 -26.5 62.5 -26.5c28.667 0 49.667 8.83301 63 26.5s20 42.5 20 74.5v370c0 32 -6.66699 57 -20 75s-34.333 27 -63 27c-28 0 -48.833 -9 -62.5 -27s-20.5 -43 -20.5 -75v-370z" />
    <glyph glyph-name="one.alt" horiz-adv-x="255" 
d="M123 573c-13.333 -8 -28.167 -14.667 -44.5 -20s-33.833 -8.66602 -52.5 -9.99902v64c18.667 0.666992 34.667 3.66699 48 9s24.5 12.166 33.5 20.499s16.5 18 22.5 29s11.333 22.5 16 34.5h54v-700h-77v573z" />
    <glyph glyph-name="two.alt" horiz-adv-x="368" 
d="M188 707c54.667 0 94.499 -16.0039 119.499 -48.0039s37.5 -75 37.5 -129c0 -36 -5.83301 -68.167 -17.5 -96.5s-26.334 -54.666 -44.001 -78.999s-36.667 -47.166 -57 -68.499s-39.333 -42.833 -57 -64.5s-32.5 -44.167 -44.5 -67.5s-18 -48.666 -18 -75.999v-7h231v-71
h-307v60c0 37.333 5.83301 70.333 17.5 99s26.334 54.834 44.001 78.501s36.667 46 57 67s39.333 42.5 57 64.5s32.334 45.667 44.001 71s17.5 54.333 17.5 87c0 36 -6.5 63.333 -19.5 82s-33.833 28 -62.5 28s-49.5 -9.33301 -62.5 -28s-19.5 -43.667 -19.5 -75v-62h-73v57
c0 54 12.667 97.167 38 129.5s65 48.5 119 48.5z" />
    <glyph glyph-name="three.alt" horiz-adv-x="377" 
d="M189 707c54 0 93.667 -15.833 119 -47.5s38 -74.5 38 -128.5v-18c0 -36 -7.16699 -66.333 -21.5 -91s-35.5 -42.334 -63.5 -53.001c30 -11.333 51.667 -29.5 65 -54.5s20 -55.167 20 -90.5v-54c0 -53.333 -12.833 -96.166 -38.5 -128.499s-65.167 -48.5 -118.5 -48.5
c-54 0 -93.833 16 -119.5 48s-38.5 75 -38.5 129v48h74v-53c0 -32 6.5 -56.833 19.5 -74.5s33.833 -26.5 62.5 -26.5c54.667 0 82 36 82 108v54c0 67.333 -29.667 102 -89 104h-42v70h47c26 1.33301 46.5 10 61.5 26s22.5 39.333 22.5 70v32c0 72.667 -27.333 109 -82 109
c-28.667 0 -49.5 -9 -62.5 -27s-19.5 -43 -19.5 -75v-36h-74v32c0 54 12.833 96.833 38.5 128.5s65.5 47.5 119.5 47.5z" />
    <glyph glyph-name="four.alt" horiz-adv-x="400" 
d="M324 141v-141h-77v141h-225v71l217 488h85v-488h56v-71h-56zM94 212h153v339z" />
    <glyph glyph-name="five.alt" horiz-adv-x="378" 
d="M113 415c22.667 38.667 57.666 58 104.999 58c44.667 0 77.334 -15.167 98.001 -45.5s31 -70.5 31 -120.5v-137c0 -54 -12.833 -97 -38.5 -129s-65.5 -48 -119.5 -48c-53.333 0 -92.833 16.167 -118.5 48.5s-38.5 75.166 -38.5 128.499v47h73v-52
c0 -32 6.66699 -56.833 20 -74.5s34 -26.5 62 -26.5c28.667 0 49.5 8.83301 62.5 26.5s19.5 42.5 19.5 74.5v136c0 32 -6.5 56.833 -19.5 74.5s-33.833 26.5 -62.5 26.5c-21.333 0 -38.833 -6.16699 -52.5 -18.5s-22.167 -31.166 -25.5 -56.499v-16h-74l20 389h276v-70h-207
z" />
    <glyph glyph-name="six.alt" horiz-adv-x="386" 
d="M195 707c54 0 93.833 -15.666 119.5 -46.999s38.5 -74 38.5 -128v-13h-74v18c0 32 -6.5 56.667 -19.5 74s-33.833 26 -62.5 26c-57.333 0 -86 -37.667 -86 -113v-157c10 24 24.5 42.5 43.5 55.5s42.5 19.5 70.5 19.5c44.667 0 77.5 -15 98.5 -45s31.5 -70.333 31.5 -121
v-106c0 -54 -13.333 -97 -40 -129s-67 -48 -121 -48s-94.167 16 -120.5 48s-39.5 75 -39.5 129v357c0 55.333 12.833 99.166 38.5 131.499s66.5 48.5 122.5 48.5zM194 371.001c-28 0 -48.833 -8.83301 -62.5 -26.5s-20.5 -42.5 -20.5 -74.5v-105
c0 -32 6.83301 -56.833 20.5 -74.5s34.5 -26.5 62.5 -26.5c28.667 0 49.667 8.83301 63 26.5s20 42.5 20 74.5v105c0 32 -6.66699 56.833 -20 74.5s-34.333 26.5 -63 26.5z" />
    <glyph glyph-name="seven.alt" horiz-adv-x="349" 
d="M252 630h-232v70h309v-68l-172 -632h-78z" />
    <glyph glyph-name="eight.alt" horiz-adv-x="393" 
d="M196 707c54.667 0 96.002 -15.3311 124.002 -45.998s42 -73 42 -127v-22c0 -36 -6.33301 -66.333 -19 -91s-33 -42.334 -61 -53.001c29.333 -11.333 50 -30 62 -56s18 -56.667 18 -92v-52c0 -54 -13.833 -96.667 -41.5 -128s-69.167 -47 -124.5 -47
c-54.667 0 -95.834 15.667 -123.501 47s-41.5 74 -41.5 128v52c0 36 6.16699 66.667 18.5 92s33.166 44 62.499 56c-28 11.333 -48.5 29.166 -61.5 53.499s-19.5 54.5 -19.5 90.5v22c0 54 14 96.333 42 127s69 46 123 46zM196.002 637.002c-27.333 0 -48.667 -8.5 -64 -25.5
s-23 -43.5 -23 -79.5v-34c0 -34 7.5 -58.833 22.5 -74.5s36.5 -23.5 64.5 -23.5s49.667 7.83301 65 23.5s23 40.5 23 74.5v34c0 36 -7.66699 62.5 -23 79.5s-37 25.5 -65 25.5zM196.001 330.002c-58 0 -87 -33.667 -87 -101v-59c0 -36 7.5 -62.667 22.5 -80
s36.5 -26 64.5 -26c58.667 0 88 35.333 88 106v59c0 67.333 -29.333 101 -88 101z" />
    <glyph glyph-name="nine.alt" horiz-adv-x="386" 
d="M192 707c54 0 94.167 -15.834 120.5 -47.501s39.5 -74.5 39.5 -128.5v-357c0 -55.333 -12.833 -99.333 -38.5 -132s-66.5 -49 -122.5 -49c-54 0 -93.833 15.833 -119.5 47.5s-38.5 74.5 -38.5 128.5v13h73v-18c0 -32 6.83301 -56.667 20.5 -74s34.5 -26 62.5 -26
c57.333 0 86 37.333 86 112v157c-20.667 -49.333 -58.667 -74 -114 -74c-44.667 0 -77.5 14.833 -98.5 44.5s-31.5 69.834 -31.5 120.501v107c0 54 13.333 96.833 40 128.5s67 47.5 121 47.5zM192 635.999c-28.667 0 -49.667 -8.83301 -63 -26.5s-20 -42.5 -20 -74.5v-105
c0 -32 6.66699 -56.833 20 -74.5s34.333 -26.5 63 -26.5c28 0 48.833 8.83301 62.5 26.5s20.5 42.5 20.5 74.5v105c0 32 -6.83301 56.833 -20.5 74.5s-34.5 26.5 -62.5 26.5z" />
    <glyph glyph-name="Edotaaccent" horiz-adv-x="405" 
 />
    <glyph glyph-name="edotaaccent" horiz-adv-x="405" 
 />
    <glyph glyph-name="lcute" horiz-adv-x="405" 
 />
    </font>
</defs>
</svg>
